<svg width="210" height="62" fill="none" xmlns="http://www.w3.org/2000/svg"><path d="M208.838 54.276c0 3.233-2.661 5.852-5.953 5.852H8.042c-3.29 0-5.962-2.619-5.962-5.852V7.606c0-3.231 2.671-5.86 5.962-5.86h194.841c3.294 0 5.954 2.629 5.954 5.86l.001 46.67Z" fill="#000"/><path d="M202.256 1.817c3.586 0 6.503 2.858 6.503 6.369v45.503c0 3.511-2.917 6.369-6.503 6.369H8.662c-3.585 0-6.502-2.858-6.502-6.369V8.186c0-3.511 2.917-6.369 6.502-6.369h193.594Zm0-1.215H8.662C4.405.602.92 4.017.92 8.186v45.503c0 4.17 3.486 7.584 7.743 7.584h193.594c4.257 0 7.744-3.415 7.744-7.584V8.186c0-4.17-3.487-7.584-7.744-7.584Z" fill="#000"/><path d="M47.58 30.61c-.045-4.889 4.087-7.267 4.276-7.378-2.34-3.341-5.968-3.798-7.242-3.834-3.047-.314-6.002 1.785-7.554 1.785-1.582 0-3.972-1.755-6.548-1.703-3.314.05-6.415 1.929-8.115 4.847-3.51 5.95-.892 14.695 2.47 19.504 1.682 2.356 3.647 4.986 6.22 4.894 2.517-.102 3.457-1.572 6.494-1.572 3.009 0 3.892 1.572 6.515 1.513 2.701-.043 4.402-2.367 6.025-4.743 1.944-2.7 2.724-5.36 2.755-5.496-.063-.021-5.245-1.958-5.296-7.817ZM42.623 16.234c1.354-1.658 2.28-3.914 2.023-6.202-1.959.085-4.41 1.327-5.82 2.948-1.248 1.43-2.363 3.771-2.075 5.973 2.2.161 4.46-1.087 5.873-2.72ZM84.001 48.387h-3.517l-1.926-5.93H71.86l-1.836 5.93h-3.424L73.236 28.2h4.098l6.667 20.186Zm-6.024-8.417-1.743-5.27c-.184-.54-.53-1.807-1.039-3.803h-.062c-.203.858-.53 2.126-.979 3.802l-1.71 5.271h5.533ZM101.064 40.93c0 2.476-.683 4.432-2.05 5.869-1.223 1.278-2.742 1.917-4.555 1.917-1.958 0-3.364-.689-4.22-2.066h-.063v7.667h-3.302V38.623a97.69 97.69 0 0 0-.122-4.791h2.904l.184 2.307h.062c1.101-1.738 2.772-2.606 5.015-2.606 1.753 0 3.217.678 4.388 2.035 1.173 1.36 1.759 3.146 1.759 5.362Zm-3.364.119c0-1.417-.325-2.585-.979-3.504-.714-.959-1.672-1.438-2.874-1.438-.815 0-1.555.267-2.216.793-.663.531-1.097 1.224-1.3 2.083-.102.4-.153.728-.153.986v2.426c0 1.06.331 1.952.994 2.682s1.524 1.094 2.583 1.094c1.244 0 2.212-.47 2.904-1.408.694-.939 1.041-2.176 1.041-3.714ZM118.157 40.93c0 2.476-.682 4.432-2.05 5.869-1.222 1.278-2.741 1.917-4.555 1.917-1.958 0-3.364-.689-4.219-2.066h-.062v7.667h-3.302V38.623c0-1.556-.041-3.153-.122-4.791h2.904l.184 2.307h.062c1.1-1.738 2.771-2.606 5.015-2.606 1.752 0 3.215.678 4.389 2.035 1.17 1.36 1.756 3.146 1.756 5.362Zm-3.363.119c0-1.417-.327-2.585-.981-3.504-.714-.959-1.669-1.438-2.873-1.438-.816 0-1.555.267-2.217.793-.663.531-1.095 1.224-1.298 2.083-.101.4-.154.728-.154.986v2.426c0 1.06.332 1.952.992 2.682.662.728 1.524 1.094 2.586 1.094 1.244 0 2.212-.47 2.904-1.408.694-.939 1.041-2.176 1.041-3.714ZM137.269 42.726c0 1.717-.609 3.114-1.831 4.192-1.342 1.179-3.212 1.767-5.614 1.767-2.218 0-3.996-.418-5.341-1.257l.765-2.695c1.449.858 3.04 1.289 4.773 1.289 1.244 0 2.212-.276 2.907-.825.692-.55 1.038-1.286 1.038-2.206 0-.819-.285-1.509-.857-2.068-.568-.56-1.518-1.08-2.843-1.561-3.609-1.318-5.412-3.25-5.412-5.788 0-1.66.632-3.02 1.898-4.079 1.26-1.06 2.942-1.59 5.045-1.59 1.876 0 3.434.32 4.678.96l-.826 2.635c-1.161-.619-2.475-.928-3.945-.928-1.161 0-2.069.28-2.719.839-.55.499-.826 1.107-.826 1.828 0 .797.315 1.457.947 1.976.549.48 1.548.998 2.998 1.558 1.773.699 3.076 1.516 3.914 2.454.834.934 1.251 2.104 1.251 3.499ZM148.186 36.258h-3.639v7.067c0 1.797.641 2.695 1.926 2.695.59 0 1.08-.05 1.467-.15l.091 2.456c-.65.238-1.506.358-2.567.358-1.304 0-2.323-.39-3.059-1.168-.733-.78-1.101-2.087-1.101-3.924v-7.337h-2.169v-2.427h2.169v-2.664l3.243-.959v3.623h3.639v2.43ZM164.608 40.99c0 2.237-.654 4.073-1.958 5.51-1.368 1.479-3.183 2.216-5.445 2.216-2.181 0-3.917-.709-5.212-2.125-1.295-1.417-1.942-3.205-1.942-5.36 0-2.256.666-4.103 2.002-5.54 1.334-1.438 3.134-2.157 5.396-2.157 2.181 0 3.936.709 5.26 2.127 1.267 1.376 1.899 3.152 1.899 5.328Zm-3.426.104c0-1.342-.293-2.494-.886-3.454-.692-1.162-1.682-1.74-2.964-1.74-1.328 0-2.336.58-3.028 1.74-.593.962-.886 2.131-.886 3.515 0 1.342.293 2.493.886 3.452.714 1.162 1.711 1.741 2.998 1.741 1.261 0 2.25-.591 2.964-1.771.609-.979.916-2.142.916-3.483ZM175.34 36.676a5.845 5.845 0 0 0-1.04-.09c-1.162 0-2.06.43-2.692 1.29-.55.758-.826 1.717-.826 2.874v7.637h-3.3l.031-9.971a77.57 77.57 0 0 0-.124-4.583h2.876l.121 2.785h.091c.349-.957.899-1.727 1.651-2.305.736-.52 1.531-.78 2.387-.78.305 0 .581.021.825.06v3.083ZM190.108 40.42c0 .58-.039 1.068-.121 1.467h-9.906c.039 1.438.517 2.538 1.437 3.296.835.678 1.915 1.018 3.24 1.018 1.467 0 2.805-.23 4.009-.689l.517 2.245c-1.406.6-3.067.9-4.983.9-2.304 0-4.113-.665-5.429-1.992-1.314-1.327-1.972-3.11-1.972-5.345 0-2.195.612-4.023 1.837-5.48 1.282-1.557 3.015-2.335 5.196-2.335 2.142 0 3.763.778 4.865 2.335.871 1.236 1.31 2.765 1.31 4.58Zm-3.149-.838c.022-.959-.193-1.787-.641-2.486-.572-.9-1.45-1.349-2.631-1.349-1.08 0-1.958.438-2.629 1.318-.549.7-.876 1.538-.977 2.515h6.878v.002ZM76.885 15.784c0 1.785-.547 3.129-1.639 4.031-1.01.833-2.448 1.25-4.31 1.25-.923 0-1.713-.04-2.374-.118v-9.755a17.884 17.884 0 0 1 2.796-.206c1.773 0 3.11.378 4.01 1.133 1.01.854 1.517 2.075 1.517 3.665Zm-1.711.044c0-1.158-.313-2.045-.939-2.664-.626-.617-1.54-.927-2.743-.927-.51 0-.946.034-1.307.104v7.415c.2.03.565.044 1.097.044 1.242 0 2.2-.338 2.876-1.015.675-.676 1.016-1.662 1.016-2.957ZM85.96 17.343c0 1.1-.322 2-.963 2.707-.672.727-1.562 1.09-2.674 1.09-1.072 0-1.925-.348-2.562-1.046-.635-.696-.953-1.574-.953-2.633 0-1.107.327-2.016.984-2.721.657-.705 1.54-1.059 2.651-1.059 1.072 0 1.933.348 2.585 1.044.62.676.931 1.55.931 2.618Zm-1.684.051c0-.66-.146-1.225-.436-1.697-.34-.57-.825-.855-1.455-.855-.652 0-1.148.285-1.489.855-.29.472-.435 1.047-.435 1.726 0 .66.146 1.226.435 1.697.352.57.841.856 1.473.856.62 0 1.106-.29 1.456-.87.3-.482.45-1.052.45-1.712ZM98.126 13.827l-2.284 7.15h-1.487l-.946-3.105a22.837 22.837 0 0 1-.587-2.31h-.03a16.636 16.636 0 0 1-.587 2.31L91.2 20.977h-1.504l-2.148-7.15h1.668l.826 3.4c.2.803.364 1.569.495 2.294h.03c.12-.598.32-1.359.602-2.28l1.036-3.412h1.323l.993 3.34c.24.814.435 1.598.585 2.354h.045a22.1 22.1 0 0 1 .496-2.354l.885-3.34h1.594v-.002ZM106.54 20.977h-1.623v-4.095c0-1.262-.489-1.893-1.471-1.893-.482 0-.87.173-1.172.52a1.823 1.823 0 0 0-.451 1.226v4.24H100.2V15.87c0-.628-.02-1.309-.059-2.046h1.426l.076 1.118h.045a2.32 2.32 0 0 1 .841-.863 2.79 2.79 0 0 1 1.472-.402c.681 0 1.248.215 1.698.648.561.529.841 1.32.841 2.369v4.283ZM111.016 20.977h-1.621v-10.43h1.621v10.43ZM120.572 17.343c0 1.1-.32 2-.962 2.707-.672.727-1.564 1.09-2.674 1.09-1.074 0-1.927-.348-2.562-1.046-.635-.696-.952-1.574-.952-2.633 0-1.107.326-2.016.983-2.721.657-.705 1.539-1.059 2.65-1.059 1.073 0 1.933.348 2.586 1.044.62.676.931 1.55.931 2.618Zm-1.685.051c0-.66-.145-1.225-.435-1.697-.339-.57-.826-.855-1.454-.855-.654 0-1.15.285-1.489.855-.291.472-.435 1.047-.435 1.726 0 .66.146 1.226.435 1.697.352.57.841.856 1.473.856.62 0 1.104-.29 1.454-.87.302-.482.451-1.052.451-1.712ZM128.427 20.977h-1.457l-.121-.824h-.045c-.498.657-1.209.986-2.132.986-.69 0-1.247-.217-1.667-.647-.381-.392-.571-.879-.571-1.457 0-.873.371-1.539 1.119-2 .747-.461 1.797-.687 3.149-.677v-.133c0-.942-.505-1.412-1.516-1.412-.72 0-1.355.177-1.904.53l-.329-1.044c.678-.411 1.516-.618 2.504-.618 1.908 0 2.865.986 2.865 2.958v2.633c0 .715.036 1.283.105 1.705Zm-1.685-2.457v-1.103c-1.79-.03-2.685.45-2.685 1.441 0 .373.102.652.311.839.209.186.476.279.793.279.356 0 .689-.11.993-.33a1.353 1.353 0 0 0 .588-1.126ZM137.65 20.977h-1.44l-.076-1.148h-.045c-.46.873-1.244 1.31-2.345 1.31-.879 0-1.612-.338-2.193-1.014-.581-.677-.87-1.555-.87-2.634 0-1.157.314-2.094.946-2.81.612-.667 1.361-1.001 2.254-1.001.98 0 1.666.323 2.056.97h.031v-4.104h1.625v8.505c0 .696.018 1.338.057 1.926Zm-1.682-3.015V16.77c0-.207-.015-.374-.045-.501a1.8 1.8 0 0 0-.587-.963 1.615 1.615 0 0 0-1.085-.39c-.606 0-1.08.235-1.428.707-.346.472-.521 1.074-.521 1.81 0 .706.166 1.28.499 1.72.352.471.826.706 1.419.706.533 0 .958-.196 1.282-.588.313-.363.466-.8.466-1.31ZM151.532 17.343c0 1.1-.321 2-.962 2.707-.672.727-1.561 1.09-2.675 1.09-1.07 0-1.923-.348-2.562-1.046-.635-.696-.952-1.574-.952-2.633 0-1.107.327-2.016.983-2.721.657-.705 1.54-1.059 2.653-1.059 1.071 0 1.933.348 2.584 1.044.619.676.931 1.55.931 2.618Zm-1.682.051c0-.66-.146-1.225-.436-1.697-.342-.57-.825-.855-1.457-.855-.65 0-1.146.285-1.488.855-.291.472-.436 1.047-.436 1.726 0 .66.146 1.226.436 1.697.351.57.841.856 1.473.856.619 0 1.107-.29 1.457-.87.299-.482.451-1.052.451-1.712ZM160.259 20.977h-1.622v-4.095c0-1.262-.489-1.893-1.472-1.893-.482 0-.871.173-1.171.52a1.813 1.813 0 0 0-.451 1.226v4.24h-1.625V15.87a38.8 38.8 0 0 0-.057-2.046h1.425l.076 1.118h.045c.19-.348.472-.634.841-.863a2.79 2.79 0 0 1 1.473-.402c.679 0 1.246.215 1.697.648.562.529.841 1.32.841 2.369v4.283ZM171.182 15.018h-1.787v3.473c0 .883.317 1.324.946 1.324.291 0 .533-.024.723-.074l.042 1.206c-.32.118-.742.177-1.26.177-.642 0-1.14-.191-1.501-.573-.363-.382-.542-1.025-.542-1.928v-3.605h-1.067v-1.191h1.067v-1.31l1.59-.47v1.778h1.788v1.193h.001ZM179.775 20.977h-1.625v-4.065c0-1.282-.489-1.923-1.47-1.923-.752 0-1.267.371-1.548 1.115a1.958 1.958 0 0 0-.076.571v4.3h-1.622V10.546h1.622v4.31h.031c.511-.785 1.243-1.176 2.193-1.176.672 0 1.228.215 1.669.648.55.538.826 1.339.826 2.398v4.251ZM188.638 17.064c0 .285-.021.525-.06.72h-4.868c.022.707.254 1.246.705 1.619.412.334.943.5 1.593.5.721 0 1.377-.112 1.969-.338l.254 1.104c-.692.294-1.507.442-2.45.442-1.131 0-2.021-.326-2.666-.979-.647-.652-.968-1.527-.968-2.625 0-1.079.299-1.977.902-2.693.629-.764 1.479-1.146 2.552-1.146 1.05 0 1.848.382 2.387 1.147.435.606.65 1.357.65 2.249Zm-1.549-.411c.013-.472-.094-.878-.314-1.221-.282-.441-.711-.663-1.292-.663-.529 0-.961.215-1.291.648-.27.344-.429.755-.482 1.236h3.379Z" fill="#fff"/></svg>