<svg width="390" height="977" fill="none" xmlns="http://www.w3.org/2000/svg"><g clip-path="url(#a)"><path fill="#4D01BA" d="M0 0h390v977H0z"/><path d="m-44.55 605.871-7.512 1.601.008 7.719 6.26-1.333 1.934 9.076-8.138 1.734.067 8.296-11.267 2.401-.067-8.297-7.511 1.601.017 8.372-11.267 2.401-.017-8.373-4.82 1.027-1.934-9.076 6.698-1.427-.072-7.706-5.383 1.147-1.933-9.077 7.26-1.547-.038-9.087 11.267-2.401.039 9.088 7.574-1.614-.052-9.15 11.267-2.401.052 9.15 5.633-1.2 1.934 9.076Zm-18.77 11.721-.01-7.72-7.573 1.614.071 7.706 7.511-1.6Zm44.719-35.833c14.397-3.068 23.805 5.463 26.059 16.041 2.254 10.579-.733 22.667-15.818 25.881l-6.698 1.427.013.062-16.9 3.601-9.002-42.251 22.346-4.761Zm10.532 30.081-4.188-19.655-9.39 2.001 4.188 19.655 9.39-2.001Zm52.03.759-6.774-9.681-6.649 1.351 2.28 10.704-16.9 3.601-9.002-42.252 26.54-5.655c8.889-1.894 17.281 3.713 19.135 12.413 1.12 5.258-.46 10.437-3.727 14.143l3.568-.76 8.742 12.468-17.213 3.668Zm-17.744-28.611 1.92 9.014 8.45-1.801-1.92-9.013-8.45 1.8Zm30.946-18.372 16.9-3.601 9.003 42.252-16.9 3.601-9.003-42.252Zm58.847-12.538 11.893-2.534-3.83 44.986-24.287 5.175-21.333-39.625 18.778-4.001 14.897 27.843 1.69-.36 2.192-31.484Zm56.37.423-20.656 4.401.8 3.756 18.215-3.881 2.401 11.267-18.215 3.881.733 3.442 20.656-4.401 2.534 11.893-37.557 8.002-9.002-42.251 37.557-8.002 2.534 11.893ZM119.449 624.871l-7.511 1.601.009 7.719 6.259-1.333 1.934 9.076-8.138 1.734.067 8.296-11.267 2.401-.067-8.297-7.511 1.601.017 8.372-11.267 2.401-.017-8.373-4.82 1.027-1.934-9.076 6.698-1.427-.072-7.706-5.383 1.147-1.933-9.077 7.26-1.547-.038-9.087 11.267-2.401.039 9.088 7.574-1.614-.052-9.15 11.267-2.401.052 9.15 5.633-1.2 1.934 9.076Zm-18.77 11.721-.008-7.72-7.574 1.614.071 7.706 7.511-1.6Zm44.72-35.833c14.397-3.068 23.805 5.463 26.059 16.041 2.254 10.579-.733 22.667-15.818 25.881l-6.698 1.427.013.062-16.9 3.601-9.002-42.251 22.346-4.761Zm10.532 30.081-4.188-19.655-9.389 2.001 4.188 19.655 9.389-2.001Zm52.03.759-6.775-9.681-6.648 1.351 2.281 10.704-16.901 3.601-9.002-42.252 26.54-5.655c8.889-1.894 17.281 3.713 19.135 12.413 1.12 5.258-.459 10.437-3.727 14.143l3.568-.76 8.742 12.468-17.213 3.668Zm-17.744-28.611 1.92 9.014 8.451-1.801-1.921-9.013-8.45 1.8Zm30.946-18.372 16.901-3.601 9.002 42.252-16.901 3.601-9.002-42.252Zm58.847-12.538 11.893-2.534-3.83 44.986-24.287 5.175-21.333-39.625 18.778-4.001 14.897 27.843 1.69-.36 2.192-31.484Zm56.37.423-20.656 4.401.8 3.756 18.215-3.881 2.401 11.267-18.215 3.881.733 3.442 20.656-4.401 2.534 11.893-37.557 8.002-9.002-42.251 37.557-8.002 2.534 11.893ZM258.449 649.871l-7.511 1.601.009 7.719 6.259-1.333 1.934 9.076-8.138 1.734.067 8.296-11.267 2.401-.067-8.297-7.511 1.601.017 8.372-11.267 2.401-.017-8.373-4.82 1.027-1.934-9.076 6.698-1.427-.072-7.706-5.383 1.147-1.933-9.077 7.261-1.547-.039-9.087 11.267-2.401.039 9.088 7.574-1.614-.052-9.15 11.267-2.401.052 9.15 5.633-1.2 1.934 9.076Zm-18.77 11.721-.008-7.72-7.574 1.614.071 7.706 7.511-1.6Zm44.72-35.833c14.397-3.068 23.805 5.463 26.059 16.041 2.254 10.579-.733 22.667-15.818 25.881l-6.698 1.427.013.062-16.9 3.601-9.002-42.251 22.346-4.761Zm10.532 30.081-4.188-19.655-9.389 2.001 4.188 19.655 9.389-2.001Zm52.03.759-6.775-9.681-6.648 1.351 2.281 10.704-16.901 3.601-9.002-42.252 26.54-5.655c8.889-1.894 17.281 3.713 19.135 12.413 1.12 5.258-.459 10.437-3.727 14.143l3.568-.76 8.742 12.468-17.213 3.668Zm-17.744-28.611 1.92 9.014 8.451-1.801-1.921-9.013-8.45 1.8Zm30.946-18.372 16.901-3.601 9.002 42.252-16.901 3.601-9.002-42.252Zm58.847-12.538 11.893-2.534-3.83 44.986-24.287 5.175-21.333-39.625 18.778-4.001 14.897 27.843 1.69-.36 2.192-31.484Zm56.37.423-20.656 4.401.8 3.756 18.215-3.881 2.401 11.267-18.215 3.881.733 3.442 20.656-4.401 2.534 11.893-37.557 8.002-9.002-42.251 37.557-8.002 2.534 11.893ZM-44.55 460.871l-7.512 1.601.008 7.719 6.26-1.333 1.934 9.076-8.138 1.734.067 8.296-11.267 2.401-.067-8.297-7.511 1.601.017 8.372-11.267 2.401-.017-8.373-4.82 1.027-1.934-9.076 6.698-1.427-.072-7.706-5.383 1.147-1.933-9.077 7.26-1.547-.038-9.087 11.267-2.401.039 9.088 7.574-1.614-.052-9.15 11.267-2.401.052 9.15 5.633-1.2 1.934 9.076Zm-18.77 11.721-.01-7.72-7.573 1.614.071 7.706 7.511-1.6Zm44.719-35.833c14.397-3.068 23.805 5.463 26.059 16.041 2.254 10.579-.733 22.667-15.818 25.881l-6.698 1.427.013.062-16.9 3.601-9.002-42.251 22.346-4.761Zm10.532 30.081-4.188-19.655-9.39 2.001 4.188 19.655 9.39-2.001Zm52.03.759-6.774-9.681-6.649 1.351 2.28 10.704-16.9 3.601-9.002-42.252 26.54-5.655c8.889-1.894 17.281 3.713 19.135 12.413 1.12 5.258-.46 10.437-3.727 14.143l3.568-.76 8.742 12.468-17.213 3.668Zm-17.744-28.611 1.92 9.014 8.45-1.801-1.92-9.013-8.45 1.8Zm30.946-18.372 16.9-3.601 9.003 42.252-16.9 3.601-9.003-42.252Zm58.847-12.538 11.893-2.534-3.83 44.986-24.287 5.175-21.333-39.625 18.778-4.001 14.897 27.843 1.69-.36 2.192-31.484Zm56.37.423-20.656 4.401.8 3.756 18.215-3.881 2.401 11.267-18.215 3.881.733 3.442 20.656-4.401 2.534 11.893-37.557 8.002-9.002-42.251 37.557-8.002 2.534 11.893ZM119.449 479.871l-7.511 1.601.009 7.719 6.259-1.333 1.934 9.076-8.138 1.734.067 8.296-11.267 2.401-.067-8.297-7.511 1.601.017 8.372-11.267 2.401-.017-8.373-4.82 1.027-1.934-9.076 6.698-1.427-.072-7.706-5.383 1.147-1.933-9.077 7.26-1.547-.038-9.087 11.267-2.401.039 9.088 7.574-1.614-.052-9.15 11.267-2.401.052 9.15 5.633-1.2 1.934 9.076Zm-18.77 11.721-.008-7.72-7.574 1.614.071 7.706 7.511-1.6Zm44.72-35.833c14.397-3.068 23.805 5.463 26.059 16.041 2.254 10.579-.733 22.667-15.818 25.881l-6.698 1.427.013.062-16.9 3.601-9.002-42.251 22.346-4.761Zm10.532 30.081-4.188-19.655-9.389 2.001 4.188 19.655 9.389-2.001Zm52.03.759-6.775-9.681-6.648 1.351 2.281 10.704-16.901 3.601-9.002-42.252 26.54-5.655c8.889-1.894 17.281 3.713 19.135 12.413 1.12 5.258-.459 10.437-3.727 14.143l3.568-.76 8.742 12.468-17.213 3.668Zm-17.744-28.611 1.92 9.014 8.451-1.801-1.921-9.013-8.45 1.8Zm30.946-18.372 16.901-3.601 9.002 42.252-16.901 3.601-9.002-42.252Zm58.847-12.538 11.893-2.534-3.83 44.986-24.287 5.175-21.333-39.625 18.778-4.001 14.897 27.843 1.69-.36 2.192-31.484Zm56.37.423-20.656 4.401.8 3.756 18.215-3.881 2.401 11.267-18.215 3.881.733 3.442 20.656-4.401 2.534 11.893-37.557 8.002-9.002-42.251 37.557-8.002 2.534 11.893ZM258.449 504.871l-7.511 1.601.009 7.719 6.259-1.333 1.934 9.076-8.138 1.734.067 8.296-11.267 2.401-.067-8.297-7.511 1.601.017 8.372-11.267 2.401-.017-8.373-4.82 1.027-1.934-9.076 6.698-1.427-.072-7.706-5.383 1.147-1.933-9.077 7.261-1.547-.039-9.087 11.267-2.401.039 9.088 7.574-1.614-.052-9.15 11.267-2.401.052 9.15 5.633-1.2 1.934 9.076Zm-18.77 11.721-.008-7.72-7.574 1.614.071 7.706 7.511-1.6Zm44.72-35.833c14.397-3.068 23.805 5.463 26.059 16.041 2.254 10.579-.733 22.667-15.818 25.881l-6.698 1.427.013.062-16.9 3.601-9.002-42.251 22.346-4.761Zm10.532 30.081-4.188-19.655-9.389 2.001 4.188 19.655 9.389-2.001Zm52.03.759-6.775-9.681-6.648 1.351 2.281 10.704-16.901 3.601-9.002-42.252 26.54-5.655c8.889-1.894 17.281 3.713 19.135 12.413 1.12 5.258-.459 10.437-3.727 14.143l3.568-.76 8.742 12.468-17.213 3.668Zm-17.744-28.611 1.92 9.014 8.451-1.801-1.921-9.013-8.45 1.8Zm30.946-18.372 16.901-3.601 9.002 42.252-16.901 3.601-9.002-42.252Zm58.847-12.538 11.893-2.534-3.83 44.986-24.287 5.175-21.333-39.625 18.778-4.001 14.897 27.843 1.69-.36 2.192-31.484Zm56.37.423-20.656 4.401.8 3.756 18.215-3.881 2.401 11.267-18.215 3.881.733 3.442 20.656-4.401 2.534 11.893-37.557 8.002-9.002-42.251 37.557-8.002 2.534 11.893ZM-44.55 896.871l-7.512 1.601.008 7.719 6.26-1.333 1.934 9.076-8.138 1.734.067 8.296-11.267 2.401-.067-8.297-7.511 1.601.017 8.372-11.267 2.401-.017-8.373-4.82 1.027-1.934-9.076 6.698-1.427-.072-7.706-5.383 1.147-1.933-9.077 7.26-1.547-.038-9.087 11.267-2.401.039 9.088 7.574-1.614-.052-9.15 11.267-2.401.052 9.15 5.633-1.2 1.934 9.076Zm-18.77 11.721-.01-7.72-7.573 1.614.071 7.706 7.511-1.6Zm44.719-35.834c14.397-3.067 23.805 5.464 26.059 16.042 2.254 10.579-.733 22.667-15.818 25.881l-6.698 1.427.013.062-16.9 3.601-9.002-42.251 22.346-4.762Zm10.532 30.082-4.188-19.655-9.39 2.001 4.188 19.655 9.39-2.001Zm52.03.759-6.774-9.681-6.649 1.351 2.28 10.704-16.9 3.6-9.002-42.251 26.54-5.655c8.889-1.894 17.281 3.713 19.135 12.413 1.12 5.258-.46 10.437-3.727 14.143l3.568-.76 8.742 12.468-17.213 3.668Zm-17.744-28.611 1.92 9.014 8.45-1.801-1.92-9.013-8.45 1.8Zm30.946-18.372 16.9-3.601 9.003 42.252-16.9 3.601-9.003-42.252Zm58.847-12.538 11.893-2.534-3.83 44.986-24.287 5.174-21.333-39.624 18.778-4.001 14.897 27.843 1.69-.36 2.192-31.484Zm56.37.423-20.656 4.401.8 3.756 18.215-3.881 2.401 11.267-18.215 3.881.733 3.442 20.656-4.401 2.534 11.893-37.557 8.002-9.002-42.251 37.557-8.002 2.534 11.893ZM119.449 915.871l-7.511 1.601.009 7.719 6.259-1.333 1.934 9.076-8.138 1.734.067 8.296-11.267 2.401-.067-8.297-7.511 1.601.017 8.372-11.267 2.401-.017-8.373-4.82 1.027-1.934-9.076 6.698-1.427-.072-7.706-5.383 1.147-1.933-9.077 7.26-1.547-.038-9.087 11.267-2.401.039 9.088 7.574-1.614-.052-9.15 11.267-2.401.052 9.15 5.633-1.2 1.934 9.076Zm-18.77 11.721-.008-7.72-7.574 1.614.071 7.706 7.511-1.6Zm44.72-35.834c14.397-3.067 23.805 5.464 26.059 16.042 2.254 10.579-.733 22.667-15.818 25.881l-6.698 1.427.013.062-16.9 3.601-9.002-42.251 22.346-4.762Zm10.532 30.082-4.188-19.655-9.389 2.001 4.188 19.655 9.389-2.001Zm52.03.759-6.775-9.681-6.648 1.351 2.281 10.704-16.901 3.6-9.002-42.251 26.54-5.655c8.889-1.894 17.281 3.713 19.135 12.413 1.12 5.258-.459 10.437-3.727 14.143l3.568-.76 8.742 12.468-17.213 3.668Zm-17.744-28.611 1.92 9.014 8.451-1.801-1.921-9.013-8.45 1.8Zm30.946-18.372 16.901-3.601 9.002 42.252-16.901 3.601-9.002-42.252Zm58.847-12.538 11.893-2.534-3.83 44.986-24.287 5.174-21.333-39.624 18.778-4.001 14.897 27.843 1.69-.36 2.192-31.484Zm56.37.423-20.656 4.401.8 3.756 18.215-3.881 2.401 11.267-18.215 3.881.733 3.442 20.656-4.401 2.534 11.893-37.557 8.002-9.002-42.251 37.557-8.002 2.534 11.893ZM258.449 940.871l-7.511 1.601.009 7.719 6.259-1.333 1.934 9.076-8.138 1.734.067 8.296-11.267 2.401-.067-8.297-7.511 1.601.017 8.372-11.267 2.401-.017-8.373-4.82 1.027-1.934-9.076 6.698-1.427-.072-7.706-5.383 1.147-1.933-9.077 7.261-1.547-.039-9.087 11.267-2.401.039 9.088 7.574-1.614-.052-9.15 11.267-2.401.052 9.15 5.633-1.2 1.934 9.076Zm-18.77 11.721-.008-7.72-7.574 1.614.071 7.706 7.511-1.6Zm44.72-35.834c14.397-3.067 23.805 5.464 26.059 16.042 2.254 10.579-.733 22.667-15.818 25.881l-6.698 1.427.013.062-16.9 3.601-9.002-42.251 22.346-4.762Zm10.532 30.082-4.188-19.655-9.389 2.001 4.188 19.655 9.389-2.001Zm52.03.759-6.775-9.681-6.648 1.351 2.281 10.704-16.901 3.6-9.002-42.251 26.54-5.655c8.889-1.894 17.281 3.713 19.135 12.413 1.12 5.258-.459 10.437-3.727 14.143l3.568-.76 8.742 12.468-17.213 3.668Zm-17.744-28.611 1.92 9.014 8.451-1.801-1.921-9.013-8.45 1.8Zm30.946-18.372 16.901-3.601 9.002 42.252-16.901 3.601-9.002-42.252Zm58.847-12.538 11.893-2.534-3.83 44.986-24.287 5.174-21.333-39.624 18.778-4.001 14.897 27.843 1.69-.36 2.192-31.484Zm56.37.423-20.656 4.401.8 3.756 18.215-3.881 2.401 11.267-18.215 3.881.733 3.442 20.656-4.401 2.534 11.893-37.557 8.002-9.002-42.251 37.557-8.002 2.534 11.893ZM-44.55 751.871l-7.512 1.601.008 7.719 6.26-1.333 1.934 9.076-8.138 1.734.067 8.296-11.267 2.401-.067-8.297-7.511 1.601.017 8.372-11.267 2.401-.017-8.373-4.82 1.027-1.934-9.076 6.698-1.427-.072-7.706-5.383 1.147-1.933-9.077 7.26-1.547-.038-9.087 11.267-2.401.039 9.088 7.574-1.614-.052-9.15 11.267-2.401.052 9.15 5.633-1.2 1.934 9.076Zm-18.77 11.721-.01-7.72-7.573 1.614.071 7.706 7.511-1.6Zm44.719-35.833c14.397-3.068 23.805 5.463 26.059 16.041 2.254 10.579-.733 22.667-15.818 25.881l-6.698 1.427.013.062-16.9 3.601-9.002-42.251 22.346-4.761Zm10.532 30.081-4.188-19.655-9.39 2.001 4.188 19.655 9.39-2.001Zm52.03.759-6.774-9.681-6.649 1.351 2.28 10.704-16.9 3.601-9.002-42.252 26.54-5.655c8.889-1.894 17.281 3.713 19.135 12.413 1.12 5.258-.46 10.437-3.727 14.143l3.568-.76 8.742 12.468-17.213 3.668Zm-17.744-28.611 1.92 9.014 8.45-1.801-1.92-9.013-8.45 1.8Zm30.946-18.372 16.9-3.601 9.003 42.252-16.9 3.601-9.003-42.252Zm58.847-12.538 11.893-2.534-3.83 44.986-24.287 5.175-21.333-39.625 18.778-4.001 14.897 27.843 1.69-.36 2.192-31.484Zm56.37.423-20.656 4.401.8 3.756 18.215-3.881 2.401 11.267-18.215 3.881.733 3.442 20.656-4.401 2.534 11.893-37.557 8.002-9.002-42.251 37.557-8.002 2.534 11.893ZM119.449 770.871l-7.511 1.601.009 7.719 6.259-1.333 1.934 9.076-8.138 1.734.067 8.296-11.267 2.401-.067-8.297-7.511 1.601.017 8.372-11.267 2.401-.017-8.373-4.82 1.027-1.934-9.076 6.698-1.427-.072-7.706-5.383 1.147-1.933-9.077 7.26-1.547-.038-9.087 11.267-2.401.039 9.088 7.574-1.614-.052-9.15 11.267-2.401.052 9.15 5.633-1.2 1.934 9.076Zm-18.77 11.721-.008-7.72-7.574 1.614.071 7.706 7.511-1.6Zm44.72-35.833c14.397-3.068 23.805 5.463 26.059 16.041 2.254 10.579-.733 22.667-15.818 25.881l-6.698 1.427.013.062-16.9 3.601-9.002-42.251 22.346-4.761Zm10.532 30.081-4.188-19.655-9.389 2.001 4.188 19.655 9.389-2.001Zm52.03.759-6.775-9.681-6.648 1.351 2.281 10.704-16.901 3.601-9.002-42.252 26.54-5.655c8.889-1.894 17.281 3.713 19.135 12.413 1.12 5.258-.459 10.437-3.727 14.143l3.568-.76 8.742 12.468-17.213 3.668Zm-17.744-28.611 1.92 9.014 8.451-1.801-1.921-9.013-8.45 1.8Zm30.946-18.372 16.901-3.601 9.002 42.252-16.901 3.601-9.002-42.252Zm58.847-12.538 11.893-2.534-3.83 44.986-24.287 5.175-21.333-39.625 18.778-4.001 14.897 27.843 1.69-.36 2.192-31.484Zm56.37.423-20.656 4.401.8 3.756 18.215-3.881 2.401 11.267-18.215 3.881.733 3.442 20.656-4.401 2.534 11.893-37.557 8.002-9.002-42.251 37.557-8.002 2.534 11.893ZM258.449 795.871l-7.511 1.601.009 7.719 6.259-1.333 1.934 9.076-8.138 1.734.067 8.296-11.267 2.401-.067-8.297-7.511 1.601.017 8.372-11.267 2.401-.017-8.373-4.82 1.027-1.934-9.076 6.698-1.427-.072-7.706-5.383 1.147-1.933-9.077 7.261-1.547-.039-9.087 11.267-2.401.039 9.088 7.574-1.614-.052-9.15 11.267-2.401.052 9.15 5.633-1.2 1.934 9.076Zm-18.77 11.721-.008-7.72-7.574 1.614.071 7.706 7.511-1.6Zm44.72-35.833c14.397-3.068 23.805 5.463 26.059 16.041 2.254 10.579-.733 22.667-15.818 25.881l-6.698 1.427.013.062-16.9 3.601-9.002-42.251 22.346-4.761Zm10.532 30.081-4.188-19.655-9.389 2.001 4.188 19.655 9.389-2.001Zm52.03.759-6.775-9.681-6.648 1.351 2.281 10.704-16.901 3.601-9.002-42.252 26.54-5.655c8.889-1.894 17.281 3.713 19.135 12.413 1.12 5.258-.459 10.437-3.727 14.143l3.568-.76 8.742 12.468-17.213 3.668Zm-17.744-28.611 1.92 9.014 8.451-1.801-1.921-9.013-8.45 1.8Zm30.946-18.372 16.901-3.601 9.002 42.252-16.901 3.601-9.002-42.252Zm58.847-12.538 11.893-2.534-3.83 44.986-24.287 5.175-21.333-39.625 18.778-4.001 14.897 27.843 1.69-.36 2.192-31.484Zm56.37.423-20.656 4.401.8 3.756 18.215-3.881 2.401 11.267-18.215 3.881.733 3.442 20.656-4.401 2.534 11.893-37.557 8.002-9.002-42.251 37.557-8.002 2.534 11.893ZM-44.55-1.129l-7.512 1.6.008 7.72 6.26-1.333 1.934 9.076-8.138 1.734.067 8.296-11.267 2.4-.067-8.296-7.511 1.6.017 8.373-11.267 2.4-.017-8.372-4.82 1.027-1.934-9.076 6.698-1.427-.072-7.706-5.383 1.147-1.933-9.077 7.26-1.547-.038-9.087 11.267-2.4.039 9.087 7.574-1.614-.052-9.15 11.267-2.4.052 9.15 5.633-1.2 1.934 9.075Zm-18.77 11.721-.01-7.72-7.573 1.614.071 7.706 7.511-1.6Zm44.719-35.834C-4.204-28.309 5.204-19.778 7.458-9.2 9.712 1.38 6.725 13.467-8.36 16.68l-6.698 1.428.013.062-16.9 3.601-9.002-42.251 22.346-4.761ZM-8.069 4.84l-4.188-19.655-9.39 2 4.188 19.656 9.39-2Zm52.03.759-6.774-9.681-6.649 1.35 2.28 10.705-16.9 3.6-9.002-42.251 26.54-5.655c8.889-1.894 17.281 3.713 19.135 12.413 1.12 5.258-.46 10.437-3.727 14.143l3.568-.76 8.742 12.468L43.961 5.6Zm-17.744-28.61 1.92 9.013 8.45-1.8-1.92-9.014-8.45 1.8Zm30.946-18.373 16.9-3.6 9.003 42.25-16.9 3.602-9.003-42.252Zm58.847-12.538 11.893-2.534-3.83 44.986-24.287 5.175L78.453-45.92l18.778-4 14.897 27.842 1.69-.36 2.192-31.484Zm56.37.423-20.656 4.4.8 3.757 18.215-3.881 2.401 11.267-18.215 3.88.733 3.443 20.656-4.4 2.534 11.892-37.557 8.002-9.002-42.251 37.557-8.002L172.38-53.5ZM119.449 17.871l-7.511 1.6.009 7.72 6.259-1.333 1.934 9.076-8.138 1.734.067 8.296-11.267 2.4-.067-8.296-7.511 1.6.017 8.373-11.267 2.4-.017-8.372-4.82 1.027-1.934-9.076 6.698-1.427-.072-7.706-5.383 1.147-1.933-9.077 7.26-1.547-.038-9.087 11.267-2.4.039 9.087 7.574-1.614-.052-9.15 11.267-2.4.052 9.15 5.633-1.2 1.934 9.075Zm-18.77 11.721-.008-7.72-7.574 1.614.071 7.706 7.511-1.6Zm44.72-35.834C159.796-9.309 169.204-.778 171.458 9.8c2.254 10.579-.733 22.667-15.818 25.88l-6.698 1.428.013.062-16.9 3.601-9.002-42.251 22.346-4.761Zm10.532 30.082-4.188-19.655-9.389 2 4.188 19.656 9.389-2Zm52.03.759-6.775-9.681-6.648 1.35 2.281 10.705-16.901 3.6-9.002-42.251 26.54-5.655c8.889-1.894 17.281 3.713 19.135 12.413 1.12 5.258-.459 10.437-3.727 14.143l3.568-.76 8.742 12.468-17.213 3.668Zm-17.744-28.61 1.92 9.013 8.451-1.8-1.921-9.014-8.45 1.8Zm30.946-18.373 16.901-3.6 9.002 42.25-16.901 3.602-9.002-42.252Zm58.847-12.538 11.893-2.534-3.83 44.986-24.287 5.174-21.333-39.624 18.778-4 14.897 27.842 1.69-.36 2.192-31.484Zm56.37.423-20.656 4.4.8 3.757 18.215-3.881 2.401 11.267-18.215 3.88.733 3.443 20.656-4.4 2.534 11.892-37.557 8.002-9.002-42.251 37.557-8.002L336.38-34.5ZM258.449 42.871l-7.511 1.6.009 7.72 6.259-1.333 1.934 9.076-8.138 1.734.067 8.296-11.267 2.4-.067-8.296-7.511 1.6.017 8.373-11.267 2.4-.017-8.372-4.82 1.027-1.934-9.076 6.698-1.427-.072-7.706-5.383 1.147-1.933-9.077 7.261-1.547-.039-9.087 11.267-2.4.039 9.087 7.574-1.614-.052-9.15 11.267-2.4.052 9.15 5.633-1.2 1.934 9.075Zm-18.77 11.721-.008-7.72-7.574 1.614.071 7.706 7.511-1.6Zm44.72-35.834c14.397-3.067 23.805 5.464 26.059 16.042 2.254 10.579-.733 22.667-15.818 25.88l-6.698 1.428.013.062-16.9 3.601-9.002-42.251 22.346-4.761Zm10.532 30.082-4.188-19.655-9.389 2 4.188 19.656 9.389-2Zm52.03.759-6.775-9.681-6.648 1.35 2.281 10.705-16.901 3.6-9.002-42.251 26.54-5.655c8.889-1.894 17.281 3.713 19.135 12.413 1.12 5.258-.459 10.437-3.727 14.143l3.568-.76 8.742 12.468-17.213 3.668Zm-17.744-28.61 1.92 9.013 8.451-1.8-1.921-9.014-8.45 1.8Zm30.946-18.373 16.901-3.6 9.002 42.25-16.901 3.602-9.002-42.252ZM419.01-9.922l11.893-2.534-3.83 44.986-24.287 5.175L381.453-1.92l18.778-4 14.897 27.842 1.69-.36 2.192-31.484Zm56.37.423-20.656 4.4.8 3.757 18.215-3.881 2.401 11.267-18.215 3.88.733 3.443 20.656-4.4 2.534 11.892-37.557 8.002-9.002-42.251 37.557-8.002L475.38-9.5ZM-44.55 315.871l-7.512 1.601.008 7.719 6.26-1.333 1.934 9.076-8.138 1.734.067 8.296-11.267 2.401-.067-8.297-7.511 1.601.017 8.372-11.267 2.401-.017-8.373-4.82 1.027-1.934-9.076 6.698-1.427-.072-7.706-5.383 1.147-1.933-9.077 7.26-1.547-.038-9.087 11.267-2.401.039 9.088 7.574-1.614-.052-9.15 11.267-2.401.052 9.15 5.633-1.2 1.934 9.076Zm-18.77 11.721-.01-7.72-7.573 1.614.071 7.706 7.511-1.6Zm44.719-35.833c14.397-3.068 23.805 5.463 26.059 16.041 2.254 10.579-.733 22.667-15.818 25.881l-6.698 1.427.013.062-16.9 3.601-9.002-42.251 22.346-4.761Zm10.532 30.081-4.188-19.655-9.39 2.001 4.188 19.655 9.39-2.001Zm52.03.759-6.774-9.681-6.649 1.351 2.28 10.704-16.9 3.601-9.002-42.252 26.54-5.655c8.889-1.894 17.281 3.713 19.135 12.413 1.12 5.258-.46 10.437-3.727 14.143l3.568-.76 8.742 12.468-17.213 3.668Zm-17.744-28.611 1.92 9.014 8.45-1.801-1.92-9.013-8.45 1.8Zm30.946-18.372 16.9-3.601 9.003 42.252-16.9 3.601-9.003-42.252Zm58.847-12.538 11.893-2.534-3.83 44.986-24.287 5.175-21.333-39.625 18.778-4.001 14.897 27.843 1.69-.36 2.192-31.484Zm56.37.423-20.656 4.401.8 3.756 18.215-3.881 2.401 11.267-18.215 3.881.733 3.442 20.656-4.401 2.534 11.893-37.557 8.002-9.002-42.251 37.557-8.002 2.534 11.893ZM119.449 334.871l-7.511 1.601.009 7.719 6.259-1.333 1.934 9.076-8.138 1.734.067 8.296-11.267 2.401-.067-8.297-7.511 1.601.017 8.372-11.267 2.401-.017-8.373-4.82 1.027-1.934-9.076 6.698-1.427-.072-7.706-5.383 1.147-1.933-9.077 7.26-1.547-.038-9.087 11.267-2.401.039 9.088 7.574-1.614-.052-9.15 11.267-2.401.052 9.15 5.633-1.2 1.934 9.076Zm-18.77 11.721-.008-7.72-7.574 1.614.071 7.706 7.511-1.6Zm44.72-35.833c14.397-3.068 23.805 5.463 26.059 16.041 2.254 10.579-.733 22.667-15.818 25.881l-6.698 1.427.013.062-16.9 3.601-9.002-42.251 22.346-4.761Zm10.532 30.081-4.188-19.655-9.389 2.001 4.188 19.655 9.389-2.001Zm52.03.759-6.775-9.681-6.648 1.351 2.281 10.704-16.901 3.601-9.002-42.252 26.54-5.655c8.889-1.894 17.281 3.713 19.135 12.413 1.12 5.258-.459 10.437-3.727 14.143l3.568-.76 8.742 12.468-17.213 3.668Zm-17.744-28.611 1.92 9.014 8.451-1.801-1.921-9.013-8.45 1.8Zm30.946-18.372 16.901-3.601 9.002 42.252-16.901 3.601-9.002-42.252Zm58.847-12.538 11.893-2.534-3.83 44.986-24.287 5.175-21.333-39.625 18.778-4.001 14.897 27.843 1.69-.36 2.192-31.484Zm56.37.423-20.656 4.401.8 3.756 18.215-3.881 2.401 11.267-18.215 3.881.733 3.442 20.656-4.401 2.534 11.893-37.557 8.002-9.002-42.251 37.557-8.002 2.534 11.893ZM258.449 359.871l-7.511 1.601.009 7.719 6.259-1.333 1.934 9.076-8.138 1.734.067 8.296-11.267 2.401-.067-8.297-7.511 1.601.017 8.372-11.267 2.401-.017-8.373-4.82 1.027-1.934-9.076 6.698-1.427-.072-7.706-5.383 1.147-1.933-9.077 7.261-1.547-.039-9.087 11.267-2.401.039 9.088 7.574-1.614-.052-9.15 11.267-2.401.052 9.15 5.633-1.2 1.934 9.076Zm-18.77 11.721-.008-7.72-7.574 1.614.071 7.706 7.511-1.6Zm44.72-35.833c14.397-3.068 23.805 5.463 26.059 16.041 2.254 10.579-.733 22.667-15.818 25.881l-6.698 1.427.013.062-16.9 3.601-9.002-42.251 22.346-4.761Zm10.532 30.081-4.188-19.655-9.389 2.001 4.188 19.655 9.389-2.001Zm52.03.759-6.775-9.681-6.648 1.351 2.281 10.704-16.901 3.601-9.002-42.252 26.54-5.655c8.889-1.894 17.281 3.713 19.135 12.413 1.12 5.258-.459 10.437-3.727 14.143l3.568-.76 8.742 12.468-17.213 3.668Zm-17.744-28.611 1.92 9.014 8.451-1.801-1.921-9.013-8.45 1.8Zm30.946-18.372 16.901-3.601 9.002 42.252-16.901 3.601-9.002-42.252Zm58.847-12.538 11.893-2.534-3.83 44.986-24.287 5.175-21.333-39.625 18.778-4.001 14.897 27.843 1.69-.36 2.192-31.484Zm56.37.423-20.656 4.401.8 3.756 18.215-3.881 2.401 11.267-18.215 3.881.733 3.442 20.656-4.401 2.534 11.893-37.557 8.002-9.002-42.251 37.557-8.002 2.534 11.893ZM-44.55 170.871l-7.512 1.601.008 7.719 6.26-1.333 1.934 9.076-8.138 1.734.067 8.296-11.267 2.401-.067-8.297-7.511 1.601.017 8.372-11.267 2.401-.017-8.373-4.82 1.027-1.934-9.076 6.698-1.427-.072-7.706-5.383 1.147-1.933-9.077 7.26-1.547-.038-9.087 11.267-2.401.039 9.088 7.574-1.614-.052-9.15 11.267-2.401.052 9.15 5.633-1.2 1.934 9.076Zm-18.77 11.721-.01-7.72-7.573 1.614.071 7.706 7.511-1.6Zm44.719-35.833c14.397-3.068 23.805 5.463 26.059 16.041 2.254 10.579-.733 22.667-15.818 25.881l-6.698 1.427.013.062-16.9 3.601-9.002-42.251 22.346-4.761Zm10.532 30.081-4.188-19.655-9.39 2.001 4.188 19.655 9.39-2.001Zm52.03.759-6.774-9.681-6.649 1.351 2.28 10.704-16.9 3.601-9.002-42.252 26.54-5.655c8.889-1.894 17.281 3.713 19.135 12.413 1.12 5.258-.46 10.437-3.727 14.143l3.568-.76 8.742 12.468-17.213 3.668Zm-17.744-28.611 1.92 9.014 8.45-1.801-1.92-9.013-8.45 1.8Zm30.946-18.372 16.9-3.601 9.003 42.252-16.9 3.601-9.003-42.252Zm58.847-12.538 11.893-2.534-3.83 44.986-24.287 5.175-21.333-39.625 18.778-4.001 14.897 27.843 1.69-.36 2.192-31.484Zm56.37.423-20.656 4.401.8 3.756 18.215-3.881 2.401 11.267-18.215 3.881.733 3.442 20.656-4.401 2.534 11.893-37.557 8.002-9.002-42.251 37.557-8.002 2.534 11.893ZM119.449 189.871l-7.511 1.601.009 7.719 6.259-1.333 1.934 9.076-8.138 1.734.067 8.296-11.267 2.401-.067-8.297-7.511 1.601.017 8.372-11.267 2.401-.017-8.373-4.82 1.027-1.934-9.076 6.698-1.427-.072-7.706-5.383 1.147-1.933-9.077 7.26-1.547-.038-9.087 11.267-2.401.039 9.088 7.574-1.614-.052-9.15 11.267-2.401.052 9.15 5.633-1.2 1.934 9.076Zm-18.77 11.721-.008-7.72-7.574 1.614.071 7.706 7.511-1.6Zm44.72-35.833c14.397-3.068 23.805 5.463 26.059 16.041 2.254 10.579-.733 22.667-15.818 25.881l-6.698 1.427.013.062-16.9 3.601-9.002-42.251 22.346-4.761Zm10.532 30.081-4.188-19.655-9.389 2.001 4.188 19.655 9.389-2.001Zm52.03.759-6.775-9.681-6.648 1.351 2.281 10.704-16.901 3.601-9.002-42.252 26.54-5.655c8.889-1.894 17.281 3.713 19.135 12.413 1.12 5.258-.459 10.437-3.727 14.143l3.568-.76 8.742 12.468-17.213 3.668Zm-17.744-28.611 1.92 9.014 8.451-1.801-1.921-9.013-8.45 1.8Zm30.946-18.372 16.901-3.601 9.002 42.252-16.901 3.601-9.002-42.252Zm58.847-12.538 11.893-2.534-3.83 44.986-24.287 5.175-21.333-39.625 18.778-4.001 14.897 27.843 1.69-.36 2.192-31.484Zm56.37.423-20.656 4.401.8 3.756 18.215-3.881 2.401 11.267-18.215 3.881.733 3.442 20.656-4.401 2.534 11.893-37.557 8.002-9.002-42.251 37.557-8.002 2.534 11.893ZM258.449 214.871l-7.511 1.601.009 7.719 6.259-1.333 1.934 9.076-8.138 1.734.067 8.296-11.267 2.401-.067-8.297-7.511 1.601.017 8.372-11.267 2.401-.017-8.373-4.82 1.027-1.934-9.076 6.698-1.427-.072-7.706-5.383 1.147-1.933-9.077 7.261-1.547-.039-9.087 11.267-2.401.039 9.088 7.574-1.614-.052-9.15 11.267-2.401.052 9.15 5.633-1.2 1.934 9.076Zm-18.77 11.721-.008-7.72-7.574 1.614.071 7.706 7.511-1.6Zm44.72-35.833c14.397-3.068 23.805 5.463 26.059 16.041 2.254 10.579-.733 22.667-15.818 25.881l-6.698 1.427.013.062-16.9 3.601-9.002-42.251 22.346-4.761Zm10.532 30.081-4.188-19.655-9.389 2.001 4.188 19.655 9.389-2.001Zm52.03.759-6.775-9.681-6.648 1.351 2.281 10.704-16.901 3.601-9.002-42.252 26.54-5.655c8.889-1.894 17.281 3.713 19.135 12.413 1.12 5.258-.459 10.437-3.727 14.143l3.568-.76 8.742 12.468-17.213 3.668Zm-17.744-28.611 1.92 9.014 8.451-1.801-1.921-9.013-8.45 1.8Zm30.946-18.372 16.901-3.601 9.002 42.252-16.901 3.601-9.002-42.252Zm58.847-12.538 11.893-2.534-3.83 44.986-24.287 5.175-21.333-39.625 18.778-4.001 14.897 27.843 1.69-.36 2.192-31.484Zm56.37.423-20.656 4.401.8 3.756 18.215-3.881 2.401 11.267-18.215 3.881.733 3.442 20.656-4.401 2.534 11.893-37.557 8.002-9.002-42.251 37.557-8.002 2.534 11.893Z" fill="#fff" fill-opacity=".1"/><path d="m275.722 524.417-386.077 43.739 20.407-85.239 347.637-83.083 18.033 124.583ZM496.216 346.036l-334.991 12.888-44.252-98.129 361.182-72.782 18.061 158.023Z" fill="#3D0093"/><path d="m240.263 238.328 18.101 168.657-80.769 14.233-61.303-161.044 123.971-21.846Z" fill="#3D0093"/><path d="m281.616 545.063-386.077 43.739 20.407-85.239 347.637-83.082 18.033 124.582ZM502.11 366.682 167.119 379.57l-44.252-98.129 361.182-72.782 18.061 158.023Z" fill="#fff"/><path d="m246.157 258.974 18.101 168.657-80.769 14.233-61.303-161.044 123.971-21.846Z" fill="#fff"/><path d="m143.289 904.641-294.125-166.124 57.844-49.603 287.127 118.818-50.846 96.909ZM389.509 891.516 147.087 729.728l18.896-91.658 291.41 132.979-67.884 120.467Z" fill="#3D0093"/><path d="M264.243 685.136 190.964 813.11l-64.125-31.175 38.981-144.649 98.423 47.85Z" fill="#3D0093"/><path d="m133.946 927.829-293.841-166.664 59.759-53.255 287.89 117.364-53.808 102.555ZM383.128 909.058 140.706 747.27l18.896-91.658 291.41 132.979-67.884 120.467Z" fill="#fff"/><path d="m257.863 702.678-73.28 127.974-64.125-31.175 38.981-144.649 98.424 47.85Z" fill="#fff"/><path d="m-62.885 76.301 163.907-42.636 12.992 43.999-156.458 66.504-20.44-67.867Z" fill="#3D0093"/><path d="m51.197 46.374 80.858-148.813 41.385 20.487-59.426 159.616-62.817-31.29Z" fill="#3D0093"/><path d="M-77.885 67.301 86.023 24.665l12.991 43.999-156.457 66.504-20.44-67.867Z" fill="#fff"/><path d="m36.197 37.374 80.858-148.813 41.385 20.487L99.013 68.664l-62.816-31.29Z" fill="#fff"/><path d="M336.334-42.143 331.648 97.15l-37.753-.038-15.888-138.997 58.327-.258Z" fill="#3D0093"/><path d="m333.271 54.866 98.508 98.594-25.842 27.863-112.042-84.21 39.376-42.247Z" fill="#3D0093"/><path d="M346.943-51.874 342.257 87.42l-37.753-.038-15.888-138.998 58.327-.258Z" fill="#fff"/><path d="m343.88 45.135 98.507 98.595-25.841 27.862-112.042-84.21 39.376-42.247Z" fill="#fff"/><path d="m291.214 721.501 59.219-84.872-22.455-16.783-71.315 75.538 34.551 26.117Z" fill="#3D0093"/><path d="m332.575 662.482 102.434-14.748-2.956-28.063-104.075.175 4.597 42.636Z" fill="#3D0093"/><path d="m293.187 732.006 59.219-84.872-22.454-16.782-71.315 75.537 34.55 26.117Z" fill="#fff"/><path d="m334.549 672.988 102.433-14.749-2.955-28.062-104.075.175 4.597 42.636Z" fill="#fff"/></g><defs><clipPath id="a"><path fill="#fff" d="M0 0h390v977H0z"/></clipPath></defs></svg>