<svg width="1920" height="949" fill="none" xmlns="http://www.w3.org/2000/svg"><g clip-path="url(#a)"><path fill="#4D01BA" d="M0 0h1920v949H0z"/><path d="m1689.5 939.815-5.43 5.431 4.2 6.471 4.53-4.525 6.56 6.562-5.88 5.883 4.57 6.924-8.15 8.146-4.57-6.924-5.43 5.43 4.57 7.015-8.14 8.146-4.57-7.015-3.49 3.485-6.56-6.562 4.84-4.842-4.25-6.427-3.89 3.892-6.57-6.562 5.25-5.249-4.97-7.603 8.14-8.146 4.98 7.603 5.47-5.476-5.02-7.648 8.15-8.146 5.02 7.648 4.07-4.073 6.57 6.562Zm-9.37 20.048-4.21-6.471-5.48 5.475 4.26 6.427 5.43-5.431Zm18.01-54.4c10.41-10.408 22.95-8.372 30.6-.724 7.64 7.648 11.72 19.415.81 30.321l-4.84 4.842.04.045-12.22 12.219-30.54-30.547 16.15-16.156Zm25.21 19.505-14.21-14.21-6.79 6.788 14.21 14.21 6.79-6.788Zm44.06-27.68-10.95-4.435-4.84 4.752 7.74 7.738-12.22 12.219-30.55-30.547 19.19-19.188c6.43-6.426 16.52-6.29 22.81 0 3.8 3.802 5.29 9.006 4.57 13.893l2.58-2.579 14.12 5.702-12.45 12.445Zm-30.45-14.346 6.51 6.517 6.11-6.109-6.52-6.517-6.1 6.109Zm15.96-32.254 12.22-12.219 30.54 30.547-12.21 12.219-30.55-30.547Zm42.54-42.545 8.6-8.599 21.27 39.825-17.56 17.558-39.46-21.631 13.58-13.577 27.65 15.251 1.22-1.222-15.3-27.605Zm47.52-30.325-14.93 14.935 2.72 2.715 13.16-13.169 8.15 8.146-13.17 13.169 2.49 2.489 14.93-14.934 8.6 8.598-27.15 27.153-30.55-30.547 27.16-27.153 8.59 8.598ZM1908.8 720.716l-5.43 5.431 4.21 6.471 4.53-4.525 6.56 6.562-5.88 5.883 4.57 6.924-8.15 8.146-4.57-6.924-5.43 5.43 4.57 7.015-8.15 8.146-4.57-7.015-3.48 3.485-6.56-6.562 4.84-4.842-4.26-6.427-3.89 3.892-6.56-6.562 5.25-5.249-4.98-7.603 8.15-8.146 4.98 7.603 5.47-5.476-5.02-7.648 8.14-8.146 5.03 7.648 4.07-4.073 6.56 6.562Zm-9.36 20.048-4.21-6.471-5.48 5.475 4.25 6.427 5.44-5.431Zm18.01-54.4c10.41-10.408 22.94-8.372 30.59-.724 7.65 7.648 11.72 19.415.82 30.321l-4.85 4.842.05.045-12.22 12.219-30.55-30.547 16.16-16.156Zm25.21 19.505-14.21-14.21-6.79 6.788 14.21 14.21 6.79-6.788Zm44.06-27.68-10.95-4.435-4.84 4.752 7.73 7.738-12.21 12.219-30.55-30.547 19.19-19.188c6.42-6.426 16.51-6.29 22.8 0 3.81 3.802 5.3 9.006 4.58 13.893l2.57-2.579 14.12 5.702-12.44 12.445Zm-30.46-14.346 6.52 6.517 6.11-6.109-6.52-6.517-6.11 6.109Zm15.97-32.254 12.21-12.219 30.55 30.547-12.22 12.219-30.54-30.547Zm42.54-42.545 8.6-8.599 21.27 39.825-17.56 17.558-39.46-21.631 13.57-13.577 27.65 15.251 1.23-1.222-15.3-27.605Zm47.52-30.325-14.93 14.935 2.71 2.715 13.17-13.169 8.15 8.146-13.17 13.169 2.49 2.489 14.93-14.934 8.6 8.598-27.15 27.153-30.55-30.547 27.15-27.153 8.6 8.598ZM1649.13 1118.86l-5.43 5.43 4.21 6.48 4.53-4.53 6.56 6.56-5.89 5.89 4.58 6.92-8.15 8.15-4.57-6.93-5.43 5.43 4.57 7.02-8.15 8.14-4.57-7.01-3.48 3.48-6.56-6.56 4.84-4.84-4.26-6.43-3.89 3.89-6.56-6.56 5.25-5.25-4.98-7.6 8.15-8.15 4.98 7.61 5.47-5.48-5.02-7.65 8.14-8.14 5.03 7.64 4.07-4.07 6.56 6.56Zm-9.37 20.05-4.2-6.47-5.48 5.48 4.25 6.42 5.43-5.43Zm18.02-54.4c10.41-10.41 22.94-8.37 30.59-.72 7.65 7.65 11.72 19.41.82 30.32l-4.85 4.84.05.05-12.22 12.21-30.55-30.54 16.16-16.16Zm25.21 19.51-14.21-14.21-6.79 6.78 14.21 14.21 6.79-6.78Zm44.06-27.68-10.95-4.44-4.85 4.75 7.74 7.74-12.22 12.22-30.54-30.55 19.19-19.18c6.42-6.43 16.51-6.29 22.8 0 3.81 3.8 5.3 9 4.57 13.89l2.58-2.58 14.12 5.7-12.44 12.45Zm-30.46-14.35 6.52 6.52 6.11-6.11-6.52-6.52-6.11 6.11Zm15.96-32.25 12.22-12.22 30.55 30.54-12.22 12.22-30.55-30.54Zm42.55-42.549 8.6-8.598 21.27 39.827-17.56 17.56-39.46-21.64 13.57-13.57 27.65 15.25 1.23-1.22-15.3-27.609Zm47.52-30.324-14.93 14.934 2.71 2.715 13.17-13.169 8.15 8.146-13.17 13.169 2.49 2.489 14.93-14.934 8.6 8.599-27.15 27.154-30.55-30.548 27.15-27.153 8.6 8.598ZM1868.44 899.765l-5.43 5.43 4.21 6.472 4.52-4.526 6.56 6.562-5.88 5.883 4.57 6.924-8.14 8.146-4.57-6.924-5.44 5.431 4.58 7.014-8.15 8.146-4.57-7.015-3.49 3.485-6.56-6.562 4.84-4.842-4.25-6.426-3.89 3.892-6.56-6.562 5.25-5.25-4.98-7.603 8.14-8.146 4.98 7.603 5.48-5.476-5.03-7.648 8.15-8.146 5.02 7.649 4.08-4.073 6.56 6.562Zm-9.37 20.047-4.21-6.471-5.47 5.476 4.25 6.426 5.43-5.431Zm18.02-54.399c10.4-10.409 22.94-8.373 30.59-.724 7.65 7.648 11.72 19.414.81 30.32l-4.84 4.843.05.045-12.22 12.219-30.55-30.547 16.16-16.156Zm25.2 19.504-14.21-14.21-6.79 6.789 14.21 14.21 6.79-6.789Zm44.07-27.68-10.96-4.435-4.84 4.752 7.74 7.739-12.22 12.219-30.55-30.547 19.19-19.189c6.43-6.426 16.52-6.29 22.81 0 3.8 3.802 5.3 9.006 4.57 13.894l2.58-2.58 14.12 5.702-12.44 12.445Zm-30.46-14.345 6.52 6.516 6.1-6.109-6.51-6.517-6.11 6.11Zm15.96-32.255 12.22-12.219 30.55 30.547-12.22 12.219-30.55-30.547Zm42.55-42.545 8.59-8.598 21.27 39.824-17.55 17.559-39.47-21.632 13.58-13.576 27.65 15.25 1.22-1.221-15.29-27.606Zm47.52-30.324-14.94 14.934 2.72 2.715 13.17-13.169 8.14 8.146-13.17 13.169 2.49 2.489 14.94-14.934 8.6 8.598-27.16 27.153-30.54-30.547 27.15-27.153 8.6 8.599ZM2.926 130.058l-5.43 5.431 4.208 6.471 4.526-4.525 6.562 6.562-5.883 5.883 4.57 6.924-8.145 8.146-4.571-6.924-5.43 5.43 4.57 7.015-8.146 8.146-4.57-7.015-3.485 3.485-6.562-6.562 4.842-4.842-4.254-6.426-3.892 3.891-6.562-6.562 5.25-5.249-4.978-7.603 8.146-8.146 4.978 7.603 5.476-5.476-5.024-7.648 8.146-8.146 5.023 7.648 4.073-4.073 6.562 6.562Zm-9.367 20.048-4.21-6.471-5.475 5.476 4.254 6.426 5.43-5.431Zm18.014-54.4c10.41-10.408 22.945-8.372 30.593-.724s11.72 19.415.814 30.321l-4.842 4.842.045.046-12.218 12.218-30.547-30.547 16.155-16.156Zm25.208 19.505-14.21-14.21-6.789 6.788 14.21 14.21 6.789-6.788Zm44.062-27.68L69.89 83.096l-4.842 4.752 7.738 7.739-12.218 12.218-30.547-30.547L49.21 58.07c6.426-6.426 16.518-6.29 22.808 0 3.802 3.802 5.295 9.006 4.57 13.893l2.58-2.579 14.12 5.702-12.445 12.445ZM50.386 73.185l6.517 6.517 6.11-6.11-6.517-6.516-6.11 6.11ZM66.35 40.931l12.219-12.22 30.547 30.548-12.219 12.219L66.35 40.93Zm42.545-42.545 8.598-8.598 21.27 39.824-17.559 17.559-39.462-21.632 13.577-13.577 27.65 15.251 1.222-1.222-15.296-27.605Zm47.521-30.324-14.934 14.934 2.715 2.715 13.17-13.17 8.145 8.147-13.169 13.169 2.489 2.489 14.934-14.934 8.599 8.598-27.153 27.153-30.547-30.547 27.153-27.153 8.598 8.599ZM-37.437 309.107l-5.43 5.43 4.208 6.472 4.525-4.526 6.562 6.562-5.883 5.883 4.57 6.924-8.145 8.146-4.57-6.924-5.431 5.431 4.57 7.014-8.145 8.146-4.571-7.014-3.485 3.484-6.562-6.562 4.843-4.842-4.254-6.426-3.892 3.892-6.562-6.562 5.25-5.25-4.979-7.602 8.146-8.146 4.978 7.602 5.476-5.475-5.023-7.648 8.145-8.146 5.024 7.648 4.073-4.073 6.562 6.562Zm-9.368 20.048-4.209-6.472-5.476 5.476 4.254 6.426 5.43-5.43Zm18.015-54.4c10.409-10.409 22.944-8.372 30.592-.724s11.721 19.414.815 30.32l-4.843 4.843.046.045-12.22 12.219-30.546-30.547 16.156-16.156Zm25.207 19.505-14.21-14.21-6.788 6.788 14.21 14.21 6.788-6.788Zm44.062-27.68-10.951-4.435-4.843 4.751 7.739 7.739-12.219 12.219-30.547-30.547 19.188-19.188c6.426-6.426 16.518-6.291 22.808 0 3.802 3.801 5.295 9.005 4.571 13.893l2.58-2.58 14.12 5.703-12.446 12.445Zm-30.456-14.346 6.516 6.517 6.11-6.11-6.517-6.517-6.11 6.11Zm15.963-32.255 12.218-12.219 30.547 30.547-12.218 12.219-30.547-30.547Zm42.544-42.545 8.599-8.598 21.27 39.824-17.56 17.559-39.462-21.632 13.577-13.576 27.65 15.251 1.222-1.222-15.296-27.606Zm47.522-30.324-14.935 14.934 2.716 2.715 13.169-13.169 8.146 8.146-13.169 13.169 2.489 2.489 14.934-14.934 8.598 8.599-27.153 27.153L80.3 165.665l27.153-27.153 8.599 8.598ZM181.974 89.903l-5.43 5.43 4.208 6.472 4.526-4.525 6.562 6.562-5.883 5.883 4.57 6.924-8.145 8.146-4.571-6.924-5.431 5.43 4.571 7.015-8.146 8.146-4.571-7.015-3.484 3.485-6.562-6.562 4.842-4.842-4.254-6.427-3.892 3.892-6.562-6.562 5.25-5.249-4.978-7.603 8.146-8.146 4.978 7.603 5.476-5.476-5.024-7.648 8.146-8.146 5.023 7.648 4.073-4.073 6.562 6.562Zm-9.367 20.048-4.209-6.471-5.476 5.475 4.254 6.427 5.431-5.431Zm18.015-54.4c10.408-10.408 22.944-8.372 30.592-.724s11.721 19.415.814 30.32l-4.842 4.843.045.045-12.218 12.219-30.547-30.547 16.156-16.156Zm25.206 19.505-14.21-14.21-6.788 6.788 14.21 14.21 6.788-6.788Zm44.063-27.68-10.952-4.435-4.842 4.752 7.738 7.738-12.218 12.22-30.547-30.548 19.188-19.188c6.426-6.426 16.518-6.29 22.808 0 3.801 3.802 5.295 9.006 4.571 13.893l2.579-2.58 14.12 5.703-12.445 12.445ZM229.434 33.03l6.517 6.517 6.109-6.11-6.516-6.516-6.11 6.11ZM245.397.776l12.219-12.22 30.547 30.548-12.219 12.219L245.397.776Zm42.545-42.545 8.598-8.599 21.27 39.825-17.559 17.558-39.462-21.631 13.577-13.577 27.65 15.251 1.222-1.222-15.296-27.605Zm47.521-30.325L320.529-57.16l2.715 2.716 13.169-13.17 8.146 8.147-13.169 13.169 2.489 2.489 14.934-14.934 8.599 8.598-27.153 27.153-30.547-30.547 27.153-27.153 8.598 8.598ZM-77.384 487.946l-5.43 5.43 4.209 6.472 4.525-4.526 6.562 6.562-5.883 5.883 4.57 6.924-8.145 8.146-4.571-6.924-5.43 5.431 4.57 7.014-8.146 8.146-4.57-7.014-3.485 3.484-6.562-6.562 4.842-4.842-4.254-6.426-3.892 3.892-6.562-6.562 5.25-5.25-4.978-7.603 8.146-8.146 4.978 7.603 5.476-5.476-5.024-7.648 8.146-8.146 5.023 7.649 4.074-4.073 6.561 6.562Zm-9.367 20.047-4.209-6.471-5.476 5.476 4.254 6.426 5.43-5.431Zm18.015-54.399c10.408-10.409 22.944-8.373 30.592-.724 7.648 7.648 11.72 19.414.814 30.32l-4.842 4.843.045.045-12.218 12.219-30.547-30.547 16.156-16.156Zm25.207 19.504-14.21-14.21-6.789 6.789 14.21 14.21 6.789-6.789Zm44.062-27.68-10.952-4.435-4.842 4.752 7.739 7.739-12.22 12.219-30.546-30.547 19.188-19.188c6.426-6.427 16.518-6.291 22.808 0 3.802 3.801 5.295 9.005 4.57 13.893l2.58-2.58 14.12 5.702L.533 445.418Zm-30.457-14.345 6.517 6.516 6.11-6.109-6.517-6.517-6.11 6.11Zm15.963-32.255 12.22-12.219 30.546 30.547-12.219 12.219-30.547-30.547Zm42.545-42.545 8.599-8.598 21.27 39.824-17.56 17.559-39.462-21.632 13.577-13.576 27.65 15.25 1.222-1.221-15.296-27.606Zm47.521-30.324-14.934 14.934 2.715 2.715 13.17-13.169 8.145 8.146-13.169 13.169 2.49 2.489 14.933-14.934 8.599 8.598L70.9 375.05l-30.547-30.547 27.153-27.153 8.598 8.599ZM141.611 268.743l-5.43 5.431 4.208 6.471 4.526-4.525 6.562 6.562-5.883 5.883 4.57 6.924-8.146 8.146-4.57-6.924-5.431 5.43 4.571 7.015-8.146 8.146-4.571-7.015-3.484 3.485-6.562-6.562 4.842-4.842-4.254-6.427-3.892 3.892-6.562-6.562 5.25-5.249-4.978-7.603 8.146-8.146 4.978 7.603 5.475-5.476-5.023-7.648 8.146-8.146 5.023 7.648 4.073-4.073 6.562 6.562Zm-9.368 20.048-4.208-6.471-5.476 5.475 4.254 6.427 5.43-5.431Zm18.015-54.4c10.409-10.408 22.945-8.372 30.593-.724s11.721 19.414.814 30.321l-4.842 4.842.045.045-12.219 12.219-30.547-30.547 16.156-16.156Zm25.207 19.505-14.21-14.21-6.788 6.788 14.21 14.21 6.788-6.788Zm44.063-27.68-10.952-4.435-4.842 4.752 7.738 7.738-12.219 12.219-30.547-30.547 19.188-19.188c6.427-6.426 16.518-6.29 22.809 0 3.801 3.802 5.295 9.006 4.571 13.893l2.579-2.579 14.12 5.702-12.445 12.445Zm-30.457-14.346 6.517 6.517 6.109-6.109-6.517-6.517-6.109 6.109Zm15.963-32.254 12.219-12.219 30.547 30.547-12.219 12.219-30.547-30.547Zm42.545-42.545 8.598-8.599 21.27 39.825-17.559 17.558-39.462-21.631 13.576-13.577 27.651 15.251 1.222-1.222-15.296-27.605Zm47.521-30.325-14.934 14.935 2.715 2.715 13.169-13.169 8.146 8.146-13.169 13.169 2.489 2.489 14.934-14.934 8.599 8.598-27.153 27.153-30.547-30.547 27.153-27.153 8.598 8.598ZM361.023 49.54l-5.431 5.43 4.209 6.471 4.525-4.525 6.562 6.562-5.883 5.883 4.571 6.924-8.146 8.146-4.571-6.924-5.43 5.43 4.57 7.015-8.146 8.146-4.57-7.015-3.485 3.485-6.562-6.562 4.842-4.842-4.254-6.427-3.891 3.892-6.562-6.562 5.249-5.25-4.978-7.602 8.146-8.146 4.978 7.603 5.476-5.476-5.023-7.648 8.145-8.146 5.024 7.648 4.073-4.073 6.562 6.562Zm-9.368 20.047-4.209-6.471-5.476 5.476 4.254 6.426 5.431-5.43Zm18.015-54.4c10.408-10.408 22.944-8.372 30.592-.724s11.721 19.415.815 30.321l-4.843 4.842.046.046-12.219 12.218-30.547-30.547 16.156-16.156Zm25.207 19.505-14.21-14.21-6.788 6.788 14.21 14.21 6.788-6.788Zm44.062-27.68-10.952-4.435-4.842 4.752 7.739 7.739-12.219 12.218L388.118-3.26l19.188-19.188c6.426-6.426 16.518-6.29 22.808 0 3.802 3.802 5.295 9.006 4.571 13.894l2.58-2.58 14.119 5.702-12.445 12.445ZM408.483-7.334l6.516 6.517 6.11-6.11-6.517-6.516-6.109 6.11Zm15.962-32.254 12.219-12.22 30.547 30.548-12.218 12.219-30.548-30.547Zm42.545-42.545 8.599-8.599 21.27 39.825L479.3-33.348 439.837-54.98l13.577-13.577 27.651 15.251 1.221-1.222-15.296-27.605Zm47.521-30.324-14.934 14.934 2.716 2.715 13.169-13.169 8.146 8.146-13.169 13.169 2.489 2.489 14.934-14.934 8.598 8.598-27.153 27.153-30.547-30.547 27.153-27.153 8.598 8.599ZM-117.747 666.994l-5.431 5.431 4.209 6.471 4.526-4.525 6.562 6.562-5.884 5.883 4.571 6.924-8.146 8.146-4.57-6.924-5.431 5.43 4.571 7.015-8.146 8.146-4.571-7.015-3.484 3.485-6.562-6.562 4.842-4.842-4.254-6.427-3.892 3.892-6.562-6.562 5.25-5.249-4.978-7.603 8.145-8.146 4.978 7.603 5.476-5.476-5.023-7.648 8.146-8.146 5.023 7.648 4.073-4.073 6.562 6.562Zm-9.368 20.048-4.208-6.471-5.476 5.476 4.254 6.426 5.43-5.431Zm18.015-54.4c10.409-10.408 22.944-8.372 30.593-.724 7.648 7.648 11.72 19.415.814 30.321l-4.842 4.842.045.045-12.219 12.219-30.547-30.547 16.156-16.156Zm25.207 19.505-14.21-14.21-6.788 6.788 14.21 14.21 6.788-6.788Zm44.063-27.68-10.952-4.435-4.842 4.752 7.738 7.738-12.219 12.219-30.547-30.547 19.188-19.188c6.427-6.426 16.518-6.29 22.809 0 3.801 3.802 5.295 9.006 4.57 13.893l2.58-2.579 14.12 5.702-12.445 12.445Zm-30.457-14.346 6.517 6.517 6.11-6.109-6.518-6.517-6.109 6.109Zm15.963-32.254 12.219-12.219 30.547 30.547-12.219 12.219-30.547-30.547Zm42.545-42.545 8.598-8.599 21.27 39.825L.53 584.106l-39.462-21.631 13.576-13.577 27.651 15.251 1.222-1.222-15.296-27.605Zm47.52-30.325-14.933 14.935 2.715 2.715 13.17-13.169 8.145 8.146-13.169 13.169 2.489 2.489 14.934-14.934 8.599 8.598-27.153 27.153L-.01 523.552l27.152-27.153 8.599 8.598ZM101.247 447.791l-5.43 5.431 4.209 6.471 4.525-4.525 6.562 6.562-5.883 5.883 4.571 6.924-8.146 8.146-4.57-6.924-5.431 5.431 4.57 7.014-8.146 8.146-4.57-7.015-3.485 3.485-6.562-6.562 4.842-4.842-4.254-6.426-3.892 3.892-6.561-6.562 5.249-5.25-4.978-7.603 8.146-8.146 4.978 7.603 5.476-5.476-5.023-7.648 8.145-8.146 5.024 7.648 4.073-4.072 6.561 6.561Zm-9.367 20.048-4.209-6.471-5.476 5.476 4.254 6.426 5.43-5.431Zm18.015-54.399c10.408-10.409 22.944-8.373 30.592-.725 7.648 7.649 11.721 19.415.815 30.321l-4.843 4.842.046.046-12.219 12.219-30.547-30.548 16.156-16.155Zm25.207 19.504-14.21-14.21-6.789 6.789 14.21 14.21 6.789-6.789Zm44.062-27.68-10.952-4.435-4.842 4.752 7.739 7.739-12.219 12.218-30.547-30.547 19.188-19.188c6.426-6.426 16.518-6.29 22.808 0 3.802 3.802 5.295 9.006 4.571 13.894l2.58-2.58 14.119 5.702-12.445 12.445Zm-30.457-14.345 6.517 6.516 6.11-6.109-6.517-6.517-6.11 6.11Zm15.963-32.255 12.219-12.219 30.547 30.547-12.219 12.219-30.547-30.547Zm42.545-42.545 8.599-8.598 21.269 39.824-17.558 17.559-39.463-21.632 13.577-13.577 27.65 15.251 1.222-1.222-15.296-27.605Zm47.521-30.324-14.934 14.934 2.716 2.715 13.169-13.169 8.146 8.146-13.17 13.169 2.489 2.489 14.935-14.934 8.598 8.598-27.153 27.153-30.547-30.547 27.153-27.153 8.598 8.599ZM320.659 228.588l-5.43 5.431 4.208 6.471 4.526-4.525 6.562 6.562-5.883 5.883 4.57 6.924-8.146 8.146-4.57-6.924-5.431 5.43 4.571 7.015-8.146 8.146-4.571-7.015-3.484 3.485-6.562-6.562 4.842-4.843-4.254-6.426-3.892 3.892-6.562-6.562 5.25-5.249-4.978-7.603 8.146-8.146 4.978 7.603 5.475-5.476-5.023-7.648 8.146-8.146 5.023 7.648 4.073-4.073 6.562 6.562Zm-9.368 20.048-4.208-6.471-5.476 5.475 4.254 6.427 5.43-5.431Zm18.015-54.4c10.409-10.408 22.945-8.372 30.593-.724s11.721 19.414.814 30.321l-4.842 4.842.045.045-12.219 12.219-30.547-30.547 16.156-16.156Zm25.207 19.505-14.21-14.21-6.788 6.788 14.21 14.21 6.788-6.788Zm44.063-27.68-10.952-4.435-4.842 4.752 7.738 7.738-12.219 12.219-30.547-30.547 19.188-19.188c6.427-6.426 16.519-6.29 22.809 0 3.801 3.801 5.295 9.006 4.571 13.893l2.579-2.579 14.12 5.702-12.445 12.445Zm-30.457-14.346 6.517 6.517 6.109-6.11-6.516-6.516-6.11 6.109Zm15.963-32.255 12.219-12.218 30.547 30.547-12.219 12.218-30.547-30.547Zm42.545-42.544 8.598-8.599 21.27 39.824-17.559 17.559-39.462-21.632 13.576-13.576 27.651 15.251 1.222-1.222-15.296-27.605Zm47.521-30.325-14.934 14.934 2.715 2.716 13.169-13.17 8.146 8.146-13.169 13.17 2.489 2.489 14.934-14.934 8.599 8.598-27.153 27.153-30.547-30.547 27.153-27.153 8.598 8.598ZM539.654 9.385l-5.431 5.431 4.209 6.472 4.525-4.526 6.562 6.562-5.883 5.883 4.571 6.924-8.146 8.146-4.571-6.924-5.431 5.43 4.571 7.015-8.146 8.146-4.57-7.015-3.485 3.485-6.562-6.562 4.842-4.842-4.254-6.426-3.892 3.891-6.561-6.561 5.249-5.25-4.978-7.603 8.146-8.146 4.978 7.603 5.476-5.476-5.024-7.648 8.146-8.146 5.024 7.648 4.073-4.072 6.562 6.561Zm-9.368 20.048-4.209-6.471-5.476 5.476 4.254 6.426 5.431-5.43Zm18.015-54.4c10.408-10.408 22.944-8.372 30.592-.724s11.721 19.415.815 30.321l-4.843 4.842.046.046-12.219 12.218L532.145-8.81l16.156-16.155Zm25.207 19.505-14.21-14.21-6.789 6.789 14.21 14.21 6.789-6.789Zm44.062-27.68-10.952-4.435-4.842 4.752 7.739 7.739-12.219 12.218-30.547-30.547 19.188-19.188c6.426-6.426 16.518-6.29 22.808 0 3.802 3.802 5.295 9.006 4.571 13.894l2.58-2.58 14.119 5.702-12.445 12.445Zm-30.457-14.345 6.517 6.516 6.11-6.11-6.517-6.516-6.11 6.11Zm15.963-32.255 12.219-12.219 30.547 30.547-12.219 12.219-30.547-30.547Zm42.545-42.545 8.599-8.598 21.269 39.824-17.558 17.559-39.463-21.632 13.577-13.577 27.651 15.251 1.221-1.222-15.296-27.605Zm47.521-30.324-14.934 14.934 2.716 2.715 13.169-13.169 8.146 8.146-13.17 13.169 2.489 2.489 14.935-14.934 8.598 8.598-27.153 27.153-30.547-30.547 27.153-27.153 8.598 8.599ZM61.301 626.63l-5.43 5.431 4.209 6.471 4.525-4.525 6.562 6.562-5.883 5.883 4.57 6.924-8.145 8.146-4.571-6.924-5.43 5.431 4.57 7.014-8.146 8.146-4.57-7.015-3.485 3.485-6.562-6.562 4.842-4.842-4.254-6.426-3.892 3.892-6.562-6.562 5.25-5.25-4.978-7.603 8.146-8.146 4.978 7.603 5.476-5.476-5.024-7.648 8.146-8.146 5.023 7.648 4.074-4.072 6.561 6.561Zm-9.367 20.048-4.209-6.471-5.476 5.476 4.254 6.426 5.43-5.431Zm18.015-54.399c10.408-10.409 22.944-8.373 30.592-.725s11.721 19.415.814 30.321l-4.842 4.842.045.046-12.218 12.218-30.547-30.547 16.156-16.155Zm25.207 19.504-14.21-14.21-6.789 6.789 14.21 14.21 6.789-6.789Zm44.062-27.68-10.952-4.435-4.842 4.752 7.739 7.739-12.219 12.218-30.547-30.547 19.188-19.188c6.426-6.426 16.518-6.29 22.808 0 3.802 3.802 5.295 9.006 4.571 13.894l2.579-2.58 14.12 5.702-12.445 12.445Zm-30.457-14.345 6.517 6.516 6.109-6.109-6.516-6.517-6.11 6.11Zm15.963-32.255 12.219-12.219 30.547 30.547-12.219 12.219-30.547-30.547Zm42.545-42.545 8.599-8.598 21.269 39.824-17.559 17.559-39.462-21.632 13.577-13.577 27.65 15.251 1.222-1.222-15.296-27.605Zm47.521-30.324-14.934 14.934 2.715 2.715 13.17-13.169 8.145 8.146-13.169 13.169 2.489 2.489 14.934-14.934 8.599 8.598-27.153 27.153-30.547-30.547 27.153-27.153 8.598 8.599ZM280.296 407.428l-5.431 5.43 4.209 6.472 4.526-4.526 6.562 6.562-5.884 5.883 4.571 6.924-8.146 8.146-4.57-6.924-5.431 5.431 4.571 7.014-8.146 8.146-4.571-7.014-3.485 3.484-6.562-6.562 4.843-4.842-4.254-6.426-3.892 3.892-6.562-6.562 5.249-5.25-4.978-7.602 8.146-8.146 4.978 7.603 5.476-5.476-5.023-7.648 8.146-8.146 5.023 7.648 4.073-4.073 6.562 6.562Zm-9.368 20.048-4.208-6.472-5.476 5.476 4.254 6.426 5.43-5.43Zm18.015-54.4c10.409-10.409 22.944-8.372 30.592-.724 7.649 7.648 11.721 19.414.815 30.321l-4.842 4.842.045.045-12.219 12.219-30.547-30.547 16.156-16.156Zm25.207 19.505-14.21-14.21-6.788 6.788 14.21 14.21 6.788-6.788Zm44.062-27.68-10.951-4.435-4.843 4.751 7.739 7.739-12.219 12.219-30.547-30.547 19.188-19.188c6.426-6.426 16.518-6.291 22.809 0 3.801 3.801 5.295 9.005 4.57 13.893l2.58-2.58 14.119 5.703-12.445 12.445Zm-30.456-14.346 6.517 6.517 6.109-6.11-6.517-6.517-6.109 6.11Zm15.963-32.255 12.219-12.219 30.547 30.547-12.219 12.219-30.547-30.547Zm42.545-42.545 8.598-8.598 21.27 39.824-17.559 17.559-39.462-21.632 13.576-13.576 27.651 15.251 1.222-1.222-15.296-27.606Zm47.521-30.324-14.934 14.934 2.715 2.715 13.169-13.169 8.146 8.146-13.169 13.169 2.489 2.489 14.934-14.934 8.598 8.599-27.153 27.153-30.547-30.547 27.153-27.153 8.599 8.598ZM-158.11 845.834l-5.431 5.431 4.209 6.471 4.525-4.525 6.562 6.562-5.883 5.883 4.571 6.924-8.146 8.145-4.571-6.923-5.43 5.43 4.57 7.015-8.145 8.145-4.571-7.014-3.485 3.485-6.562-6.562 4.843-4.843-4.254-6.426-3.892 3.892-6.562-6.562 5.249-5.249-4.978-7.603 8.146-8.146 4.978 7.603 5.476-5.476-5.023-7.648 8.146-8.146 5.023 7.648 4.073-4.073 6.562 6.562Zm-9.368 20.048-4.209-6.472-5.476 5.476 4.254 6.426 5.431-5.43Zm18.015-54.4c10.409-10.409 22.944-8.372 30.592-.724s11.721 19.414.815 30.321l-4.842 4.842.045.045-12.219 12.219-30.547-30.547 16.156-16.156Zm25.207 19.505-14.21-14.21-6.788 6.788 14.21 14.21 6.788-6.788Zm44.062-27.68-10.951-4.435-4.843 4.752 7.739 7.738-12.219 12.219-30.547-30.547 19.188-19.188c6.426-6.426 16.518-6.29 22.808 0 3.802 3.801 5.295 9.006 4.571 13.893l2.58-2.579 14.12 5.702-12.446 12.445Zm-30.456-14.346 6.516 6.517 6.11-6.11-6.517-6.516-6.109 6.109Zm15.963-32.255 12.218-12.218 30.547 30.547-12.218 12.218-30.547-30.547Zm42.544-42.544 8.599-8.599 21.27 39.824-17.56 17.559-39.461-21.632 13.576-13.576 27.65 15.251 1.223-1.222-15.297-27.605Zm47.522-30.325-14.934 14.934 2.715 2.716 13.169-13.17 8.146 8.146-13.17 13.17 2.49 2.489 14.934-14.935 8.598 8.599-27.153 27.153-30.547-30.547 27.153-27.153 8.599 8.598ZM499.708 188.224l-5.431 5.431 4.209 6.471 4.525-4.525 6.562 6.562-5.883 5.883 4.571 6.924-8.146 8.146-4.571-6.924-5.43 5.43 4.57 7.015-8.146 8.146-4.57-7.015-3.485 3.485-6.562-6.562 4.842-4.842-4.254-6.426-3.892 3.891-6.561-6.562 5.249-5.249-4.978-7.603 8.146-8.146 4.978 7.603 5.476-5.476-5.024-7.648 8.146-8.146 5.024 7.648 4.073-4.073 6.562 6.562Zm-9.368 20.048-4.209-6.471-5.476 5.476 4.254 6.426 5.431-5.431Zm18.015-54.4c10.408-10.408 22.944-8.372 30.592-.724s11.721 19.415.815 30.321l-4.843 4.842.046.046-12.219 12.218-30.547-30.547 16.156-16.156Zm25.207 19.505-14.21-14.21-6.789 6.788 14.21 14.21 6.789-6.788Zm44.062-27.68-10.952-4.435-4.842 4.752 7.739 7.739-12.219 12.218-30.547-30.547 19.188-19.188c6.426-6.426 16.518-6.29 22.808 0 3.802 3.802 5.295 9.006 4.571 13.894l2.58-2.58 14.119 5.702-12.445 12.445Zm-30.457-14.346 6.517 6.517 6.11-6.109-6.517-6.517-6.11 6.109Zm15.963-32.254 12.219-12.22 30.547 30.548-12.219 12.219-30.547-30.547Zm42.545-42.545 8.599-8.599 21.269 39.825-17.558 17.559-39.463-21.632 13.577-13.577L619.75 85.38l1.221-1.222-15.296-27.605Zm47.521-30.324-14.934 14.934 2.716 2.715 13.169-13.17 8.146 8.147-13.17 13.169 2.489 2.489 14.935-14.934 8.598 8.598-27.153 27.153-30.547-30.547 27.153-27.153 8.598 8.599ZM718.702-30.978l-5.431 5.43 4.209 6.472 4.526-4.526 6.562 6.562-5.884 5.883 4.571 6.924-8.146 8.146-4.57-6.924-5.431 5.43 4.571 7.015-8.146 8.146-4.571-7.014-3.485 3.484-6.561-6.562 4.842-4.842-4.254-6.426-3.892 3.892-6.562-6.562 5.25-5.25-4.979-7.602 8.146-8.146 4.978 7.602 5.476-5.475-5.023-7.648 8.146-8.146 5.023 7.648 4.073-4.073 6.562 6.562Zm-9.368 20.048-4.208-6.472-5.476 5.476 4.254 6.426 5.43-5.43Zm18.015-54.4c10.409-10.409 22.944-8.372 30.592-.724 7.649 7.648 11.721 19.414.815 30.32l-4.842 4.843.045.045-12.219 12.219-30.547-30.547 16.156-16.156Zm25.207 19.505-14.21-14.21-6.788 6.788 14.21 14.21 6.788-6.788Zm44.062-27.68-10.951-4.435-4.843 4.751 7.739 7.739-12.219 12.219-30.547-30.547 19.188-19.188c6.426-6.426 16.518-6.291 22.809 0 3.801 3.801 5.295 9.005 4.57 13.893l2.58-2.58 14.12 5.703-12.446 12.445Zm-30.456-14.346 6.517 6.517 6.109-6.11-6.517-6.516-6.109 6.109Zm15.963-32.255 12.219-12.219 30.547 30.547-12.219 12.22-30.547-30.548Zm42.545-42.545 8.598-8.598 21.27 39.824-17.559 17.559-39.462-21.632 13.576-13.576 27.651 15.251 1.222-1.222-15.296-27.606Zm47.521-30.324-14.934 14.934 2.715 2.715 13.169-13.169 8.146 8.146-13.169 13.169 2.489 2.489 14.934-14.934 8.598 8.599-27.152 27.153-30.547-30.547 27.152-27.153 8.599 8.598ZM20.938 805.679l-5.431 5.43 4.209 6.472 4.525-4.526 6.562 6.562-5.883 5.883 4.57 6.924-8.145 8.146-4.57-6.924-5.431 5.431 4.57 7.014-8.146 8.146-4.57-7.014-3.485 3.484-6.562-6.562 4.842-4.842-4.254-6.426-3.891 3.892-6.563-6.562 5.25-5.25-4.978-7.603 8.146-8.145 4.978 7.602 5.476-5.475-5.024-7.648 8.146-8.146 5.024 7.648 4.073-4.073 6.562 6.562Zm-9.368 20.048-4.209-6.472-5.476 5.476 4.254 6.426 5.43-5.43Zm18.015-54.4c10.408-10.409 22.944-8.372 30.592-.724s11.721 19.414.815 30.32l-4.843 4.843.046.045-12.22 12.219-30.546-30.547 16.156-16.156Zm25.207 19.505-14.21-14.21-6.789 6.788 14.21 14.21 6.789-6.788Zm44.062-27.68-10.952-4.435-4.842 4.751 7.739 7.739-12.22 12.219-30.546-30.547 19.188-19.188c6.426-6.427 16.518-6.291 22.808 0 3.802 3.801 5.295 9.005 4.571 13.893l2.58-2.58 14.119 5.702-12.445 12.446Zm-30.457-14.346 6.517 6.516 6.11-6.109-6.517-6.517-6.11 6.11Zm15.963-32.255 12.22-12.219 30.546 30.547-12.219 12.219-30.547-30.547Zm42.545-42.545 8.599-8.598 21.269 39.824-17.558 17.559-39.463-21.632 13.577-13.576 27.651 15.251 1.221-1.222-15.296-27.606Zm47.521-30.324-14.934 14.934 2.716 2.715 13.169-13.169 8.146 8.146-13.17 13.169 2.489 2.489 14.935-14.934 8.598 8.599-27.153 27.152-30.547-30.547 27.153-27.152 8.598 8.598ZM239.932 586.476l-5.43 5.431 4.208 6.471 4.526-4.525 6.562 6.562-5.883 5.883 4.57 6.924-8.145 8.146-4.571-6.924-5.431 5.43 4.571 7.015-8.146 8.146-4.571-7.015-3.484 3.485-6.562-6.562 4.842-4.842-4.254-6.427-3.892 3.892-6.562-6.562 5.25-5.249-4.978-7.603 8.146-8.146 4.978 7.603 5.475-5.476-5.023-7.648 8.146-8.146 5.023 7.648 4.073-4.073 6.562 6.562Zm-9.368 20.048-4.208-6.471-5.476 5.476 4.254 6.426 5.43-5.431Zm18.015-54.4c10.409-10.408 22.945-8.372 30.593-.724s11.721 19.415.814 30.321l-4.842 4.842.045.046-12.219 12.218-30.547-30.547 16.156-16.156Zm25.207 19.505-14.21-14.21-6.788 6.788 14.21 14.21 6.788-6.788Zm44.063-27.68-10.952-4.435-4.842 4.752 7.738 7.738-12.218 12.219-30.547-30.547 19.188-19.188c6.426-6.426 16.518-6.29 22.808 0 3.801 3.802 5.295 9.006 4.571 13.893l2.579-2.579 14.12 5.702-12.445 12.445Zm-30.457-14.346 6.517 6.517 6.109-6.109-6.516-6.517-6.11 6.109Zm15.963-32.254 12.219-12.219 30.547 30.547-12.219 12.219-30.547-30.547Zm42.545-42.545 8.598-8.599 21.27 39.825-17.559 17.559-39.462-21.632 13.577-13.577 27.65 15.251 1.222-1.222-15.296-27.605Zm47.521-30.324-14.934 14.934 2.715 2.715 13.169-13.169 8.146 8.146-13.169 13.169 2.489 2.489 14.934-14.934 8.599 8.598-27.153 27.153-30.547-30.547 27.153-27.153 8.598 8.599ZM459.344 367.272l-5.431 5.431 4.209 6.472 4.525-4.526 6.562 6.562-5.883 5.883 4.571 6.924-8.146 8.146-4.571-6.924-5.43 5.431 4.571 7.014-8.146 8.146-4.571-7.015-3.485 3.485-6.562-6.562 4.843-4.842-4.254-6.426-3.892 3.892-6.562-6.562 5.249-5.25-4.978-7.603 8.146-8.146 4.978 7.603 5.476-5.476-5.023-7.648 8.146-8.146 5.023 7.648 4.073-4.072 6.562 6.561Zm-9.368 20.048-4.209-6.471-5.475 5.476 4.254 6.426 5.43-5.431Zm18.015-54.399c10.409-10.409 22.944-8.373 30.592-.725 7.648 7.649 11.721 19.415.815 30.321l-4.842 4.842.045.046-12.219 12.219-30.547-30.547 16.156-16.156Zm25.207 19.504-14.21-14.21-6.788 6.789 14.21 14.21 6.788-6.789Zm44.062-27.68-10.951-4.435-4.843 4.752 7.739 7.739-12.219 12.218-30.547-30.547 19.188-19.188c6.426-6.426 16.518-6.29 22.809 0 3.801 3.802 5.294 9.006 4.57 13.894l2.58-2.58 14.119 5.702-12.445 12.445ZM506.804 310.4l6.516 6.516 6.11-6.109-6.517-6.517-6.109 6.11Zm15.963-32.255 12.219-12.219 30.547 30.547-12.219 12.219-30.547-30.547Zm42.545-42.545 8.598-8.598 21.27 39.824-17.559 17.559-39.462-21.632 13.576-13.577 27.651 15.251 1.222-1.222-15.296-27.605Zm47.521-30.324-14.934 14.934 2.715 2.715 13.169-13.169 8.146 8.146-13.169 13.169 2.489 2.489 14.934-14.934 8.598 8.598-27.153 27.153-30.547-30.547 27.153-27.153 8.599 8.599ZM678.338 148.07l-5.43 5.431 4.208 6.471 4.526-4.525 6.562 6.562-5.883 5.883 4.57 6.924-8.145 8.146-4.571-6.924-5.431 5.43 4.571 7.015-8.146 8.146-4.571-7.015-3.484 3.485-6.562-6.562 4.842-4.842-4.254-6.427-3.892 3.892-6.562-6.562 5.25-5.249-4.978-7.603 8.146-8.146 4.978 7.603 5.476-5.476-5.024-7.648 8.146-8.146 5.023 7.648 4.073-4.073 6.562 6.562Zm-9.367 20.048-4.209-6.471-5.476 5.476 4.254 6.426 5.431-5.431Zm18.014-54.4c10.409-10.408 22.945-8.372 30.593-.724s11.721 19.415.814 30.321l-4.842 4.842.045.046-12.218 12.218-30.547-30.547 16.155-16.156Zm25.207 19.505-14.21-14.21-6.788 6.788 14.21 14.21 6.788-6.788Zm44.063-27.68-10.952-4.435-4.842 4.752 7.738 7.738-12.218 12.219-30.547-30.547 19.188-19.188c6.426-6.426 16.518-6.29 22.808 0 3.801 3.802 5.295 9.006 4.571 13.893l2.579-2.58 14.12 5.703-12.445 12.445Zm-30.457-14.346 6.517 6.517 6.109-6.11-6.516-6.516-6.11 6.11Zm15.963-32.254 12.219-12.22 30.547 30.548-12.219 12.219-30.547-30.547Zm42.545-42.545 8.598-8.599 21.27 39.825-17.559 17.559-39.462-21.632 13.577-13.577 27.65 15.251 1.222-1.222-15.296-27.605Zm47.521-30.325L816.893 1.008l2.715 2.715 13.169-13.17 8.146 8.147-13.169 13.169 2.489 2.489L845.177-.576l8.599 8.598-27.153 27.153-30.547-30.547 27.153-27.153 8.598 8.598ZM199.986 765.315l-5.431 5.431 4.209 6.471 4.526-4.525 6.562 6.562-5.883 5.883 4.57 6.924-8.146 8.146-4.57-6.924-5.431 5.43 4.571 7.015-8.146 8.146-4.571-7.015-3.484 3.485-6.562-6.562 4.842-4.843-4.254-6.426-3.892 3.892-6.562-6.562 5.25-5.249-4.978-7.603 8.145-8.146 4.978 7.603 5.476-5.476-5.023-7.648 8.146-8.146 5.023 7.648 4.073-4.073 6.562 6.562Zm-9.368 20.048-4.208-6.471-5.476 5.475 4.254 6.427 5.43-5.431Zm18.015-54.4c10.409-10.408 22.944-8.372 30.593-.724 7.648 7.648 11.721 19.414.814 30.321l-4.842 4.842.045.045-12.219 12.219-30.547-30.547 16.156-16.156Zm25.207 19.505-14.21-14.21-6.788 6.788 14.21 14.21 6.788-6.788Zm44.063-27.68-10.952-4.435-4.842 4.752 7.738 7.738-12.219 12.219-30.547-30.547 19.188-19.188c6.427-6.426 16.518-6.29 22.809 0 3.801 3.801 5.295 9.006 4.571 13.893l2.579-2.579 14.12 5.702-12.445 12.445Zm-30.457-14.346 6.517 6.517 6.109-6.11-6.517-6.516-6.109 6.109Zm15.963-32.255 12.219-12.218 30.547 30.547-12.219 12.218-30.547-30.547Zm42.545-42.544 8.598-8.599 21.27 39.824-17.559 17.559-39.462-21.631 13.576-13.577 27.651 15.251 1.222-1.222-15.296-27.605Zm47.521-30.325-14.934 14.934 2.715 2.716 13.169-13.169 8.146 8.145-13.169 13.17 2.489 2.489 14.934-14.934 8.599 8.598-27.153 27.153-30.547-30.547 27.152-27.153 8.599 8.598ZM418.981 546.113l-5.431 5.43 4.209 6.472 4.525-4.526 6.562 6.562-5.883 5.883 4.571 6.924-8.146 8.146-4.571-6.924-5.43 5.431 4.57 7.014-8.145 8.146-4.571-7.014-3.485 3.484-6.562-6.562 4.843-4.842-4.254-6.426-3.892 3.892-6.562-6.562 5.249-5.25-4.978-7.603 8.146-8.145 4.978 7.602 5.476-5.476-5.023-7.648 8.146-8.145 5.023 7.648 4.073-4.073 6.562 6.562Zm-9.368 20.048-4.209-6.472-5.476 5.476 4.254 6.426 5.431-5.43Zm18.015-54.4c10.409-10.409 22.944-8.372 30.592-.724s11.721 19.414.815 30.32l-4.842 4.843.045.045-12.219 12.219-30.547-30.547 16.156-16.156Zm25.207 19.505-14.21-14.211-6.788 6.789 14.21 14.21 6.788-6.788Zm44.062-27.681-10.951-4.435-4.843 4.752 7.739 7.739-12.219 12.219-30.547-30.547 19.188-19.188c6.426-6.427 16.518-6.291 22.809 0 3.801 3.801 5.294 9.005 4.57 13.893l2.58-2.58 14.119 5.702-12.445 12.445Zm-30.456-14.345 6.516 6.516 6.11-6.109-6.517-6.517-6.109 6.11Zm15.963-32.255 12.218-12.219 30.547 30.547-12.218 12.219-30.547-30.547Zm42.544-42.545 8.599-8.598 21.27 39.824-17.559 17.559-39.462-21.632 13.576-13.576 27.651 15.25 1.222-1.221-15.297-27.606Zm47.522-30.324-14.934 14.934 2.715 2.715 13.169-13.169 8.146 8.146-13.169 13.169 2.489 2.489 14.934-14.934 8.598 8.598-27.153 27.153-30.547-30.547 27.153-27.153 8.599 8.599ZM-19.425 984.519l-5.431 5.43 4.209 6.472 4.525-4.526 6.562 6.562-5.883 5.883 4.57 6.92-8.145 8.15-4.57-6.92-5.431 5.43 4.57 7.01-8.146 8.15-4.57-7.02-3.485 3.49-6.562-6.56 4.842-4.85-4.254-6.42-3.892 3.89-6.561-6.56 5.25-5.25-4.979-7.605 8.146-8.146 4.978 7.603 5.476-5.476-5.023-7.648 8.145-8.146 5.024 7.648 4.073-4.073 6.562 6.562Zm-9.368 20.051-4.209-6.475-5.476 5.475 4.254 6.43 5.43-5.43Zm18.015-54.403c10.408-10.409 22.944-8.372 30.592-.724s11.721 19.414.815 30.321l-4.843 4.842.046.045-12.22 12.219-30.546-30.547 16.156-16.156Zm25.207 19.505-14.21-14.21-6.789 6.788 14.21 14.21 6.789-6.788Zm44.062-27.68-10.952-4.435-4.842 4.751 7.739 7.739-12.22 12.219L7.67 931.719l19.188-19.188c6.426-6.426 16.518-6.291 22.808 0 3.802 3.801 5.295 9.005 4.571 13.893l2.58-2.58 14.12 5.703-12.446 12.445Zm-30.456-14.346 6.516 6.517 6.11-6.11-6.517-6.517-6.11 6.11Zm15.963-32.255 12.218-12.219 30.547 30.547-12.219 12.219-30.546-30.547Zm42.544-42.545 8.599-8.598 21.269 39.824-17.558 17.559-39.463-21.632 13.577-13.576 27.651 15.251 1.221-1.222-15.296-27.606Zm47.521-30.324-14.934 14.934 2.716 2.715 13.169-13.169 8.146 8.146-13.17 13.169 2.489 2.489 14.935-14.934 8.598 8.599-27.153 27.153-30.547-30.547 27.153-27.153 8.598 8.598ZM638.392 326.909l-5.43 5.43 4.208 6.472 4.526-4.526 6.562 6.562-5.883 5.884 4.57 6.924-8.145 8.145-4.571-6.924-5.431 5.431 4.571 7.014-8.146 8.146-4.571-7.014-3.484 3.484-6.562-6.561 4.842-4.843-4.254-6.426-3.892 3.892-6.562-6.562 5.25-5.25-4.978-7.602 8.146-8.146 4.978 7.603 5.476-5.476-5.024-7.648 8.146-8.146 5.023 7.648 4.073-4.073 6.562 6.562Zm-9.367 20.048-4.209-6.472-5.476 5.476 4.254 6.426 5.431-5.43Zm18.014-54.4c10.409-10.409 22.945-8.372 30.593-.724s11.721 19.414.814 30.321l-4.842 4.842.045.045-12.218 12.219-30.548-30.547 16.156-16.156Zm25.207 19.505-14.21-14.21-6.788 6.788 14.21 14.21 6.788-6.788Zm44.063-27.68-10.952-4.435-4.842 4.752 7.738 7.738-12.218 12.219-30.547-30.547 19.188-19.188c6.426-6.426 16.518-6.291 22.808 0 3.801 3.801 5.295 9.006 4.571 13.893l2.579-2.579 14.12 5.702-12.445 12.445Zm-30.457-14.346 6.517 6.517 6.109-6.11-6.516-6.516-6.11 6.109Zm15.963-32.255 12.219-12.219 30.547 30.547-12.219 12.219-30.547-30.547Zm42.545-42.545 8.598-8.598 21.27 39.824-17.559 17.559-39.462-21.632 13.577-13.576 27.65 15.251 1.222-1.222-15.296-27.606Zm47.521-30.324-14.934 14.934 2.715 2.716 13.169-13.17 8.146 8.146-13.169 13.169 2.489 2.489 14.934-14.934 8.599 8.599-27.153 27.153-30.547-30.547 27.153-27.153 8.598 8.598ZM857.387 107.707l-5.431 5.43 4.209 6.472 4.525-4.526 6.562 6.562-5.883 5.883 4.571 6.924-8.146 8.146-4.571-6.924-5.43 5.431 4.571 7.014-8.146 8.146-4.571-7.014-3.485 3.484-6.562-6.562 4.843-4.842-4.254-6.426-3.892 3.892-6.562-6.562 5.249-5.25-4.978-7.603 8.146-8.145 4.978 7.602 5.476-5.476-5.023-7.648 8.146-8.145 5.023 7.648 4.073-4.073 6.562 6.562Zm-9.368 20.048-4.209-6.472-5.475 5.476 4.253 6.426 5.431-5.43Zm18.015-54.4c10.409-10.409 22.944-8.373 30.592-.724 7.648 7.648 11.721 19.414.815 30.32l-4.842 4.843.045.045-12.219 12.219-30.547-30.547 16.156-16.156Zm25.207 19.504-14.21-14.21-6.788 6.789 14.21 14.21 6.788-6.788Zm44.062-27.68-10.951-4.434-4.843 4.751 7.739 7.739-12.219 12.219-30.547-30.547 19.188-19.188c6.426-6.427 16.518-6.29 22.809 0 3.801 3.801 5.294 9.005 4.57 13.893l2.58-2.58 14.119 5.702-12.445 12.446Zm-30.456-14.345 6.516 6.516 6.11-6.109-6.517-6.517-6.109 6.11Zm15.963-32.255L933.028 6.36l30.548 30.547-12.219 12.219-30.547-30.547Zm42.545-42.545 8.598-8.598 21.27 39.824-17.559 17.559-39.462-21.632 13.576-13.576 27.651 15.25 1.222-1.221-15.296-27.606Zm47.525-30.324-14.938 14.934 2.715 2.715 13.173-13.169 8.14 8.146-13.17 13.17 2.49 2.488 14.94-14.934 8.59 8.598-27.15 27.153-30.546-30.547 27.156-27.153 8.6 8.599ZM159.622 944.364l-5.43 5.43 4.208 6.472 4.526-4.526 6.562 6.562-5.883 5.884 4.57 6.924-8.145 8.145-4.571-6.924-5.431 5.431 4.571 7.014-8.146 8.146-4.571-7.014-3.484 3.484-6.562-6.561 4.842-4.843-4.254-6.426-3.892 3.892-6.562-6.562 5.25-5.25-4.978-7.602 8.146-8.146 4.978 7.603 5.476-5.476-5.024-7.648 8.146-8.146 5.023 7.648 4.073-4.073 6.562 6.562Zm-9.367 20.048-4.209-6.472-5.476 5.476 4.254 6.426 5.431-5.43Zm18.015-54.4c10.408-10.409 22.944-8.372 30.592-.724s11.721 19.414.814 30.321l-4.842 4.842.045.045-12.218 12.219-30.547-30.547 16.156-16.156Zm25.206 19.505-14.21-14.21-6.788 6.788 14.21 14.21 6.788-6.788Zm44.063-27.68-10.952-4.435-4.842 4.752 7.738 7.738-12.218 12.219-30.547-30.547 19.188-19.188c6.426-6.426 16.518-6.291 22.808 0 3.801 3.801 5.295 9.006 4.571 13.893l2.579-2.579 14.12 5.702-12.445 12.445Zm-30.457-14.346 6.517 6.517 6.109-6.11-6.516-6.516-6.11 6.109Zm15.963-32.255 12.219-12.219 30.547 30.548-12.219 12.218-30.547-30.547Zm42.545-42.545 8.598-8.598 21.27 39.824-17.559 17.559-39.462-21.632 13.577-13.576 27.65 15.251 1.222-1.222-15.296-27.606Zm47.521-30.324-14.934 14.934 2.715 2.716 13.17-13.17 8.145 8.146-13.169 13.169 2.489 2.489 14.934-14.934 8.599 8.599-27.153 27.153-30.547-30.547 27.153-27.153 8.598 8.598ZM378.617 725.161l-5.431 5.431 4.209 6.471 4.526-4.525 6.562 6.562-5.884 5.883 4.571 6.924-8.146 8.146-4.57-6.924-5.431 5.431 4.571 7.014-8.146 8.146-4.571-7.015-3.484 3.485-6.562-6.562 4.842-4.842-4.254-6.426-3.892 3.892-6.562-6.562 5.25-5.25-4.978-7.603 8.145-8.146 4.978 7.603 5.476-5.476-5.023-7.648 8.146-8.146 5.023 7.648 4.073-4.072 6.562 6.561Zm-9.368 20.048-4.208-6.471-5.476 5.476 4.254 6.426 5.43-5.431Zm18.015-54.399c10.409-10.409 22.944-8.373 30.593-.725 7.648 7.649 11.721 19.415.814 30.321l-4.842 4.842.045.046-12.219 12.219-30.547-30.548 16.156-16.155Zm25.207 19.504-14.21-14.21-6.788 6.789 14.21 14.21 6.788-6.789Zm44.063-27.68-10.952-4.435-4.842 4.752 7.738 7.739-12.219 12.218-30.547-30.547 19.188-19.188c6.427-6.426 16.518-6.29 22.809 0 3.801 3.802 5.295 9.006 4.571 13.894l2.579-2.58 14.12 5.702-12.445 12.445Zm-30.457-14.345 6.517 6.516 6.109-6.109-6.517-6.517-6.109 6.11Zm15.963-32.255 12.219-12.219 30.547 30.547-12.219 12.219-30.547-30.547Zm42.545-42.545 8.598-8.598 21.27 39.824-17.559 17.559-39.462-21.632 13.576-13.577 27.651 15.251 1.222-1.222-15.296-27.605Zm47.521-30.324-14.934 14.934 2.715 2.715 13.169-13.169 8.146 8.146-13.169 13.169 2.489 2.489 14.934-14.934 8.598 8.598-27.152 27.153-30.547-30.547 27.152-27.153 8.599 8.599ZM598.028 505.958l-5.43 5.43 4.209 6.472 4.525-4.526 6.562 6.562-5.883 5.883 4.571 6.924-8.146 8.146-4.571-6.924-5.431 5.431 4.571 7.014-8.146 8.146-4.57-7.014-3.485 3.484-6.562-6.562 4.842-4.842-4.254-6.426-3.892 3.892-6.562-6.562 5.25-5.25-4.978-7.602 8.146-8.146 4.978 7.602 5.476-5.475-5.024-7.648 8.146-8.146 5.024 7.648 4.073-4.073 6.561 6.562Zm-9.367 20.048-4.209-6.472-5.476 5.476 4.254 6.426 5.431-5.43Zm18.015-54.4c10.408-10.409 22.944-8.372 30.592-.724s11.721 19.414.815 30.32l-4.843 4.843.046.045-12.219 12.219-30.547-30.547 16.156-16.156Zm25.207 19.505-14.21-14.21-6.789 6.788 14.21 14.21 6.789-6.788Zm44.062-27.68-10.952-4.435-4.842 4.751 7.739 7.739-12.219 12.219-30.547-30.547 19.188-19.188c6.426-6.426 16.518-6.291 22.808 0 3.802 3.801 5.295 9.005 4.571 13.893l2.579-2.58 14.12 5.703-12.445 12.445Zm-30.457-14.346 6.517 6.517 6.11-6.11-6.517-6.517-6.11 6.11Zm15.963-32.255 12.219-12.219 30.547 30.547-12.219 12.219-30.547-30.547Zm42.545-42.545 8.599-8.598 21.269 39.824-17.558 17.559-39.463-21.632 13.577-13.576 27.65 15.251 1.222-1.222-15.296-27.606Zm47.521-30.324-14.934 14.934 2.715 2.715 13.17-13.169 8.146 8.146-13.17 13.169 2.489 2.489 14.934-14.934 8.599 8.599-27.153 27.153-30.547-30.547 27.153-27.153 8.598 8.598ZM817.023 286.755l-5.43 5.431 4.208 6.471 4.526-4.525 6.562 6.562-5.883 5.883 4.57 6.924-8.146 8.146-4.57-6.924-5.431 5.431 4.571 7.014-8.146 8.146-4.571-7.015-3.484 3.485-6.562-6.562 4.842-4.842-4.254-6.426-3.892 3.892-6.562-6.562 5.25-5.25-4.978-7.603 8.145-8.146 4.979 7.603 5.475-5.476-5.023-7.648 8.146-8.146 5.023 7.648 4.073-4.072 6.562 6.561Zm-9.368 20.048-4.208-6.471-5.476 5.476 4.254 6.426 5.43-5.431Zm18.015-54.399c10.409-10.409 22.945-8.373 30.593-.725s11.721 19.415.814 30.321l-4.842 4.842.045.046-12.219 12.218-30.547-30.547 16.156-16.155Zm25.207 19.504-14.21-14.21-6.788 6.789 14.21 14.21 6.788-6.789Zm44.063-27.68-10.952-4.435-4.842 4.752 7.738 7.739-12.219 12.218-30.547-30.547 19.188-19.188c6.427-6.426 16.518-6.29 22.809 0 3.801 3.802 5.295 9.006 4.571 13.894l2.579-2.58 14.12 5.702-12.445 12.445Zm-30.457-14.345 6.517 6.516 6.109-6.109-6.517-6.517-6.109 6.11Zm15.963-32.255 12.219-12.219 30.547 30.547-12.219 12.219-30.547-30.547Zm42.545-42.545 8.598-8.598 21.27 39.824-17.559 17.559-39.462-21.632 13.576-13.577 27.651 15.251 1.222-1.222-15.296-27.605Zm47.521-30.324-14.934 14.934 2.715 2.715 13.169-13.169 8.146 8.146-13.169 13.169 2.489 2.489 14.934-14.934 8.599 8.598-27.153 27.153-30.547-30.547 27.153-27.153 8.598 8.599ZM1036.33 67.656l-5.43 5.43 4.21 6.472 4.52-4.525 6.57 6.562-5.89 5.883 4.57 6.924-8.14 8.146-4.57-6.924-5.43 5.43 4.57 7.015-8.15 8.146-4.57-7.015-3.48 3.485-6.57-6.562 4.85-4.842-4.26-6.427-3.89 3.892-6.562-6.562 5.252-5.25-4.98-7.602 8.15-8.146 4.97 7.603 5.48-5.476-5.02-7.648 8.14-8.146 5.03 7.648 4.07-4.073 6.56 6.562Zm-9.37 20.048-4.21-6.471-5.47 5.475 4.25 6.427 5.43-5.43Zm18.02-54.4c10.41-10.408 22.94-8.372 30.59-.724 7.65 7.648 11.72 19.415.81 30.321l-4.84 4.842.05.046-12.22 12.218-30.55-30.547 16.16-16.156Zm25.2 19.505-14.21-14.21-6.78 6.788 14.21 14.21 6.78-6.788Zm44.07-27.68-10.96-4.435-4.84 4.752 7.74 7.738-12.22 12.22-30.54-30.548 19.18-19.188c6.43-6.426 16.52-6.29 22.81 0 3.8 3.802 5.3 9.006 4.57 13.893l2.58-2.58 14.12 5.703-12.44 12.445Zm-30.46-14.346 6.52 6.517 6.11-6.11-6.52-6.516-6.11 6.11Zm15.96-32.254 12.22-12.22 30.55 30.548-12.22 12.219-30.55-30.547Zm42.55-42.545 8.6-8.599 21.27 39.825-17.56 17.558-39.47-21.631 13.58-13.577 27.65 15.251 1.22-1.222-15.29-27.605Zm47.52-30.325-14.94 14.935 2.72 2.715 13.17-13.17 8.15 8.147-13.17 13.169 2.48 2.489 14.94-14.934 8.6 8.598-27.16 27.153-30.54-30.547 27.15-27.153 8.6 8.598ZM338.671 904l-5.431 5.431 4.209 6.471 4.526-4.525 6.561 6.562-5.883 5.883 4.571 6.924-8.146 8.146-4.571-6.924-5.43 5.43 4.571 7.015-8.146 8.145-4.571-7.014-3.485 3.485-6.562-6.562 4.843-4.843-4.254-6.426-3.892 3.892-6.562-6.562 5.249-5.249-4.978-7.603 8.146-8.146 4.978 7.603 5.476-5.476-5.023-7.648 8.146-8.146 5.023 7.648 4.073-4.073 6.562 6.562Zm-9.368 20.048-4.209-6.472-5.475 5.476 4.254 6.427 5.43-5.431Zm18.015-54.4c10.409-10.409 22.944-8.372 30.592-.724s11.721 19.414.815 30.321l-4.842 4.842.045.045-12.219 12.219-30.547-30.547 16.156-16.156Zm25.207 19.505-14.21-14.21-6.788 6.788 14.21 14.21 6.788-6.788Zm44.062-27.68-10.951-4.435-4.843 4.752 7.739 7.738-12.219 12.219-30.547-30.547 19.188-19.188c6.426-6.426 16.518-6.29 22.809 0 3.801 3.801 5.295 9.006 4.57 13.893l2.58-2.579 14.119 5.702-12.445 12.445Zm-30.456-14.346 6.517 6.517 6.109-6.11-6.517-6.516-6.109 6.109Zm15.963-32.255 12.219-12.218 30.547 30.547-12.219 12.218-30.547-30.547Zm42.545-42.544 8.598-8.599 21.27 39.824-17.559 17.559-39.462-21.632 13.576-13.576 27.651 15.251 1.222-1.222-15.296-27.605Zm47.521-30.325-14.934 14.934 2.715 2.716 13.169-13.169 8.146 8.145-13.169 13.17 2.489 2.489 14.934-14.935 8.598 8.599-27.153 27.153-30.547-30.547 27.153-27.153 8.599 8.598ZM557.665 684.797l-5.43 5.431 4.209 6.471 4.525-4.525 6.562 6.562-5.883 5.883 4.571 6.924-8.146 8.146-4.571-6.924-5.431 5.43 4.571 7.015-8.146 8.146-4.57-7.015-3.485 3.485-6.562-6.562 4.842-4.842-4.254-6.427-3.892 3.892-6.562-6.562 5.25-5.249-4.978-7.603 8.146-8.146 4.978 7.603 5.476-5.476-5.024-7.648 8.146-8.146 5.024 7.648 4.073-4.073 6.561 6.562Zm-9.367 20.048-4.209-6.471-5.476 5.476 4.254 6.426 5.431-5.431Zm18.015-54.4c10.408-10.408 22.944-8.372 30.592-.724s11.721 19.415.815 30.321l-4.843 4.842.046.046-12.219 12.218-30.547-30.547 16.156-16.156Zm25.207 19.505-14.21-14.21-6.789 6.788 14.21 14.21 6.789-6.788Zm44.062-27.68-10.952-4.435-4.842 4.752 7.739 7.739-12.219 12.218-30.547-30.547 19.188-19.188c6.426-6.426 16.518-6.29 22.808 0 3.802 3.802 5.295 9.006 4.571 13.893l2.579-2.579 14.12 5.702-12.445 12.445Zm-30.457-14.346 6.517 6.517 6.11-6.109-6.517-6.517-6.11 6.109Zm15.963-32.254 12.219-12.219 30.547 30.547-12.219 12.219-30.547-30.547Zm42.545-42.545 8.599-8.599 21.269 39.825-17.559 17.559-39.462-21.632 13.577-13.577 27.65 15.251 1.222-1.222-15.296-27.605Zm47.521-30.324-14.934 14.934 2.715 2.715 13.17-13.169 8.146 8.146-13.17 13.169 2.489 2.489 14.934-14.934 8.599 8.598-27.153 27.153-30.547-30.547 27.153-27.153 8.598 8.599ZM777.077 465.594l-5.43 5.43 4.208 6.472 4.526-4.526 6.562 6.562-5.883 5.883 4.57 6.924-8.146 8.146-4.57-6.924-5.431 5.431 4.571 7.014-8.146 8.146-4.571-7.014-3.484 3.484-6.562-6.562 4.842-4.842-4.254-6.426-3.892 3.892-6.562-6.562 5.25-5.25-4.978-7.602 8.145-8.146 4.979 7.602 5.475-5.475-5.023-7.648 8.146-8.146 5.023 7.648 4.073-4.073 6.562 6.562Zm-9.368 20.048-4.208-6.472-5.476 5.476 4.254 6.426 5.43-5.43Zm18.015-54.4c10.409-10.409 22.945-8.372 30.593-.724s11.721 19.414.814 30.32l-4.842 4.843.045.045-12.219 12.219-30.547-30.547 16.156-16.156Zm25.207 19.505-14.21-14.21-6.788 6.788 14.21 14.21 6.788-6.788Zm44.063-27.68-10.952-4.435-4.842 4.751 7.738 7.739-12.219 12.219-30.547-30.547 19.188-19.188c6.427-6.426 16.518-6.291 22.809 0 3.801 3.801 5.295 9.005 4.571 13.893l2.579-2.58 14.12 5.703-12.445 12.445Zm-30.457-14.346 6.517 6.517 6.109-6.11-6.517-6.517-6.109 6.11Zm15.963-32.255 12.219-12.219 30.547 30.547-12.219 12.219-30.547-30.547Zm42.545-42.545 8.598-8.598 21.27 39.824-17.559 17.559-39.462-21.632 13.576-13.576 27.651 15.251 1.222-1.222-15.296-27.606Zm47.521-30.324-14.934 14.934 2.715 2.715 13.169-13.169 8.146 8.146-13.169 13.169 2.489 2.489 14.934-14.934 8.599 8.599-27.153 27.153-30.547-30.547 27.153-27.153 8.598 8.598ZM996.071 246.391l-5.43 5.431 4.209 6.471 4.525-4.525 6.565 6.562-5.89 5.883 4.57 6.924-8.141 8.146-4.571-6.924-5.431 5.43 4.571 7.015-8.146 8.146-4.57-7.015-3.485 3.485-6.562-6.562 4.842-4.842-4.254-6.427-3.892 3.892-6.562-6.562 5.25-5.249-4.978-7.603 8.146-8.146 4.978 7.603 5.476-5.476-5.024-7.648 8.146-8.146 5.024 7.648 4.073-4.073 6.561 6.562Zm-9.367 20.048-4.209-6.471-5.476 5.476 4.254 6.426 5.431-5.431Zm18.016-54.4c10.41-10.408 22.94-8.372 30.59-.724 7.65 7.648 11.72 19.415.82 30.321l-4.85 4.842.05.046-12.22 12.218-30.547-30.547 16.157-16.156Zm25.21 19.505-14.21-14.21-6.79 6.788 14.21 14.21 6.79-6.788Zm44.06-27.68-10.95-4.435-4.85 4.752 7.74 7.739-12.22 12.218-30.54-30.547 19.18-19.188c6.43-6.426 16.52-6.29 22.81 0 3.8 3.802 5.3 9.006 4.57 13.893l2.58-2.579 14.12 5.702-12.44 12.445Zm-30.46-14.346 6.52 6.517 6.11-6.109-6.52-6.517-6.11 6.109Zm15.96-32.254 12.22-12.219 30.55 30.547-12.22 12.219-30.55-30.547Zm42.55-42.545 8.6-8.599 21.27 39.825-17.56 17.559-39.46-21.632 13.57-13.577 27.65 15.251 1.23-1.222-15.3-27.605Zm47.52-30.324-14.93 14.934 2.71 2.715 13.17-13.17 8.15 8.147-13.17 13.169 2.49 2.489 14.93-14.934 8.6 8.598-27.15 27.153-30.55-30.547 27.15-27.153 8.6 8.599ZM1215.38 27.292l-5.43 5.43 4.21 6.472 4.52-4.525 6.56 6.562-5.88 5.883 4.57 6.924-8.14 8.146-4.57-6.924-5.44 5.43 4.58 7.015-8.15 8.146-4.57-7.015-3.49 3.485-6.56-6.562 4.84-4.842-4.25-6.427-3.89 3.892-6.56-6.562 5.25-5.25-4.98-7.602 8.14-8.146 4.98 7.603 5.48-5.476-5.03-7.648 8.15-8.146 5.02 7.648 4.08-4.073 6.56 6.562Zm-9.37 20.048-4.21-6.471-5.47 5.475 4.25 6.427 5.43-5.43Zm18.02-54.4c10.4-10.408 22.94-8.372 30.59-.724 7.65 7.648 11.72 19.414.81 30.321l-4.84 4.842.05.045-12.22 12.22-30.55-30.548 16.16-16.156Zm25.2 19.505-14.21-14.21-6.79 6.788 14.21 14.21 6.79-6.788Zm44.07-27.68-10.96-4.435-4.84 4.752 7.74 7.738-12.22 12.22-30.55-30.548 19.19-19.188c6.43-6.426 16.52-6.29 22.81 0 3.8 3.802 5.3 9.006 4.57 13.893l2.58-2.58 14.12 5.703-12.44 12.445Zm-30.46-14.346 6.52 6.517 6.1-6.11-6.51-6.516-6.11 6.11Zm15.96-32.254 12.22-12.22 30.55 30.548-12.22 12.219-30.55-30.547Zm42.55-42.545 8.59-8.599 21.27 39.825-17.55 17.558-39.47-21.631 13.58-13.577 27.65 15.251 1.22-1.222-15.29-27.605Zm47.52-30.324-14.94 14.934 2.72 2.715 13.17-13.169 8.14 8.146-13.17 13.169 2.49 2.489 14.94-14.934 8.6 8.598-27.16 27.153-30.54-30.547 27.15-27.153 8.6 8.599ZM298.307 1083.05l-5.43 5.43 4.208 6.47 4.526-4.52 6.562 6.56-5.883 5.88 4.57 6.92-8.145 8.15-4.571-6.92-5.431 5.43 4.571 7.01-8.146 8.15-4.571-7.02-3.484 3.49-6.562-6.56 4.842-4.85-4.254-6.42-3.892 3.89-6.562-6.56 5.25-5.25-4.978-7.61 8.146-8.14 4.978 7.6 5.476-5.47-5.024-7.65 8.146-8.15 5.023 7.65 4.073-4.07 6.562 6.56Zm-9.367 20.05-4.209-6.47-5.476 5.47 4.254 6.43 5.431-5.43Zm18.015-54.4c10.408-10.41 22.944-8.38 30.592-.73s11.721 19.42.814 30.32l-4.842 4.85.045.04-12.218 12.22-30.547-30.55 16.156-16.15Zm25.206 19.5-14.21-14.21-6.788 6.79 14.21 14.21 6.788-6.79Zm44.063-27.68-10.952-4.43-4.842 4.75 7.738 7.74-12.218 12.22-30.547-30.55 19.188-19.19c6.426-6.43 16.518-6.29 22.808 0 3.801 3.8 5.295 9.01 4.571 13.89l2.579-2.58 14.12 5.71-12.445 12.44Zm-30.457-14.34 6.517 6.51 6.109-6.11-6.516-6.51-6.11 6.11Zm15.963-32.259 12.219-12.219 30.547 30.548-12.219 12.22-30.547-30.549Zm42.545-42.545 8.598-8.598 21.27 39.824-17.559 17.558-39.462-21.631 13.577-13.576 27.65 15.25 1.222-1.221-15.296-27.606Zm47.521-30.324-14.934 14.934 2.715 2.715 13.169-13.169 8.146 8.146-13.169 13.169 2.489 2.489 14.934-14.934 8.599 8.598-27.153 27.153-30.547-30.547 27.153-27.153 8.598 8.599ZM517.302 863.846l-5.431 5.431 4.209 6.471 4.525-4.525 6.562 6.561-5.883 5.884 4.571 6.924-8.146 8.145-4.571-6.924-5.43 5.431 4.571 7.015-8.146 8.145-4.571-7.014-3.485 3.485-6.562-6.562 4.843-4.843-4.254-6.426-3.892 3.892-6.562-6.562 5.249-5.249-4.978-7.603 8.146-8.146 4.978 7.603 5.476-5.476-5.023-7.648 8.146-8.146 5.023 7.648 4.073-4.073 6.562 6.562Zm-9.368 20.048-4.209-6.472-5.475 5.476 4.254 6.426 5.43-5.43Zm18.015-54.4c10.409-10.409 22.944-8.372 30.592-.724s11.721 19.414.815 30.321l-4.842 4.842.045.045-12.219 12.219-30.547-30.547 16.156-16.156Zm25.207 19.505-14.21-14.21-6.788 6.788 14.21 14.21 6.788-6.788Zm44.062-27.68-10.951-4.435-4.843 4.752 7.739 7.738-12.219 12.219-30.547-30.547 19.188-19.188c6.426-6.426 16.518-6.291 22.809 0 3.801 3.801 5.294 9.006 4.57 13.893l2.58-2.579 14.119 5.702-12.445 12.445Zm-30.456-14.346 6.517 6.517 6.109-6.11-6.517-6.516-6.109 6.109Zm15.963-32.255 12.219-12.218 30.547 30.547-12.219 12.218-30.547-30.547Zm42.545-42.544 8.598-8.599 21.27 39.824-17.559 17.559-39.462-21.632 13.576-13.576 27.651 15.251 1.222-1.222-15.296-27.605Zm47.521-30.325-14.934 14.934 2.715 2.716 13.169-13.17 8.146 8.146-13.169 13.169 2.489 2.489 14.934-14.934 8.598 8.599-27.153 27.153-30.547-30.547 27.153-27.153 8.599 8.598ZM736.714 644.642l-5.431 5.431 4.209 6.471 4.525-4.525 6.562 6.562-5.883 5.883 4.571 6.924-8.146 8.146-4.571-6.924-5.43 5.43 4.57 7.015-8.146 8.146-4.57-7.015-3.485 3.485-6.562-6.562 4.842-4.842-4.254-6.427-3.891 3.892-6.562-6.562 5.249-5.249-4.978-7.603 8.146-8.146 4.978 7.603 5.476-5.476-5.023-7.648 8.145-8.146 5.024 7.648 4.073-4.073 6.562 6.562Zm-9.368 20.048-4.209-6.471-5.476 5.476 4.254 6.426 5.431-5.431Zm18.015-54.4c10.408-10.408 22.944-8.372 30.592-.724s11.721 19.415.815 30.321l-4.843 4.842.046.045-12.219 12.219-30.547-30.547 16.156-16.156Zm25.207 19.505-14.21-14.21-6.789 6.788 14.211 14.21 6.788-6.788Zm44.062-27.68-10.952-4.435-4.842 4.752 7.739 7.738-12.219 12.219-30.547-30.547 19.188-19.188c6.426-6.426 16.518-6.29 22.808 0 3.802 3.802 5.295 9.006 4.571 13.893l2.58-2.579 14.119 5.702-12.445 12.445Zm-30.456-14.346 6.516 6.517 6.11-6.109-6.517-6.517-6.109 6.109Zm15.962-32.254 12.219-12.219 30.547 30.547-12.219 12.219-30.547-30.547Zm42.545-42.545 8.599-8.599 21.27 39.825-17.559 17.558-39.463-21.631 13.577-13.577 27.651 15.251 1.221-1.222-15.296-27.605Zm47.521-30.325-14.934 14.935 2.716 2.715 13.169-13.169 8.146 8.146-13.17 13.169 2.49 2.489 14.934-14.934 8.598 8.598-27.153 27.153-30.547-30.547 27.153-27.153 8.598 8.598ZM955.708 425.44l-5.431 5.43 4.209 6.472 4.526-4.526 6.561 6.562-5.883 5.884 4.571 6.924-8.146 8.145-4.571-6.924-5.43 5.431 4.571 7.014-8.146 8.146-4.571-7.014-3.485 3.484-6.562-6.561 4.843-4.843-4.254-6.426-3.892 3.892-6.562-6.562 5.249-5.25-4.978-7.602 8.146-8.146 4.978 7.603 5.476-5.476-5.023-7.648 8.146-8.146 5.023 7.648 4.073-4.073 6.562 6.562Zm-9.368 20.048-4.209-6.472-5.475 5.476 4.254 6.426 5.43-5.43Zm18.015-54.4c10.409-10.409 22.944-8.372 30.592-.724 7.653 7.648 11.723 19.414.815 30.321l-4.842 4.842.045.045-12.219 12.219-30.547-30.547 16.156-16.156Zm25.207 19.505-14.21-14.21-6.788 6.788 14.21 14.21 6.788-6.788Zm44.058-27.68-10.95-4.435-4.84 4.752 7.74 7.738-12.22 12.219-30.547-30.547 19.187-19.188c6.43-6.426 16.52-6.291 22.81 0 3.8 3.801 5.29 9.006 4.57 13.893l2.58-2.579 14.12 5.702-12.45 12.445Zm-30.45-14.346 6.51 6.517 6.11-6.11-6.51-6.516-6.11 6.109Zm15.96-32.255 12.22-12.219 30.55 30.547-12.22 12.219-30.55-30.547Zm42.55-42.545 8.59-8.598 21.27 39.824-17.56 17.559-39.46-21.632 13.58-13.576 27.65 15.251 1.22-1.222-15.29-27.606Zm47.52-30.324-14.94 14.934 2.72 2.716 13.17-13.17 8.14 8.146-13.17 13.169 2.49 2.489 14.94-14.934 8.6 8.599-27.16 27.153-30.54-30.547 27.15-27.153 8.6 8.598ZM1175.01 206.341l-5.43 5.43 4.21 6.472 4.53-4.526 6.56 6.562-5.88 5.883 4.57 6.924-8.15 8.146-4.57-6.924-5.43 5.431 4.57 7.014-8.14 8.146-4.57-7.014-3.49 3.484-6.56-6.562 4.84-4.842-4.25-6.426-3.9 3.892-6.56-6.562 5.25-5.25-4.98-7.602 8.15-8.146 4.98 7.603 5.47-5.476-5.02-7.648 8.15-8.146 5.02 7.648 4.07-4.073 6.56 6.562Zm-9.36 20.048-4.21-6.472-5.48 5.476 4.26 6.426 5.43-5.43Zm18.01-54.4c10.41-10.409 22.95-8.372 30.59-.724 7.65 7.648 11.73 19.414.82 30.321l-4.84 4.842.04.045-12.22 12.219-30.54-30.547 16.15-16.156Zm25.21 19.505-14.21-14.21-6.79 6.788 14.21 14.21 6.79-6.788Zm44.06-27.68-10.95-4.435-4.84 4.751 7.74 7.739-12.22 12.219-30.55-30.547 19.19-19.188c6.42-6.426 16.52-6.291 22.81 0 3.8 3.801 5.29 9.005 4.57 13.893l2.58-2.58 14.12 5.703-12.45 12.445Zm-30.46-14.346 6.52 6.517 6.11-6.11-6.52-6.517-6.11 6.11Zm15.97-32.255 12.22-12.219 30.54 30.547-12.22 12.219-30.54-30.547Zm42.54-42.545 8.6-8.598 21.27 39.824-17.56 17.559-39.46-21.632 13.58-13.576 27.65 15.251 1.22-1.222-15.3-27.606Zm47.52-30.324-14.93 14.934 2.72 2.715 13.16-13.169 8.15 8.146-13.17 13.17 2.49 2.488 14.93-14.934 8.6 8.599-27.15 27.153-30.55-30.547 27.16-27.153 8.59 8.598ZM1394.01-12.862l-5.43 5.43 4.21 6.472 4.52-4.525 6.57 6.562-5.89 5.883 4.57 6.924-8.14 8.146-4.57-6.924-5.43 5.43 4.57 7.015-8.15 8.146-4.57-7.015-3.48 3.485-6.57-6.562 4.85-4.843-4.26-6.426-3.89 3.892-6.56-6.562 5.25-5.25-4.98-7.602 8.15-8.146 4.97 7.603 5.48-5.476-5.02-7.648 8.14-8.146 5.02 7.648 4.08-4.073 6.56 6.562Zm-9.37 20.048-4.21-6.471-5.47 5.475 4.25 6.427 5.43-5.43Zm18.02-54.4c10.41-10.408 22.94-8.372 30.59-.724 7.65 7.648 11.72 19.415.81 30.32l-4.84 4.843.05.045-12.22 12.22-30.55-30.548 16.16-16.156Zm25.2 19.505-14.21-14.21-6.78 6.788 14.21 14.21 6.78-6.788Zm44.07-27.68-10.96-4.435-4.84 4.752 7.74 7.738-12.22 12.22-30.55-30.548 19.19-19.188c6.43-6.426 16.52-6.29 22.81 0 3.8 3.801 5.3 9.006 4.57 13.893l2.58-2.58 14.12 5.703-12.44 12.445Zm-30.46-14.346 6.52 6.517 6.11-6.11-6.52-6.516-6.11 6.11Zm15.96-32.254 12.22-12.219 30.55 30.547-12.22 12.219-30.55-30.547Zm42.55-42.545 8.6-8.599 21.27 39.825-17.56 17.558-39.47-21.631 13.58-13.577 27.65 15.251 1.22-1.222-15.29-27.605Zm47.52-30.325-14.94 14.935 2.72 2.715 13.17-13.169 8.14 8.146-13.16 13.169 2.48 2.489 14.94-14.934 8.6 8.598-27.16 27.153-30.54-30.547 27.15-27.153 8.6 8.598ZM477.356 1042.68l-5.431 5.44 4.209 6.47 4.525-4.53 6.562 6.56-5.883 5.89 4.571 6.92-8.146 8.15-4.571-6.93-5.43 5.43 4.571 7.02-8.146 8.14-4.571-7.01-3.485 3.48-6.562-6.56 4.843-4.84-4.254-6.43-3.892 3.89-6.562-6.56 5.249-5.25-4.978-7.6 8.146-8.15 4.978 7.61 5.476-5.48-5.023-7.65 8.146-8.14 5.023 7.65 4.073-4.08 6.562 6.56Zm-9.368 20.05-4.209-6.47-5.475 5.48 4.254 6.42 5.43-5.43Zm18.015-54.4c10.409-10.406 22.944-8.369 30.592-.72 7.648 7.65 11.721 19.41.815 30.32l-4.842 4.84.045.05-12.219 12.22-30.547-30.55 16.156-16.16Zm25.207 19.51L497 1013.63l-6.788 6.79 14.21 14.21 6.788-6.79Zm44.062-27.68-10.951-4.437-4.843 4.747 7.739 7.74-12.219 12.22-30.547-30.545 19.188-19.188c6.426-6.426 16.518-6.291 22.809 0 3.801 3.801 5.294 9.005 4.57 13.893l2.58-2.58 14.119 5.703-12.445 12.447Zm-30.456-14.348 6.516 6.517 6.11-6.11-6.517-6.517-6.109 6.11Zm15.963-32.255 12.219-12.219 30.547 30.547-12.219 12.219-30.547-30.547Zm42.545-42.545 8.598-8.598 21.27 39.824-17.559 17.559-39.462-21.632 13.576-13.576 27.651 15.251 1.222-1.222-15.296-27.606Zm47.521-30.324-14.934 14.934 2.715 2.715 13.169-13.169 8.146 8.146-13.169 13.169 2.489 2.489 14.934-14.934 8.598 8.599-27.153 27.153-30.547-30.547 27.153-27.153 8.599 8.598ZM696.35 823.482l-5.43 5.431 4.208 6.471 4.526-4.525 6.562 6.562-5.883 5.883 4.571 6.924-8.146 8.146-4.571-6.924-5.431 5.43 4.571 7.015-8.146 8.146-4.571-7.015-3.484 3.485-6.562-6.562 4.842-4.842-4.254-6.427-3.892 3.892-6.562-6.562 5.25-5.249-4.978-7.603 8.146-8.146 4.978 7.603 5.476-5.476-5.024-7.648 8.146-8.146 5.023 7.648 4.073-4.073 6.562 6.562Zm-9.367 20.048-4.209-6.471-5.476 5.475 4.254 6.427 5.431-5.431Zm18.015-54.4c10.408-10.408 22.944-8.372 30.592-.724s11.721 19.414.814 30.321l-4.842 4.842.045.045-12.218 12.219-30.547-30.547 16.156-16.156Zm25.207 19.505-14.211-14.21-6.788 6.788 14.21 14.21 6.789-6.788Zm44.062-27.68-10.952-4.435-4.842 4.752 7.738 7.738-12.218 12.219-30.547-30.547 19.188-19.188c6.426-6.426 16.518-6.29 22.808 0 3.802 3.802 5.295 9.006 4.571 13.893l2.579-2.579 14.12 5.702-12.445 12.445Zm-30.457-14.346 6.517 6.517 6.109-6.109-6.516-6.517-6.11 6.109Zm15.963-32.254 12.219-12.219 30.547 30.547-12.219 12.219-30.547-30.547Zm42.545-42.545 8.599-8.599 21.269 39.825-17.559 17.558-39.462-21.631 13.577-13.577 27.65 15.251 1.222-1.222-15.296-27.605Zm47.521-30.325-14.934 14.935 2.715 2.715 13.17-13.169 8.145 8.146-13.169 13.169 2.489 2.489 14.934-14.934 8.599 8.598-27.153 27.153-30.547-30.547 27.153-27.153 8.598 8.598ZM915.762 604.279l-5.43 5.43 4.208 6.472 4.526-4.526 6.562 6.562-5.883 5.883 4.57 6.924-8.146 8.146-4.57-6.924-5.431 5.431 4.571 7.014-8.146 8.146-4.571-7.015-3.484 3.485-6.562-6.562 4.842-4.842-4.254-6.426-3.892 3.892-6.562-6.562 5.25-5.25-4.978-7.603 8.145-8.146 4.979 7.603 5.475-5.476-5.023-7.648 8.146-8.146 5.023 7.649 4.073-4.073 6.562 6.562Zm-9.368 20.047-4.208-6.471-5.476 5.476 4.254 6.426 5.43-5.431Zm18.015-54.399c10.409-10.409 22.945-8.373 30.593-.725 7.648 7.649 11.721 19.415.814 30.321l-4.842 4.843.045.045L938.8 616.63l-30.547-30.547 16.156-16.156Zm25.207 19.504-14.21-14.21-6.788 6.789 14.21 14.21 6.788-6.789Zm44.063-27.68-10.952-4.435-4.842 4.752 7.738 7.739-12.219 12.219-30.547-30.547 19.188-19.189c6.427-6.426 16.518-6.29 22.809 0 3.801 3.802 5.295 9.006 4.571 13.894l2.579-2.58 14.116 5.702-12.441 12.445Zm-30.457-14.345 6.517 6.516 6.109-6.109-6.517-6.517-6.109 6.11Zm15.963-32.255 12.219-12.219 30.546 30.547-12.22 12.219-30.545-30.547Zm42.545-42.545 8.6-8.598 21.27 39.824-17.56 17.559-39.463-21.632 13.573-13.576 27.65 15.25 1.23-1.221-15.3-27.606Zm47.52-30.324-14.93 14.934 2.71 2.715 13.17-13.169 8.15 8.146-13.17 13.169 2.49 2.489 14.93-14.934 8.6 8.598-27.15 27.153-30.55-30.547 27.15-27.153 8.6 8.599ZM1134.76 385.076l-5.43 5.431 4.2 6.471 4.53-4.525 6.56 6.562-5.88 5.883 4.57 6.924-8.15 8.146-4.57-6.924-5.43 5.43 4.57 7.015-8.14 8.146-4.57-7.015-3.49 3.485-6.56-6.562 4.84-4.843-4.25-6.426-3.89 3.892-6.57-6.562 5.25-5.249-4.97-7.603 8.14-8.146 4.98 7.603 5.48-5.476-5.03-7.648 8.15-8.146 5.02 7.648 4.07-4.073 6.57 6.562Zm-9.37 20.048-4.21-6.471-5.48 5.475 4.26 6.427 5.43-5.431Zm18.01-54.4c10.41-10.408 22.95-8.372 30.6-.724 7.64 7.648 11.72 19.414.81 30.321l-4.84 4.842.04.045-12.22 12.219-30.54-30.547 16.15-16.156Zm25.21 19.505-14.21-14.21-6.79 6.788 14.21 14.21 6.79-6.788Zm44.06-27.68-10.95-4.435-4.84 4.752 7.74 7.738-12.22 12.219-30.55-30.547 19.19-19.188c6.43-6.426 16.52-6.29 22.81 0 3.8 3.801 5.29 9.006 4.57 13.893l2.58-2.579 14.12 5.702-12.45 12.445Zm-30.45-14.346 6.51 6.517 6.11-6.11-6.51-6.516-6.11 6.109Zm15.96-32.254 12.22-12.219 30.55 30.547-12.22 12.219-30.55-30.547Zm42.54-42.545 8.6-8.599 21.27 39.825-17.56 17.558-39.46-21.631 13.58-13.577 27.65 15.251 1.22-1.222-15.3-27.605Zm47.53-30.325-14.94 14.934 2.72 2.716 13.17-13.169 8.14 8.145-13.17 13.17 2.49 2.489 14.94-14.934 8.59 8.598-27.15 27.153-30.55-30.547 27.16-27.153 8.6 8.598ZM1354.06 165.977l-5.43 5.431 4.21 6.471 4.53-4.525 6.56 6.562-5.88 5.883 4.57 6.924-8.15 8.146-4.57-6.924-5.43 5.43 4.57 7.015-8.15 8.146-4.57-7.015-3.48 3.485-6.56-6.562 4.84-4.842-4.25-6.427-3.9 3.892-6.56-6.562 5.25-5.249-4.98-7.603 8.15-8.146 4.98 7.603 5.47-5.476-5.02-7.648 8.15-8.146 5.02 7.648 4.07-4.073 6.56 6.562Zm-9.36 20.048-4.21-6.471-5.48 5.476 4.26 6.426 5.43-5.431Zm18.01-54.4c10.41-10.408 22.94-8.372 30.59-.724 7.65 7.648 11.72 19.415.82 30.321l-4.84 4.842.04.045-12.22 12.219-30.55-30.547 16.16-16.156Zm25.21 19.505-14.21-14.21-6.79 6.788 14.21 14.21 6.79-6.788Zm44.06-27.68-10.95-4.435-4.84 4.752 7.73 7.738-12.21 12.219-30.55-30.547 19.19-19.188c6.42-6.426 16.51-6.29 22.81 0 3.8 3.802 5.29 9.006 4.57 13.893l2.58-2.579 14.11 5.702-12.44 12.445Zm-30.46-14.346 6.52 6.517 6.11-6.109-6.52-6.517-6.11 6.109Zm15.97-32.254 12.22-12.22 30.54 30.548-12.22 12.219-30.54-30.547Zm42.54-42.545 8.6-8.599 21.27 39.825-17.56 17.558-39.46-21.631 13.57-13.577 27.66 15.251 1.22-1.222-15.3-27.605Zm47.52-30.324-14.93 14.934 2.71 2.715 13.17-13.17 8.15 8.147-13.17 13.169 2.49 2.489 14.93-14.934 8.6 8.598-27.15 27.153-30.55-30.547 27.15-27.153 8.6 8.599ZM655.987 1002.53l-5.431 5.43 4.209 6.47 4.525-4.52 6.562 6.56-5.883 5.88 4.571 6.93-8.146 8.14-4.571-6.92-5.43 5.43 4.57 7.01-8.146 8.15-4.57-7.02-3.485 3.49-6.562-6.56 4.842-4.84-4.254-6.43-3.891 3.89-6.562-6.56 5.249-5.25-4.978-7.6 8.146-8.15 4.978 7.6 5.476-5.47-5.023-7.65 8.145-8.146 5.024 7.646 4.073-4.071 6.562 6.561Zm-9.368 20.05-4.209-6.47-5.476 5.47 4.254 6.43 5.431-5.43Zm18.015-54.401c10.408-10.409 22.944-8.372 30.592-.724s11.721 19.414.815 30.32l-4.843 4.845.046.04-12.219 12.22-30.547-30.545 16.156-16.156Zm25.207 19.505-14.21-14.21-6.788 6.788 14.21 14.21 6.788-6.788Zm44.062-27.68-10.952-4.435-4.842 4.751 7.739 7.739-12.219 12.219-30.547-30.547 19.188-19.188c6.426-6.426 16.518-6.291 22.808 0 3.802 3.801 5.295 9.005 4.571 13.893l2.58-2.58 14.119 5.703-12.445 12.445Zm-30.456-14.346 6.516 6.517 6.11-6.11-6.517-6.517-6.109 6.11Zm15.963-32.255 12.218-12.219 30.547 30.547-12.218 12.219-30.547-30.547Zm42.544-42.545 8.599-8.598 21.27 39.824-17.559 17.559-39.463-21.632 13.577-13.576 27.651 15.251 1.221-1.222-15.296-27.606Zm47.521-30.324-14.934 14.934 2.716 2.715 13.169-13.169 8.146 8.146-13.169 13.169 2.489 2.489 14.934-14.934 8.598 8.599-27.153 27.153-30.547-30.547 27.153-27.153 8.598 8.598ZM875.398 783.327l-5.431 5.431 4.209 6.471 4.525-4.526 6.562 6.562-5.883 5.884 4.571 6.924-8.146 8.145-4.571-6.924-5.43 5.431 4.57 7.014-8.145 8.146-4.571-7.014-3.485 3.484-6.562-6.561 4.843-4.843-4.254-6.426-3.892 3.892-6.562-6.562 5.249-5.25-4.978-7.602 8.146-8.146 4.978 7.603 5.476-5.476-5.023-7.648 8.146-8.146 5.023 7.648 4.073-4.073 6.562 6.562Zm-9.368 20.048-4.209-6.472-5.476 5.476 4.254 6.426 5.431-5.43Zm18.015-54.4c10.409-10.409 22.944-8.372 30.592-.724s11.721 19.414.815 30.321l-4.842 4.842.045.045-12.219 12.219-30.547-30.547 16.156-16.156Zm25.207 19.505-14.21-14.21-6.788 6.788 14.21 14.21 6.788-6.788Zm44.062-27.68-10.951-4.435-4.843 4.752 7.739 7.738-12.219 12.219-30.547-30.547 19.188-19.188c6.426-6.426 16.518-6.291 22.808 0 3.802 3.801 5.295 9.006 4.571 13.893l2.58-2.579 14.119 5.702-12.445 12.445Zm-30.456-14.346 6.516 6.517 6.11-6.11-6.517-6.516-6.109 6.109Zm15.963-32.255 12.218-12.218 30.547 30.547-12.218 12.218-30.547-30.547Zm42.544-42.545 8.599-8.598 21.266 39.824-17.555 17.559-39.462-21.632 13.576-13.576 27.651 15.251 1.222-1.222-15.297-27.606Zm47.525-30.324-14.94 14.934 2.72 2.716 13.17-13.17 8.14 8.146-13.17 13.169 2.49 2.489 14.94-14.934 8.6 8.599-27.16 27.153-30.545-30.547 27.155-27.153 8.6 8.598ZM1094.39 564.125l-5.43 5.43 4.21 6.472 4.53-4.526 6.56 6.562-5.88 5.883 4.57 6.924-8.15 8.146-4.57-6.924-5.43 5.431 4.57 7.014-8.15 8.146-4.57-7.014-3.48 3.484-6.56-6.562 4.84-4.842-4.26-6.426-3.89 3.892-6.56-6.562 5.25-5.25-4.98-7.603 8.15-8.145 4.98 7.602 5.47-5.475-5.02-7.648 8.14-8.146 5.03 7.648 4.07-4.073 6.56 6.562Zm-9.37 20.048-4.2-6.472-5.48 5.476 4.25 6.426 5.43-5.43Zm18.02-54.4c10.41-10.409 22.94-8.372 30.59-.724 7.65 7.648 11.72 19.414.82 30.32l-4.85 4.843.05.045-12.22 12.219-30.55-30.547 16.16-16.156Zm25.21 19.505-14.21-14.21-6.79 6.788 14.21 14.21 6.79-6.788Zm44.06-27.68-10.95-4.435-4.84 4.751 7.73 7.739-12.22 12.219-30.54-30.547 19.19-19.188c6.42-6.427 16.51-6.291 22.8 0 3.81 3.801 5.3 9.005 4.58 13.893l2.57-2.58 14.12 5.702-12.44 12.446Zm-30.46-14.346 6.52 6.516 6.11-6.109-6.52-6.517-6.11 6.11Zm15.97-32.255 12.21-12.219 30.55 30.547-12.22 12.219-30.54-30.547Zm42.54-42.545 8.6-8.598 21.27 39.824-17.56 17.559-39.46-21.632 13.57-13.576 27.65 15.251 1.23-1.222-15.3-27.606Zm47.52-30.324-14.93 14.934 2.71 2.715 13.17-13.169 8.15 8.146-13.17 13.169 2.49 2.489 14.93-14.934 8.6 8.599-27.15 27.152-30.55-30.547 27.15-27.152 8.6 8.598ZM1313.7 345.025l-5.43 5.431 4.21 6.471 4.52-4.525 6.56 6.562-5.88 5.883 4.57 6.924-8.14 8.146-4.57-6.924-5.43 5.43 4.57 7.015-8.15 8.146-4.57-7.015-3.49 3.485-6.56-6.562 4.85-4.842-4.26-6.427-3.89 3.892-6.56-6.562 5.25-5.249-4.98-7.603 8.14-8.146 4.98 7.603 5.48-5.476-5.02-7.648 8.14-8.146 5.02 7.648 4.08-4.073 6.56 6.562Zm-9.37 20.048-4.21-6.471-5.47 5.475 4.25 6.427 5.43-5.431Zm18.02-54.4c10.41-10.408 22.94-8.372 30.59-.724 7.65 7.648 11.72 19.414.81 30.321l-4.84 4.842.05.045-12.22 12.219-30.55-30.547 16.16-16.156Zm25.2 19.505-14.21-14.21-6.78 6.788 14.21 14.21 6.78-6.788Zm44.07-27.68-10.96-4.435-4.84 4.752 7.74 7.738-12.22 12.219-30.55-30.547 19.19-19.188c6.43-6.426 16.52-6.29 22.81 0 3.8 3.802 5.3 9.006 4.57 13.893l2.58-2.579 14.12 5.702-12.44 12.445Zm-30.46-14.346 6.52 6.517 6.11-6.109-6.52-6.517-6.11 6.109Zm15.96-32.254 12.22-12.219 30.55 30.547-12.22 12.219-30.55-30.547Zm42.55-42.545 8.6-8.599 21.27 39.825-17.56 17.558-39.47-21.631 13.58-13.577 27.65 15.251 1.22-1.222-15.29-27.605Zm47.52-30.325-14.94 14.935 2.72 2.715 13.17-13.169 8.14 8.146-13.16 13.169 2.48 2.489 14.94-14.934 8.6 8.598-27.16 27.153-30.54-30.547 27.15-27.153 8.6 8.598ZM1532.69 125.823l-5.43 5.431 4.21 6.471 4.53-4.525 6.56 6.561-5.88 5.884 4.57 6.924-8.15 8.145-4.57-6.924-5.43 5.431 4.57 7.015-8.14 8.145-4.58-7.014-3.48 3.485-6.56-6.562 4.84-4.843-4.25-6.426-3.9 3.892-6.56-6.562 5.25-5.249-4.98-7.603 8.15-8.146 4.98 7.603 5.47-5.476-5.02-7.648 8.15-8.146 5.02 7.648 4.07-4.073 6.56 6.562Zm-9.36 20.048-4.21-6.472-5.48 5.476 4.26 6.426 5.43-5.43Zm18.01-54.4c10.41-10.409 22.95-8.372 30.59-.724 7.65 7.648 11.72 19.414.82 30.321l-4.84 4.842.04.045-12.22 12.219-30.54-30.547 16.15-16.156Zm25.21 19.505-14.21-14.21-6.79 6.788 14.21 14.21 6.79-6.788Zm44.06-27.68-10.95-4.435-4.84 4.752 7.74 7.738-12.22 12.219-30.55-30.547 19.19-19.188c6.42-6.426 16.52-6.29 22.81 0 3.8 3.801 5.29 9.006 4.57 13.893l2.58-2.58 14.12 5.703-12.45 12.445Zm-30.46-14.346 6.52 6.517 6.11-6.11-6.52-6.516-6.11 6.109Zm15.97-32.255 12.22-12.218 30.54 30.546-12.22 12.22-30.54-30.548Zm42.54-42.545 8.6-8.598 21.27 39.824-17.56 17.56-39.46-21.633 13.58-13.576 27.65 15.25 1.22-1.221-15.3-27.606Zm47.52-30.324-14.93 14.934 2.71 2.716 13.17-13.17 8.15 8.146-13.17 13.17 2.49 2.488 14.93-14.934 8.6 8.599-27.15 27.153-30.55-30.547 27.15-27.153 8.6 8.598ZM835.035 962.167l-5.43 5.431 4.208 6.471 4.526-4.525 6.562 6.562-5.883 5.883 4.57 6.924-8.146 8.145-4.57-6.923-5.431 5.43 4.571 7.015-8.146 8.15-4.571-7.02-3.484 3.49-6.562-6.57 4.842-4.839-4.254-6.426-3.892 3.892-6.562-6.562 5.25-5.249-4.978-7.603 8.146-8.146 4.978 7.603 5.475-5.476-5.023-7.648 8.146-8.146 5.023 7.648 4.073-4.073 6.562 6.562Zm-9.368 20.048-4.208-6.472-5.476 5.476 4.254 6.426 5.43-5.43Zm18.015-54.4c10.409-10.409 22.945-8.372 30.593-.724s11.721 19.414.814 30.321l-4.842 4.842.045.045-12.219 12.219-30.547-30.547 16.156-16.156Zm25.207 19.505-14.21-14.21-6.788 6.788 14.21 14.21 6.788-6.788Zm44.063-27.68L902 915.205l-4.842 4.752 7.738 7.738-12.219 12.219-30.547-30.547 19.188-19.188c6.427-6.426 16.519-6.29 22.809 0 3.801 3.801 5.295 9.006 4.571 13.893l2.579-2.579 14.12 5.702-12.445 12.445Zm-30.457-14.346 6.517 6.517 6.109-6.11-6.516-6.516-6.11 6.109Zm15.963-32.255 12.219-12.218 30.547 30.547-12.219 12.218-30.547-30.547Zm42.545-42.544 8.598-8.599 21.27 39.824-17.559 17.559-39.462-21.632 13.576-13.576 27.651 15.251 1.222-1.222-15.296-27.605Zm47.521-30.325-14.934 14.934 2.715 2.716 13.169-13.169 8.146 8.145-13.169 13.17 2.489 2.489 14.93-14.935 8.6 8.599-27.15 27.153-30.547-30.547 27.153-27.153 8.598 8.598ZM1054.45 742.963l-5.43 5.431 4.2 6.471 4.53-4.525 6.56 6.562-5.88 5.883 4.57 6.924-8.15 8.146-4.57-6.924-5.43 5.43 4.57 7.015-8.14 8.146-4.57-7.015-3.49 3.485-6.56-6.562 4.84-4.842-4.25-6.427-3.89 3.892-6.57-6.562 5.25-5.249-4.97-7.603 8.14-8.146 4.98 7.603 5.48-5.476-5.03-7.648 8.15-8.146 5.02 7.648 4.07-4.073 6.57 6.562Zm-9.37 20.048-4.21-6.471-5.48 5.476 4.26 6.426 5.43-5.431Zm18.01-54.4c10.41-10.408 22.95-8.372 30.6-.724 7.64 7.648 11.72 19.415.81 30.321l-4.84 4.842.04.046-12.22 12.218-30.54-30.547 16.15-16.156Zm25.21 19.505-14.21-14.21-6.79 6.788 14.21 14.21 6.79-6.788Zm44.06-27.68-10.95-4.435-4.84 4.752 7.74 7.739-12.22 12.218-30.55-30.547 19.19-19.188c6.43-6.426 16.52-6.29 22.81 0 3.8 3.802 5.29 9.006 4.57 13.894l2.58-2.58 14.12 5.702-12.45 12.445Zm-30.45-14.346 6.51 6.517 6.11-6.109-6.51-6.517-6.11 6.109Zm15.96-32.254 12.22-12.219 30.55 30.547-12.22 12.219-30.55-30.547Zm42.54-42.545 8.6-8.599 21.27 39.825-17.56 17.559-39.46-21.632 13.58-13.577 27.65 15.251 1.22-1.222-15.3-27.605Zm47.53-30.324L1193 595.901l2.72 2.715 13.17-13.169 8.14 8.146-13.17 13.169 2.49 2.489 14.94-14.934 8.59 8.598-27.15 27.153-30.55-30.547 27.16-27.153 8.6 8.599ZM1273.44 523.761l-5.43 5.431 4.21 6.471 4.52-4.526 6.57 6.562-5.89 5.884 4.57 6.924-8.14 8.145-4.57-6.924-5.43 5.431 4.57 7.015-8.15 8.145-4.57-7.014-3.48 3.485-6.57-6.562 4.85-4.843-4.26-6.426-3.89 3.892-6.56-6.562 5.25-5.249-4.98-7.603 8.15-8.146 4.97 7.603 5.48-5.476-5.02-7.648 8.14-8.146 5.03 7.648 4.07-4.073 6.56 6.562Zm-9.37 20.048-4.21-6.472-5.47 5.476 4.25 6.426 5.43-5.43Zm18.02-54.4c10.41-10.409 22.94-8.372 30.59-.724 7.65 7.648 11.72 19.414.82 30.321l-4.85 4.842.05.045-12.22 12.219-30.55-30.547 16.16-16.156Zm25.21 19.505-14.21-14.21-6.79 6.788 14.21 14.21 6.79-6.788Zm44.06-27.68-10.95-4.435-4.85 4.752 7.74 7.738-12.22 12.219-30.54-30.547 19.18-19.188c6.43-6.426 16.52-6.291 22.81 0 3.8 3.801 5.3 9.006 4.57 13.893l2.58-2.579 14.12 5.702-12.44 12.445Zm-30.46-14.346 6.52 6.517 6.11-6.11-6.52-6.516-6.11 6.109Zm15.96-32.255 12.22-12.218 30.55 30.547-12.22 12.218-30.55-30.547Zm42.55-42.545 8.6-8.598 21.27 39.824-17.56 17.559-39.46-21.632 13.57-13.576 27.65 15.251 1.23-1.222-15.3-27.606Zm47.52-30.324L1412 376.698l2.71 2.716 13.17-13.17 8.15 8.146-13.17 13.169 2.49 2.489 14.93-14.934 8.6 8.599-27.15 27.153-30.55-30.547 27.15-27.153 8.6 8.598ZM1492.75 304.662l-5.43 5.43 4.21 6.472 4.52-4.526 6.56 6.562-5.88 5.883 4.57 6.924-8.14 8.146-4.58-6.924-5.43 5.431 4.57 7.014-8.14 8.146-4.57-7.014-3.49 3.484-6.56-6.562 4.84-4.842-4.25-6.426-3.89 3.892-6.56-6.562 5.25-5.25-4.98-7.602 8.14-8.146 4.98 7.603 5.48-5.476-5.03-7.648 8.15-8.146 5.02 7.648 4.08-4.073 6.56 6.562Zm-9.37 20.048-4.21-6.472-5.47 5.476 4.25 6.426 5.43-5.43Zm18.02-54.4c10.4-10.409 22.94-8.372 30.59-.724 7.65 7.648 11.72 19.414.81 30.321l-4.84 4.842.04.045-12.21 12.219-30.55-30.547 16.16-16.156Zm25.2 19.505-14.21-14.21-6.79 6.788 14.21 14.21 6.79-6.788Zm44.06-27.68-10.95-4.435-4.84 4.751 7.74 7.739-12.22 12.219-30.55-30.547 19.19-19.188c6.43-6.426 16.52-6.291 22.81 0 3.8 3.801 5.29 9.005 4.57 13.893l2.58-2.58 14.12 5.703-12.45 12.445Zm-30.45-14.346 6.51 6.517 6.11-6.11-6.51-6.517-6.11 6.11Zm15.96-32.255 12.22-12.219 30.55 30.547-12.22 12.219-30.55-30.547Zm42.55-42.545 8.59-8.598 21.27 39.824-17.56 17.559-39.46-21.632 13.58-13.576 27.65 15.251 1.22-1.222-15.29-27.606Zm47.52-30.324-14.94 14.934 2.72 2.715 13.17-13.169 8.14 8.146-13.17 13.169 2.49 2.489 14.94-14.934 8.6 8.599-27.16 27.153-30.54-30.547 27.15-27.153 8.6 8.598ZM1711.74 85.46l-5.43 5.43 4.21 6.471 4.53-4.525 6.56 6.562-5.88 5.883 4.57 6.924-8.15 8.146-4.57-6.924-5.43 5.43 4.57 7.015-8.15 8.146-4.57-7.015-3.48 3.485-6.56-6.562 4.84-4.842-4.26-6.427-3.89 3.892-6.56-6.562 5.25-5.249-4.98-7.603 8.15-8.146 4.98 7.603 5.47-5.476-5.02-7.648 8.14-8.146 5.03 7.648 4.07-4.073 6.56 6.562Zm-9.36 20.047-4.21-6.471-5.48 5.475 4.25 6.427 5.44-5.431Zm18.01-54.4c10.41-10.408 22.94-8.372 30.59-.724 7.65 7.648 11.72 19.414.82 30.32l-4.85 4.843.05.045-12.22 12.22-30.55-30.548 16.16-16.156Zm25.21 19.505-14.21-14.21-6.79 6.788 14.21 14.21 6.79-6.788Zm44.06-27.68-10.95-4.435-4.84 4.752 7.73 7.738-12.21 12.22-30.55-30.548 19.19-19.188c6.42-6.426 16.51-6.29 22.8 0 3.81 3.802 5.3 9.006 4.58 13.893l2.57-2.58 14.12 5.703-12.44 12.445Zm-30.46-14.346 6.52 6.517 6.11-6.11-6.52-6.516-6.11 6.11Zm15.97-32.254 12.21-12.22 30.55 30.548-12.22 12.219-30.54-30.547Zm42.54-42.545 8.6-8.599 21.27 39.825-17.56 17.558-39.46-21.631 13.57-13.577 27.65 15.251 1.23-1.222-15.3-27.605Zm47.52-30.325-14.93 14.934 2.71 2.716 13.17-13.17 8.15 8.147-13.17 13.169 2.49 2.489 14.93-14.934 8.6 8.598-27.15 27.153-30.55-30.547 27.15-27.153 8.6 8.598ZM1014.08 922.012l-5.43 5.431 4.21 6.471 4.53-4.525 6.56 6.561-5.88 5.884 4.57 6.924-8.15 8.145-4.57-6.924-5.43 5.431 4.57 7.015-8.15 8.145-4.567-7.014-3.484 3.485-6.562-6.562 4.842-4.843-4.254-6.426-3.892 3.892-6.562-6.562 5.25-5.249-4.978-7.603 8.145-8.146 4.978 7.603 5.476-5.476-5.023-7.648 8.146-8.146 5.025 7.648 4.07-4.073 6.56 6.562Zm-9.36 20.048-4.21-6.472-5.479 5.476 4.254 6.426 5.435-5.43Zm18.01-54.4c10.41-10.409 22.94-8.372 30.59-.724 7.65 7.648 11.72 19.414.82 30.321l-4.85 4.842.05.045-12.22 12.219-30.55-30.547 16.16-16.156Zm25.21 19.505-14.21-14.21-6.79 6.788 14.21 14.21 6.79-6.788Zm44.06-27.68-10.95-4.435-4.84 4.752 7.73 7.738-12.21 12.219-30.55-30.547 19.19-19.188c6.42-6.426 16.51-6.29 22.8 0 3.81 3.801 5.3 9.006 4.58 13.893l2.58-2.579 14.11 5.702-12.44 12.445Zm-30.46-14.346 6.52 6.517 6.11-6.11-6.52-6.516-6.11 6.109Zm15.97-32.255 12.21-12.218 30.55 30.547-12.22 12.218-30.54-30.547Zm42.54-42.544 8.6-8.599 21.27 39.824-17.56 17.559-39.46-21.632 13.57-13.576 27.66 15.251 1.22-1.222-15.3-27.605Zm47.52-30.325-14.93 14.934 2.71 2.716 13.17-13.17 8.15 8.146-13.17 13.169 2.49 2.49 14.93-14.935 8.6 8.599-27.15 27.153-30.55-30.547 27.15-27.153 8.6 8.598ZM1233.08 702.81l-5.43 5.43 4.21 6.472 4.52-4.526 6.56 6.562-5.88 5.883 4.57 6.924-8.15 8.146-4.57-6.924-5.43 5.431 4.57 7.014-8.14 8.146-4.57-7.014-3.49 3.484-6.56-6.562 4.84-4.842-4.25-6.426-3.89 3.892-6.56-6.562 5.25-5.25-4.98-7.602 8.14-8.146 4.98 7.602 5.48-5.475-5.03-7.648 8.15-8.146 5.02 7.648 4.08-4.073 6.56 6.562Zm-9.37 20.048-4.21-6.472-5.47 5.476 4.25 6.426 5.43-5.43Zm18.01-54.4c10.41-10.409 22.95-8.372 30.6-.724 7.65 7.648 11.72 19.414.81 30.32l-4.84 4.843.04.045-12.21 12.219-30.55-30.547 16.15-16.156Zm25.21 19.505-14.21-14.21-6.79 6.788 14.21 14.21 6.79-6.788Zm44.06-27.68-10.95-4.435-4.84 4.751 7.74 7.739-12.22 12.219-30.55-30.547 19.19-19.188c6.43-6.426 16.52-6.291 22.81 0 3.8 3.801 5.29 9.005 4.57 13.893l2.58-2.58 14.12 5.703-12.45 12.445Zm-30.45-14.346 6.51 6.517 6.11-6.11-6.51-6.517-6.11 6.11Zm15.96-32.255 12.22-12.219 30.55 30.547-12.22 12.219-30.55-30.547Zm42.55-42.545 8.59-8.598 21.27 39.824-17.56 17.559-39.46-21.632 13.58-13.576 27.65 15.251 1.22-1.222-15.29-27.606Zm47.52-30.324-14.94 14.934 2.72 2.715 13.17-13.169 8.14 8.146-13.17 13.169 2.49 2.489 14.94-14.934 8.59 8.599-27.15 27.153-30.54-30.547 27.15-27.153 8.6 8.598ZM1890.79 45.304l-5.43 5.431 4.21 6.471 4.52-4.525 6.57 6.562-5.89 5.883 4.57 6.924-8.14 8.146-4.57-6.924-5.43 5.43 4.57 7.015-8.15 8.146-4.57-7.015-3.48 3.485-6.57-6.562 4.85-4.842-4.26-6.426-3.89 3.891-6.56-6.561 5.25-5.25-4.98-7.603 8.15-8.146 4.97 7.603 5.48-5.476-5.02-7.648 8.14-8.146 5.03 7.648 4.07-4.072 6.56 6.561Zm-9.37 20.048-4.21-6.471-5.47 5.476 4.25 6.426 5.43-5.43Zm18.02-54.4c10.41-10.408 22.94-8.372 30.59-.724 7.65 7.649 11.72 19.415.81 30.321l-4.84 4.842.05.046-12.22 12.219-30.55-30.547 16.16-16.157Zm25.2 19.505-14.21-14.21-6.78 6.788 14.21 14.21 6.78-6.788Zm44.07-27.68-10.95-4.435-4.85 4.752 7.74 7.739-12.22 12.218-30.54-30.547 19.18-19.188c6.43-6.426 16.52-6.29 22.81 0 3.8 3.802 5.3 9.006 4.57 13.894l2.58-2.58 14.12 5.702-12.44 12.445Zm-30.46-14.346 6.52 6.517 6.11-6.11-6.52-6.516-6.11 6.11Zm15.96-32.254 12.22-12.219 30.55 30.547-12.22 12.219-30.55-30.547Zm42.55-42.545 8.6-8.599 21.27 39.825-17.56 17.559-39.46-21.632 13.57-13.577 27.65 15.251 1.22-1.222-15.29-27.605Zm47.52-30.324-14.93 14.934 2.71 2.715 13.17-13.169 8.15 8.146-13.17 13.169 2.49 2.489 14.93-14.934 8.6 8.598-27.15 27.153-30.55-30.547 27.15-27.153 8.6 8.599ZM1452.38 483.711l-5.43 5.43 4.21 6.472 4.53-4.526 6.56 6.562-5.88 5.883 4.57 6.924-8.15 8.146-4.57-6.924-5.43 5.431 4.57 7.014-8.14 8.146-4.58-7.014-3.48 3.484-6.56-6.562 4.84-4.842-4.25-6.426-3.9 3.892-6.56-6.562 5.25-5.25-4.98-7.603 8.15-8.146 4.98 7.603 5.47-5.476-5.02-7.648 8.15-8.145 5.02 7.648 4.07-4.073 6.56 6.562Zm-9.36 20.047-4.21-6.471-5.48 5.476 4.26 6.426 5.43-5.431Zm18.01-54.399c10.41-10.409 22.95-8.372 30.59-.724 7.65 7.648 11.73 19.414.82 30.32l-4.84 4.843.04.045-12.22 12.219-30.54-30.547 16.15-16.156Zm25.21 19.504-14.21-14.21-6.79 6.789 14.21 14.21 6.79-6.789Zm44.06-27.68-10.95-4.435-4.84 4.752 7.74 7.739-12.22 12.219-30.55-30.547 19.19-19.188c6.42-6.427 16.52-6.291 22.81 0 3.8 3.801 5.29 9.005 4.57 13.893l2.58-2.58 14.12 5.702-12.45 12.445Zm-30.46-14.345 6.52 6.516 6.11-6.109-6.52-6.517-6.11 6.11Zm15.97-32.255 12.22-12.219 30.54 30.547-12.22 12.219-30.54-30.547Zm42.54-42.545 8.6-8.598 21.27 39.824-17.56 17.559-39.46-21.632 13.58-13.576 27.65 15.25 1.22-1.221-15.3-27.606Zm47.52-30.324-14.93 14.934 2.71 2.715 13.17-13.169 8.15 8.146-13.17 13.169 2.49 2.489 14.93-14.934 8.6 8.598-27.15 27.153-30.55-30.547 27.15-27.153 8.6 8.599ZM1671.38 264.508l-5.43 5.431 4.21 6.471 4.52-4.525 6.56 6.562-5.88 5.883 4.57 6.924-8.14 8.146-4.57-6.924-5.43 5.43 4.57 7.015-8.15 8.145-4.57-7.014-3.49 3.485-6.56-6.562 4.85-4.843-4.26-6.426-3.89 3.892-6.56-6.562 5.25-5.249-4.98-7.603 8.14-8.146 4.98 7.603 5.48-5.476-5.02-7.648 8.14-8.146 5.02 7.648 4.08-4.073 6.56 6.562Zm-9.37 20.048-4.21-6.472-5.47 5.476 4.25 6.426 5.43-5.43Zm18.02-54.4c10.41-10.409 22.94-8.372 30.59-.724 7.65 7.648 11.72 19.414.81 30.321l-4.84 4.842.05.045-12.22 12.219-30.55-30.547 16.16-16.156Zm25.2 19.505-14.21-14.21-6.78 6.788 14.21 14.21 6.78-6.788Zm44.07-27.68-10.96-4.435-4.84 4.752 7.74 7.738-12.22 12.219-30.55-30.547 19.19-19.188c6.43-6.426 16.52-6.29 22.81 0 3.8 3.801 5.3 9.006 4.57 13.893l2.58-2.579 14.12 5.702-12.44 12.445Zm-30.46-14.346 6.52 6.517 6.11-6.11-6.52-6.516-6.11 6.109Zm15.96-32.255 12.22-12.218 30.55 30.547-12.22 12.218-30.55-30.547Zm42.55-42.544 8.6-8.599 21.27 39.824-17.56 17.559-39.47-21.632 13.58-13.576 27.65 15.251 1.22-1.222-15.29-27.605Zm47.52-30.325-14.94 14.934 2.72 2.716 13.17-13.169 8.14 8.145-13.16 13.17 2.48 2.489 14.94-14.935 8.6 8.599-27.16 27.153-30.54-30.547 27.15-27.153 8.6 8.598ZM973.72 1100.85l-5.431 5.43 4.209 6.47 4.526-4.52 6.562 6.56-5.884 5.88 4.571 6.93-8.146 8.14-4.57-6.92-5.431 5.43 4.571 7.01-8.146 8.15-4.571-7.01-3.484 3.48-6.562-6.56 4.842-4.84-4.254-6.43-3.892 3.89-6.562-6.56 5.25-5.25-4.978-7.6 8.145-8.15 4.978 7.6 5.476-5.47-5.023-7.65 8.146-8.15 5.023 7.65 4.073-4.07 6.562 6.56Zm-9.368 20.05-4.208-6.47-5.476 5.47 4.254 6.43 5.43-5.43Zm18.015-54.4c10.409-10.41 22.943-8.37 30.593-.72 7.65 7.64 11.72 19.41.81 30.32l-4.84 4.84.05.04-12.222 12.22-30.547-30.54 16.156-16.16Zm25.203 19.5-14.206-14.21-6.788 6.79 14.214 14.21 6.78-6.79Zm44.07-27.68-10.96-4.43-4.84 4.75 7.74 7.74-12.22 12.22-30.54-30.55 19.18-19.19c6.43-6.42 16.52-6.29 22.81 0 3.8 3.81 5.3 9.01 4.57 13.9l2.58-2.58 14.12 5.7-12.44 12.44Zm-30.46-14.34 6.52 6.52 6.11-6.11-6.52-6.52-6.11 6.11Zm15.96-32.26 12.22-12.215 30.55 30.545-12.22 12.22-30.55-30.55Zm42.55-42.541 8.6-8.598 21.27 39.829-17.56 17.55-39.47-21.628 13.58-13.576 27.65 15.251 1.22-1.222-15.29-27.606Zm47.52-30.324-14.94 14.934 2.72 2.715 13.17-13.169 8.15 8.146-13.17 13.169 2.48 2.489 14.94-14.934 8.6 8.599-27.16 27.153-30.54-30.547 27.15-27.153 8.6 8.598ZM1193.13 881.648l-5.43 5.431 4.21 6.471 4.53-4.525 6.56 6.562-5.89 5.883 4.57 6.924-8.14 8.146-4.57-6.924-5.43 5.43 4.57 7.015-8.15 8.146-4.57-7.015-3.48 3.485-6.56-6.562 4.84-4.843-4.26-6.426-3.89 3.892-6.56-6.562 5.25-5.249-4.98-7.603 8.15-8.146 4.97 7.603 5.48-5.476-5.02-7.648 8.14-8.146 5.03 7.648 4.07-4.073 6.56 6.562Zm-9.37 20.048-4.2-6.471-5.48 5.475 4.25 6.427 5.43-5.431Zm18.02-54.4c10.41-10.408 22.94-8.372 30.59-.724 7.65 7.648 11.72 19.414.82 30.321l-4.85 4.842.05.045-12.22 12.219-30.55-30.547 16.16-16.156Zm25.21 19.505-14.21-14.21-6.79 6.788 14.21 14.21 6.79-6.788Zm44.06-27.68-10.95-4.435-4.85 4.752 7.74 7.738-12.22 12.219-30.54-30.547 19.18-19.188c6.43-6.426 16.52-6.29 22.81 0 3.8 3.801 5.3 9.006 4.57 13.893l2.58-2.579 14.12 5.702-12.44 12.445Zm-30.46-14.346 6.52 6.517 6.11-6.11-6.52-6.516-6.11 6.109Zm15.96-32.255 12.22-12.218 30.55 30.547-12.22 12.218-30.55-30.547Zm42.55-42.544 8.6-8.599 21.27 39.824-17.56 17.559-39.46-21.631 13.57-13.577 27.65 15.251 1.23-1.222-15.3-27.605Zm47.52-30.325-14.93 14.934 2.71 2.716 13.17-13.169 8.15 8.145-13.17 13.17 2.49 2.489 14.93-14.934 8.6 8.598-27.15 27.153-30.55-30.547 27.15-27.153 8.6 8.598ZM1412.13 662.446l-5.43 5.43 4.2 6.472 4.53-4.526 6.56 6.562-5.88 5.883 4.57 6.924-8.15 8.146-4.57-6.924-5.43 5.431 4.57 7.014-8.14 8.146-4.57-7.014-3.49 3.484-6.56-6.562 4.84-4.842-4.25-6.426-3.89 3.892-6.57-6.562 5.25-5.25-4.97-7.602 8.14-8.146 4.98 7.602 5.48-5.475-5.03-7.648 8.15-8.146 5.02 7.648 4.07-4.073 6.57 6.562Zm-9.37 20.048-4.21-6.472-5.48 5.476 4.26 6.426 5.43-5.43Zm18.01-54.4c10.41-10.409 22.95-8.372 30.6-.724 7.64 7.648 11.72 19.414.81 30.32l-4.84 4.843.04.045-12.22 12.219-30.54-30.547 16.15-16.156Zm25.21 19.505-14.21-14.21-6.79 6.788 14.21 14.21 6.79-6.788Zm44.06-27.68-10.95-4.435-4.84 4.751 7.74 7.739-12.22 12.219-30.55-30.547 19.19-19.188c6.43-6.426 16.52-6.291 22.81 0 3.8 3.801 5.29 9.005 4.57 13.893l2.58-2.58 14.12 5.703-12.45 12.445Zm-30.45-14.346 6.51 6.517 6.11-6.11-6.51-6.517-6.11 6.11Zm15.96-32.255 12.22-12.219 30.54 30.547-12.21 12.219-30.55-30.547Zm42.54-42.545 8.6-8.598 21.27 39.824-17.56 17.559-39.46-21.632 13.58-13.576 27.65 15.251 1.22-1.222-15.3-27.606Zm47.52-30.324-14.93 14.934 2.72 2.715 13.17-13.169 8.14 8.146-13.17 13.169 2.49 2.489 14.94-14.934 8.59 8.599-27.15 27.153-30.55-30.547 27.16-27.153 8.59 8.598ZM1631.43 443.347l-5.43 5.43 4.21 6.472 4.53-4.526 6.56 6.562-5.88 5.883 4.57 6.924-8.15 8.146-4.57-6.924-5.43 5.431 4.57 7.014-8.15 8.146-4.57-7.014-3.48 3.484-6.56-6.562 4.84-4.842-4.26-6.426-3.89 3.892-6.56-6.562 5.25-5.25-4.98-7.603 8.15-8.145 4.98 7.602 5.47-5.475-5.02-7.649 8.14-8.145 5.03 7.648 4.07-4.073 6.56 6.562Zm-9.36 20.048-4.21-6.472-5.48 5.476 4.25 6.426 5.44-5.43Zm18.01-54.4c10.41-10.409 22.94-8.372 30.59-.724 7.65 7.648 11.72 19.414.82 30.32l-4.85 4.843.05.045-12.22 12.219-30.55-30.547 16.16-16.156Zm25.21 19.505-14.21-14.21-6.79 6.788 14.21 14.21 6.79-6.788Zm44.06-27.681-10.95-4.434-4.84 4.751 7.73 7.739-12.21 12.219-30.55-30.547 19.19-19.188c6.42-6.427 16.51-6.291 22.8 0 3.81 3.801 5.3 9.005 4.58 13.893l2.58-2.58 14.11 5.702-12.44 12.445Zm-30.46-14.345 6.52 6.516 6.11-6.109-6.52-6.517-6.11 6.11Zm15.97-32.255L1707.07 342l30.55 30.547-12.22 12.219-30.54-30.547Zm42.54-42.545 8.6-8.598 21.27 39.824-17.56 17.559-39.46-21.632 13.57-13.576 27.66 15.251 1.22-1.222-15.3-27.606Zm47.52-30.324-14.93 14.934 2.71 2.715 13.17-13.169 8.15 8.146-13.17 13.169 2.49 2.489 14.93-14.934 8.6 8.598-27.15 27.153-30.55-30.547 27.15-27.153 8.6 8.599ZM1850.43 224.144l-5.43 5.431 4.21 6.471 4.52-4.525 6.56 6.561-5.88 5.884 4.57 6.924-8.14 8.145-4.58-6.924-5.43 5.431 4.57 7.015-8.14 8.145-4.57-7.014-3.49 3.485-6.56-6.562 4.84-4.843-4.25-6.426-3.89 3.892-6.56-6.562 5.25-5.249-4.98-7.603 8.14-8.146 4.98 7.603 5.48-5.476-5.03-7.648 8.15-8.146 5.02 7.648 4.08-4.073 6.56 6.562Zm-9.37 20.048-4.21-6.472-5.47 5.476 4.25 6.426 5.43-5.43Zm18.01-54.4c10.41-10.409 22.95-8.372 30.6-.724 7.65 7.648 11.72 19.414.81 30.321l-4.84 4.842.04.045-12.21 12.219-30.55-30.547 16.15-16.156Zm25.21 19.505-14.21-14.21-6.79 6.788 14.21 14.21 6.79-6.788Zm44.06-27.68-10.95-4.435-4.84 4.752 7.74 7.738-12.22 12.219-30.55-30.547 19.19-19.188c6.43-6.426 16.52-6.29 22.81 0 3.8 3.801 5.29 9.006 4.57 13.893l2.58-2.579 14.12 5.702-12.45 12.445Zm-30.45-14.346 6.51 6.517 6.11-6.11-6.51-6.516-6.11 6.109Zm15.96-32.255 12.22-12.218 30.55 30.547-12.22 12.218-30.55-30.547Zm42.55-42.544 8.59-8.599 21.27 39.824-17.56 17.559-39.46-21.632 13.58-13.576 27.65 15.251 1.22-1.222-15.29-27.605Zm47.52-30.325-14.94 14.934 2.72 2.716 13.17-13.17 8.14 8.146-13.17 13.17 2.49 2.489 14.94-14.935 8.6 8.599-27.16 27.153-30.54-30.547 27.15-27.153 8.6 8.598ZM1152.77 1060.7l-5.43 5.43 4.21 6.47 4.52-4.53 6.56 6.57-5.88 5.88 4.57 6.92-8.15 8.15-4.57-6.93-5.43 5.43 4.57 7.02-8.14 8.15-4.57-7.02-3.49 3.49-6.56-6.57 4.84-4.84-4.25-6.43-3.89 3.9-6.56-6.57 5.25-5.24-4.98-7.61 8.14-8.14 4.98 7.6 5.48-5.48-5.03-7.64 8.15-8.15 5.02 7.65 4.08-4.08 6.56 6.57Zm-9.37 20.04-4.21-6.47-5.47 5.48 4.25 6.43 5.43-5.44Zm18.01-54.4c10.41-10.4 22.95-8.37 30.6-.72 7.65 7.65 11.72 19.41.81 30.32l-4.84 4.84.04.05-12.21 12.22-30.55-30.55 16.15-16.16Zm25.21 19.51-14.21-14.21-6.79 6.79 14.21 14.21 6.79-6.79Zm44.06-27.68-10.95-4.44-4.84 4.76 7.74 7.73-12.22 12.22-30.55-30.54 19.19-19.191c6.43-6.427 16.52-6.291 22.81 0 3.8 3.801 5.29 9.005 4.57 13.891l2.58-2.58 14.12 5.7-12.45 12.45Zm-30.45-14.35 6.51 6.52 6.11-6.11-6.51-6.516-6.11 6.106Zm15.96-32.251 12.22-12.219 30.55 30.547-12.22 12.223-30.55-30.551Zm42.55-42.545 8.59-8.598 21.27 39.824-17.56 17.559-39.46-21.632 13.58-13.576 27.65 15.251 1.22-1.222-15.29-27.606Zm47.52-30.324-14.94 14.934 2.72 2.715 13.17-13.169 8.14 8.146-13.17 13.169 2.49 2.489 14.94-14.934 8.6 8.599-27.16 27.152-30.54-30.547 27.15-27.152 8.6 8.598ZM1371.76 841.495l-5.43 5.43 4.21 6.472 4.53-4.526 6.56 6.562-5.89 5.883 4.58 6.924-8.15 8.146-4.57-6.924-5.43 5.431 4.57 7.014-8.15 8.146-4.57-7.014-3.48 3.484-6.56-6.562 4.84-4.842-4.26-6.426-3.89 3.892-6.56-6.562 5.25-5.25-4.98-7.603 8.15-8.145 4.98 7.602 5.47-5.475-5.02-7.649 8.14-8.145 5.03 7.648 4.07-4.073 6.56 6.562Zm-9.37 20.048-4.2-6.472-5.48 5.476 4.25 6.426 5.43-5.43Zm18.02-54.4c10.41-10.409 22.94-8.372 30.59-.724 7.65 7.648 11.72 19.414.82 30.32l-4.85 4.843.05.045-12.22 12.219-30.55-30.547 16.16-16.156Zm25.21 19.505-14.21-14.21-6.79 6.788 14.21 14.21 6.79-6.788Zm44.06-27.681-10.95-4.434-4.85 4.751 7.74 7.739-12.22 12.219-30.54-30.547 19.19-19.188c6.42-6.427 16.51-6.291 22.8 0 3.81 3.801 5.3 9.005 4.57 13.893l2.58-2.58 14.12 5.702-12.44 12.445Zm-30.46-14.345 6.52 6.516 6.11-6.109-6.52-6.517-6.11 6.11Zm15.97-32.255 12.21-12.219 30.55 30.547-12.22 12.219-30.54-30.547Zm42.54-42.545 8.6-8.598 21.27 39.824-17.56 17.559-39.46-21.632 13.57-13.576 27.65 15.251 1.23-1.222-15.3-27.606Zm47.52-30.324-14.93 14.934 2.71 2.715 13.17-13.169 8.15 8.146-13.17 13.169 2.49 2.489 14.93-14.934 8.6 8.599-27.15 27.152-30.55-30.547 27.15-27.153 8.6 8.599ZM1591.07 622.395l-5.43 5.431 4.21 6.471 4.52-4.525 6.56 6.562-5.88 5.883 4.57 6.924-8.14 8.146-4.57-6.924-5.43 5.43 4.57 7.015-8.15 8.146-4.57-7.015-3.49 3.485-6.56-6.562 4.84-4.842-4.25-6.427-3.89 3.892-6.56-6.562 5.25-5.249-4.98-7.603 8.14-8.146 4.98 7.603 5.48-5.476-5.02-7.648 8.14-8.146 5.02 7.648 4.08-4.073 6.56 6.562Zm-9.37 20.048-4.21-6.471-5.47 5.475 4.25 6.427 5.43-5.431Zm18.02-54.4c10.4-10.408 22.94-8.372 30.59-.724 7.65 7.648 11.72 19.414.81 30.321l-4.84 4.842.05.045-12.22 12.219-30.55-30.547 16.16-16.156Zm25.2 19.505-14.21-14.21-6.78 6.788 14.21 14.21 6.78-6.788Zm44.07-27.68-10.96-4.435-4.84 4.752 7.74 7.738-12.22 12.219-30.55-30.547 19.19-19.188c6.43-6.426 16.52-6.29 22.81 0 3.8 3.802 5.3 9.006 4.57 13.893l2.58-2.579 14.12 5.702-12.44 12.445Zm-30.46-14.346 6.52 6.517 6.11-6.109-6.52-6.517-6.11 6.109Zm15.96-32.254 12.22-12.219 30.55 30.547-12.22 12.219-30.55-30.547Zm42.55-42.545 8.6-8.599 21.27 39.825-17.56 17.558-39.47-21.631 13.58-13.577 27.65 15.251 1.22-1.222-15.29-27.605Zm47.52-30.325-14.94 14.935 2.72 2.715 13.17-13.169 8.14 8.146-13.16 13.169 2.48 2.489 14.94-14.934 8.6 8.598-27.16 27.153-30.54-30.547 27.15-27.153 8.6 8.598ZM1810.06 403.193l-5.43 5.43 4.21 6.472 4.53-4.526 6.56 6.562-5.88 5.883 4.57 6.924-8.15 8.146-4.57-6.924-5.43 5.431 4.57 7.014-8.15 8.146-4.57-7.014-3.48 3.484-6.56-6.562 4.84-4.842-4.25-6.426-3.9 3.892-6.56-6.562 5.25-5.25-4.98-7.602 8.15-8.146 4.98 7.603 5.47-5.476-5.02-7.648 8.15-8.146 5.02 7.648 4.07-4.073 6.56 6.562Zm-9.36 20.048-4.21-6.472-5.48 5.476 4.26 6.426 5.43-5.43Zm18.01-54.4c10.41-10.409 22.95-8.372 30.59-.724 7.65 7.648 11.72 19.414.82 30.321l-4.84 4.842.04.045-12.22 12.219-30.54-30.547 16.15-16.156Zm25.21 19.505-14.21-14.21-6.79 6.788 14.21 14.21 6.79-6.788Zm44.06-27.68-10.95-4.435-4.84 4.751 7.74 7.739-12.22 12.219-30.55-30.547 19.19-19.188c6.42-6.426 16.52-6.291 22.81 0 3.8 3.801 5.29 9.005 4.57 13.893l2.58-2.58 14.12 5.703-12.45 12.445Zm-30.46-14.346 6.52 6.517 6.11-6.11-6.52-6.517-6.11 6.11Zm15.97-32.255 12.22-12.219 30.54 30.547-12.22 12.219-30.54-30.547Zm42.54-42.545 8.6-8.598 21.27 39.824-17.56 17.559-39.46-21.632 13.58-13.576 27.65 15.251 1.22-1.222-15.3-27.606Zm47.52-30.324-14.93 14.934 2.71 2.715 13.17-13.169 8.15 8.146-13.17 13.169 2.49 2.489 14.93-14.934 8.6 8.599-27.15 27.153-30.55-30.547 27.15-27.153 8.6 8.598ZM1331.82 1020.33l-5.43 5.43 4.2 6.47 4.53-4.52 6.56 6.56-5.88 5.88 4.57 6.93-8.15 8.14-4.57-6.92-5.43 5.43 4.57 7.02-8.14 8.14-4.57-7.01-3.49 3.48-6.56-6.56 4.84-4.84-4.25-6.43-3.89 3.89-6.57-6.56 5.25-5.25-4.97-7.6 8.14-8.15 4.98 7.61 5.48-5.48-5.03-7.65 8.15-8.14 5.02 7.64 4.07-4.07 6.57 6.56Zm-9.37 20.05-4.21-6.47-5.48 5.47 4.26 6.43 5.43-5.43Zm18.01-54.399c10.41-10.409 22.95-8.372 30.6-.724 7.64 7.648 11.72 19.413.81 30.323l-4.84 4.84.04.04-12.22 12.22-30.54-30.54 16.15-16.159Zm25.21 19.509-14.21-14.214-6.79 6.788 14.21 14.206 6.79-6.78Zm44.06-27.684-10.95-4.435-4.84 4.751 7.74 7.739-12.22 12.219-30.55-30.547 19.19-19.188c6.43-6.427 16.52-6.291 22.81 0 3.8 3.801 5.29 9.005 4.57 13.893l2.58-2.58 14.12 5.702-12.45 12.446Zm-30.45-14.346 6.51 6.516 6.11-6.109-6.51-6.517-6.11 6.11Zm15.96-32.255 12.22-12.219 30.54 30.547-12.21 12.219-30.55-30.547Zm42.54-42.545 8.6-8.598 21.27 39.824-17.56 17.559-39.46-21.632 13.58-13.576 27.65 15.251 1.22-1.222-15.3-27.606Zm47.52-30.324-14.93 14.934 2.72 2.715 13.17-13.169 8.14 8.146-13.17 13.169 2.49 2.489 14.94-14.934 8.59 8.599-27.15 27.152-30.55-30.547 27.16-27.152 8.59 8.598ZM1550.81 801.131l-5.43 5.43 4.21 6.472 4.52-4.526 6.57 6.562-5.89 5.883 4.57 6.924-8.14 8.146-4.57-6.924-5.43 5.431 4.57 7.014-8.15 8.146-4.57-7.014-3.48 3.484-6.57-6.562 4.85-4.842-4.26-6.426-3.89 3.892-6.56-6.562 5.25-5.25-4.98-7.603 8.15-8.146 4.97 7.603 5.48-5.476-5.02-7.648 8.14-8.146 5.03 7.649 4.07-4.073 6.56 6.562Zm-9.37 20.047-4.21-6.471-5.47 5.476 4.25 6.426 5.43-5.431Zm18.02-54.399c10.41-10.409 22.94-8.373 30.59-.724 7.65 7.648 11.72 19.414.81 30.32l-4.84 4.843.05.045-12.22 12.219-30.55-30.547 16.16-16.156Zm25.2 19.504-14.21-14.21-6.78 6.789 14.21 14.21 6.78-6.789Zm44.07-27.68-10.95-4.435-4.85 4.752 7.74 7.739-12.22 12.219-30.54-30.547 19.18-19.188c6.43-6.427 16.52-6.291 22.81 0 3.8 3.801 5.3 9.005 4.57 13.893l2.58-2.58 14.12 5.702-12.44 12.445Zm-30.46-14.345 6.52 6.516 6.11-6.109-6.52-6.517-6.11 6.11Zm15.96-32.255 12.22-12.219 30.55 30.547-12.22 12.219-30.55-30.547Zm42.55-42.545 8.6-8.598 21.27 39.824-17.56 17.559-39.46-21.632 13.57-13.576 27.65 15.25 1.22-1.221-15.29-27.606Zm47.52-30.324-14.93 14.934 2.71 2.715 13.17-13.169 8.15 8.146-13.17 13.169 2.49 2.489 14.93-14.934 8.6 8.598-27.15 27.153-30.55-30.547 27.15-27.153 8.6 8.599ZM1770.12 582.031l-5.43 5.431 4.21 6.471 4.52-4.525 6.56 6.562-5.88 5.883 4.57 6.924-8.15 8.146-4.57-6.924-5.43 5.43 4.57 7.015-8.14 8.146-4.57-7.015-3.49 3.485-6.56-6.562 4.84-4.842-4.25-6.427-3.89 3.892-6.56-6.562 5.25-5.249-4.98-7.603 8.14-8.146 4.98 7.603 5.48-5.476-5.03-7.648 8.15-8.146 5.02 7.648 4.08-4.073 6.56 6.562Zm-9.37 20.048-4.21-6.471-5.47 5.476 4.25 6.426 5.43-5.431Zm18.01-54.4c10.41-10.408 22.95-8.372 30.6-.724 7.65 7.648 11.72 19.415.81 30.321l-4.84 4.842.04.046-12.21 12.218-30.55-30.547 16.15-16.156Zm25.21 19.505-14.21-14.21-6.79 6.788 14.21 14.21 6.79-6.788Zm44.06-27.68-10.95-4.435-4.84 4.752 7.74 7.738-12.22 12.219-30.55-30.547 19.19-19.188c6.43-6.426 16.52-6.29 22.81 0 3.8 3.802 5.29 9.006 4.57 13.893l2.58-2.579 14.12 5.702-12.45 12.445Zm-30.45-14.346 6.51 6.517 6.11-6.109-6.51-6.517-6.11 6.109Zm15.96-32.254 12.22-12.219 30.55 30.547-12.22 12.219-30.55-30.547Zm42.55-42.545 8.59-8.599 21.27 39.825-17.56 17.559-39.46-21.632 13.58-13.577 27.65 15.251 1.22-1.222-15.29-27.605Zm47.52-30.324-14.94 14.934 2.72 2.715 13.17-13.169 8.14 8.146-13.17 13.169 2.49 2.489 14.94-14.934 8.6 8.598-27.16 27.153-30.54-30.547 27.15-27.153 8.6 8.599ZM1510.45 980.179l-5.43 5.431 4.21 6.471 4.52-4.525 6.56 6.562-5.88 5.882 4.57 6.92-8.15 8.15-4.57-6.92-5.43 5.43 4.57 7.01-8.14 8.15-4.57-7.02-3.49 3.49-6.56-6.56 4.84-4.85-4.25-6.42-3.89 3.89-6.56-6.56 5.24-5.252-4.97-7.603 8.14-8.146 4.98 7.603 5.48-5.476-5.03-7.648 8.15-8.146 5.02 7.648 4.08-4.073 6.56 6.562Zm-9.37 20.051-4.21-6.474-5.48 5.476 4.26 6.428 5.43-5.43Zm18.01-54.403c10.41-10.408 22.95-8.372 30.6-.724 7.64 7.648 11.72 19.415.81 30.321l-4.84 4.842.04.045-12.21 12.219-30.55-30.547 16.15-16.156Zm25.21 19.505-14.21-14.21-6.79 6.788 14.21 14.21 6.79-6.788Zm44.06-27.68-10.95-4.435-4.84 4.752 7.74 7.738-12.22 12.219-30.55-30.547 19.19-19.188c6.43-6.426 16.52-6.29 22.81 0 3.8 3.802 5.29 9.006 4.57 13.893l2.58-2.579 14.12 5.702-12.45 12.445Zm-30.45-14.346 6.51 6.517 6.11-6.109-6.51-6.517-6.11 6.109Zm15.96-32.254 12.22-12.219 30.55 30.547-12.22 12.219-30.55-30.547Zm42.54-42.545 8.6-8.599 21.27 39.825-17.56 17.558-39.46-21.631 13.58-13.577 27.65 15.251 1.22-1.222-15.3-27.605Zm47.53-30.325L1649 833.117l2.72 2.715 13.17-13.169 8.14 8.146-13.17 13.169 2.49 2.489 14.94-14.934 8.59 8.598-27.15 27.153-30.55-30.547 27.16-27.153 8.6 8.598ZM1729.75 761.08l-5.43 5.431 4.21 6.471 4.53-4.525 6.56 6.562-5.88 5.883 4.57 6.924-8.15 8.146-4.57-6.924-5.43 5.43 4.57 7.015-8.14 8.146-4.58-7.015-3.48 3.485-6.56-6.562 4.84-4.842-4.25-6.427-3.9 3.892-6.56-6.562 5.25-5.249-4.98-7.603 8.15-8.146 4.98 7.603 5.47-5.476-5.02-7.648 8.15-8.146 5.02 7.648 4.07-4.073 6.56 6.562Zm-9.36 20.048-4.21-6.471-5.48 5.475 4.26 6.427 5.43-5.431Zm18.01-54.4c10.41-10.408 22.95-8.372 30.59-.724 7.65 7.648 11.72 19.414.82 30.321l-4.84 4.842.04.045-12.22 12.219-30.54-30.547 16.15-16.156Zm25.21 19.505-14.21-14.21-6.79 6.788 14.21 14.21 6.79-6.788Zm44.06-27.68-10.95-4.435-4.84 4.752 7.74 7.738-12.22 12.219-30.55-30.547 19.19-19.188c6.42-6.426 16.52-6.29 22.81 0 3.8 3.802 5.29 9.006 4.57 13.893l2.58-2.579 14.12 5.702-12.45 12.445Zm-30.46-14.346 6.52 6.517 6.11-6.109-6.52-6.517-6.11 6.109Zm15.97-32.254 12.22-12.219 30.54 30.547-12.22 12.219-30.54-30.547Zm42.54-42.545 8.6-8.599 21.27 39.825-17.56 17.558-39.46-21.631 13.58-13.577 27.65 15.251 1.22-1.222-15.3-27.605Zm47.52-30.325-14.93 14.935 2.71 2.715 13.17-13.169 8.15 8.146-13.17 13.169 2.49 2.489 14.93-14.934 8.6 8.598-27.15 27.153-30.55-30.547 27.15-27.153 8.6 8.598ZM1948.75 541.877l-5.43 5.431 4.21 6.471 4.52-4.525 6.56 6.562-5.88 5.883 4.57 6.924-8.14 8.146-4.57-6.924-5.44 5.43 4.58 7.015-8.15 8.146-4.57-7.015-3.49 3.485-6.56-6.562 4.84-4.842-4.25-6.426-3.89 3.891-6.56-6.561 5.25-5.25-4.98-7.603 8.14-8.146 4.98 7.603 5.48-5.476-5.03-7.648 8.15-8.146 5.02 7.648 4.08-4.073 6.56 6.562Zm-9.37 20.048-4.21-6.471-5.47 5.476 4.25 6.426 5.43-5.431Zm18.02-54.4c10.4-10.408 22.94-8.372 30.59-.724 7.65 7.648 11.72 19.415.81 30.321l-4.84 4.842.05.046-12.22 12.218-30.55-30.547 16.16-16.156Zm25.2 19.505-14.21-14.21-6.79 6.788 14.21 14.211 6.79-6.789Zm44.07-27.68-10.96-4.435-4.84 4.752 7.74 7.739-12.22 12.218-30.55-30.547 19.19-19.188c6.43-6.426 16.52-6.29 22.81 0 3.8 3.802 5.3 9.006 4.57 13.894l2.58-2.58 14.12 5.702-12.44 12.445Zm-30.46-14.346 6.52 6.517 6.1-6.109-6.51-6.517-6.11 6.109Zm15.96-32.254 12.22-12.219 30.55 30.547-12.22 12.219-30.55-30.547Zm42.55-42.545 8.6-8.598 21.26 39.824-17.55 17.559-39.47-21.632 13.58-13.577 27.65 15.251 1.22-1.222-15.29-27.605Zm47.52-30.324-14.94 14.934 2.72 2.715 13.17-13.169 8.14 8.146-13.17 13.169 2.49 2.489 14.94-14.934 8.6 8.598-27.16 27.153-30.54-30.547 27.15-27.153 8.6 8.599Z" fill="#fff" fill-opacity=".1"/><path d="m1743.75 979.024 71.64-221.452-59.32-21.352-103.8 209.317 91.48 33.487Z" fill="#3D0093"/><path d="m1793.95 824.911 210.65-98.997-24.78-58.421-223.75 68.727 37.88 88.691Z" fill="#3D0093"/><path d="m1754.75 1001.02 71.64-221.448-59.32-21.352-103.8 209.317 91.48 33.483Z" fill="#fff"/><path d="m1804.95 846.911 210.65-98.997-24.78-58.421-223.75 68.727 37.88 88.691Z" fill="#fff"/><path d="m-23.84 149.92 198.261-25.712 8.713 53.449L-9.93 232.423l-13.91-82.503Z" fill="#3D0093"/><path d="M114.189 131.729 230.877-30.605l45.441 30.11-93.185 178.152-68.944-45.928Z" fill="#3D0093"/><path d="m-40.077 137.163 198.261-25.712 8.712 53.449-193.063 54.766-13.91-82.503Z" fill="#fff"/><path d="M97.952 118.972 214.64-43.361l45.441 30.109L166.896 164.9l-68.944-45.928Z" fill="#fff"/><path d="m1546.81 232.421 250.15-281.112-78.84-31.436-259.83 228.726 88.52 83.822ZM1282.55 307.329l197.22-257.908-52.95-89.802-259.24 245.197 114.97 102.513Z" fill="#3D0093"/><path d="m1340.21 44.645 123.36 108.48 56.36-55.972-93.22-138.42-86.5 85.912Z" fill="#3D0093"/><path d="M1559.86 248.612 1810.01-32.5l-78.85-31.437-259.82 228.727 88.52 83.822ZM1260.9 361.469l231.92-295.857-52.96-89.802-259.23 245.197 80.27 140.462Z" fill="#fff"/><path d="m1353.26 60.835 123.36 108.481 56.36-55.973-93.23-138.419-86.49 85.911Z" fill="#fff"/><path d="M50.623 907.683 445.627 1110l12.537-99.32-338.066-228.881-69.475 125.884ZM-113.156 628.185l352.837 148.76 86.836-87.046-356.694-223.327-82.979 161.613Z" fill="#3D0093"/><path d="m203.802 616.207-87.307 172.962 80.589 47.758L327.495 689.51l-123.693-73.303Z" fill="#3D0093"/><path d="m36.004 927.374 395.004 202.316 12.537-99.32-338.066-228.88-69.475 125.884ZM-166.739 631.08l391.801 165.556 86.836-87.046-356.694-223.327-121.943 144.817Z" fill="#fff"/><path d="M189.183 635.898 101.876 808.86l80.589 47.758 130.411-147.417-123.693-73.303Z" fill="#fff"/><path d="M1005.72 946.043 821.992 689.329l68.567-19.226 196.451 213.872-81.29 62.068ZM1219.52 1031.99l-141.63-232.657 52.15-70.214 194.49 227.559-105.01 75.312Z" fill="#3D0093"/><path d="m1194.74 807.737-112.54 79.545-42.05-51.696 90.06-107.196 64.53 79.347Z" fill="#3D0093"/><path d="M993.395 959.066 809.67 702.353l68.567-19.226 196.443 213.871-81.285 62.068ZM1223.09 1070.67l-157.52-258.314 52.14-70.214 194.5 227.559-89.12 100.969Z" fill="#fff"/><path d="m1182.42 820.76-112.55 79.545-42.04-51.695 90.06-107.197 64.53 79.347Z" fill="#fff"/><path d="m849.364 100.806-237.491 51.508 7.336-54.325 211.095-73.572 19.06 76.389ZM975.347-24.068 767.704 5.03l-33.71-58.278 220.172-68.015 21.181 97.196Z" fill="#56028E"/><path d="m809.299-74.987 21.875 103.81-49.364 13.94-48.279-96.356 75.768-21.394Z" fill="#56028E"/><path d="M854.331 113.282 616.84 164.791l7.336-54.325 211.095-73.572 19.06 76.388ZM1003.3-14.999 772.67 17.506l-33.71-58.279 220.172-68.014 44.168 93.788Z" fill="#fff"/><path d="M814.266-62.51 836.14 41.3 786.776 55.24l-48.279-96.355 75.769-21.394Z" fill="#fff"/></g><defs><clipPath id="a"><path fill="#fff" d="M0 0h1920v949H0z"/></clipPath></defs></svg>