<svg width="209" height="62" fill="none" xmlns="http://www.w3.org/2000/svg"><path d="M201.061 61.273H7.733C3.482 61.273 0 57.858 0 53.69V8.186C0 4.016 3.482.602 7.733.602h193.328c4.251 0 7.733 3.415 7.733 7.584v45.503c0 4.17-3.482 7.584-7.733 7.584Z" fill="#000"/><path d="M201.061 1.817c3.58 0 6.494 2.858 6.494 6.369v45.503c0 3.511-2.914 6.369-6.494 6.369H7.733c-3.58 0-6.494-2.858-6.494-6.369V8.186c0-3.511 2.914-6.369 6.494-6.369h193.328Zm0-1.215H7.733C3.482.602 0 4.017 0 8.186v45.503c0 4.17 3.482 7.584 7.733 7.584h193.328c4.251 0 7.733-3.415 7.733-7.584V8.186c0-4.17-3.482-7.584-7.733-7.584Z" fill="#000"/><path d="M73.337 16.14c0 1.266-.387 2.28-1.148 3.037-.876.897-2.017 1.348-3.415 1.348-1.335 0-2.476-.459-3.412-1.363-.938-.918-1.405-2.044-1.405-3.392 0-1.348.467-2.474 1.405-3.384.936-.912 2.077-1.371 3.412-1.371.665 0 1.3.135 1.905.385.603.252 1.094.593 1.45 1.014l-.809.8c-.62-.718-1.465-1.073-2.546-1.073a3.58 3.58 0 0 0-2.536 1.007c-.71.675-1.065 1.549-1.065 2.622s.355 1.955 1.065 2.63c.717.665 1.562 1.007 2.536 1.007 1.035 0 1.905-.342 2.591-1.015.452-.445.71-1.06.777-1.845h-3.368v-1.095h4.493c.055.237.07.466.07.688ZM80.465 12.34h-4.22v2.882h3.804v1.096h-3.804v2.881h4.22v1.117H75.05v-9.093h5.415v1.117ZM85.495 20.316h-1.194V12.34h-2.59v-1.117h6.375v1.117h-2.59v7.976ZM92.699 20.316v-9.093h1.193v9.093h-1.193ZM99.179 20.316h-1.185V12.34h-2.599v-1.117h6.382v1.117h-2.598v7.976ZM113.845 19.147c-.915.92-2.047 1.378-3.399 1.378-1.359 0-2.492-.459-3.406-1.378-.913-.918-1.367-2.044-1.367-3.377 0-1.333.454-2.459 1.367-3.377.914-.92 2.047-1.378 3.406-1.378 1.344 0 2.477.459 3.391 1.386.92.925 1.375 2.044 1.375 3.37 0 1.332-.455 2.458-1.367 3.376Zm-5.922-.762c.688.68 1.526 1.022 2.523 1.022.99 0 1.835-.342 2.515-1.022.687-.681 1.035-1.555 1.035-2.615 0-1.06-.348-1.934-1.035-2.614-.68-.681-1.525-1.022-2.515-1.022-.997 0-1.835.34-2.523 1.022-.686.68-1.034 1.554-1.034 2.614 0 1.06.348 1.934 1.034 2.615ZM116.888 20.316v-9.093h1.45l4.508 7.072h.052l-.052-1.748v-5.324h1.193v9.093h-1.245l-4.721-7.42h-.052l.052 1.755v5.665h-1.185Z" fill="#fff" stroke="#fff" stroke-width=".16" stroke-miterlimit="10"/><path d="M105.379 33.596c-3.633 0-6.6 2.711-6.6 6.452 0 3.71 2.967 6.45 6.6 6.45 3.64 0 6.608-2.74 6.608-6.45 0-3.74-2.968-6.452-6.608-6.452Zm0 10.361c-1.993 0-3.708-1.613-3.708-3.91 0-2.326 1.715-3.91 3.708-3.91s3.716 1.584 3.716 3.91c0 2.297-1.723 3.91-3.716 3.91ZM90.978 33.596c-3.64 0-6.6 2.711-6.6 6.452 0 3.71 2.96 6.45 6.6 6.45 3.639 0 6.6-2.74 6.6-6.45 0-3.74-2.962-6.452-6.6-6.452Zm0 10.361c-1.995 0-3.716-1.613-3.716-3.91 0-2.326 1.72-3.91 3.716-3.91 1.993 0 3.708 1.584 3.708 3.91 0 2.297-1.715 3.91-3.708 3.91Zm-17.136-8.384v2.742h6.675c-.195 1.532-.717 2.658-1.517 3.443-.975.948-2.493 2-5.159 2-4.108 0-7.325-3.251-7.325-7.28 0-4.03 3.217-7.28 7.325-7.28 2.222 0 3.838.85 5.03 1.954l1.97-1.932c-1.667-1.562-3.887-2.762-7-2.762-5.633 0-10.368 4.495-10.368 10.02 0 5.524 4.735 10.02 10.368 10.02 3.045 0 5.333-.978 7.13-2.814 1.843-1.807 2.417-4.347 2.417-6.399 0-.637-.054-1.222-.15-1.712H73.84Zm70.073 2.126c-.543-1.443-2.219-4.103-5.634-4.103-3.383 0-6.2 2.614-6.2 6.452 0 3.613 2.788 6.45 6.525 6.45 3.022 0 4.766-1.807 5.483-2.86l-2.243-1.465c-.748 1.073-1.767 1.784-3.24 1.784-1.463 0-2.513-.658-3.186-1.955l8.799-3.57-.304-.733Zm-8.97 2.148c-.076-2.488 1.97-3.762 3.435-3.762 1.148 0 2.123.563 2.448 1.37l-5.883 2.392Zm-7.152 6.258h2.893v-18.96h-2.893v18.96Zm-4.736-11.072h-.097c-.649-.755-1.889-1.437-3.458-1.437-3.295 0-6.307 2.836-6.307 6.473 0 3.615 3.012 6.429 6.307 6.429 1.569 0 2.809-.688 3.458-1.466h.097v.926c0 2.466-1.344 3.791-3.511 3.791-1.767 0-2.863-1.25-3.315-2.303l-2.516 1.03c.725 1.71 2.645 3.814 5.831 3.814 3.391 0 6.252-1.957 6.252-6.717V33.988h-2.741v1.045Zm-3.308 8.924c-1.993 0-3.662-1.636-3.662-3.888 0-2.274 1.669-3.933 3.662-3.933 1.964 0 3.513 1.66 3.513 3.933 0 2.252-1.549 3.888-3.513 3.888Zm37.707-16.811h-6.918v18.96h2.885v-7.184h4.033c3.203 0 6.345-2.274 6.345-5.89 0-3.613-3.15-5.886-6.345-5.886Zm.075 9.138h-4.108v-6.501h4.108a3.321 3.321 0 0 1 3.383 3.25 3.34 3.34 0 0 1-3.383 3.251Zm17.831-2.724c-2.084 0-4.252.902-5.143 2.902l2.56 1.053c.551-1.053 1.564-1.394 2.635-1.394 1.496 0 3.014.882 3.037 2.438v.2c-.522-.296-1.639-.734-3.014-.734-2.757 0-5.566 1.488-5.566 4.266 0 2.54 2.258 4.177 4.797 4.177 1.941 0 3.012-.86 3.684-1.859h.099v1.466h2.786v-7.273c0-3.361-2.56-5.242-5.875-5.242Zm-.348 10.39c-.944 0-2.258-.46-2.258-1.606 0-1.468 1.639-2.03 3.058-2.03 1.27 0 1.866.274 2.637.636-.226 1.756-1.767 3-3.437 3Zm16.373-9.975-3.316 8.219h-.099l-3.427-8.219h-3.111l5.15 11.486-2.938 6.391h3.014l7.936-17.877h-3.209Zm-26.001 12.13h2.892v-18.96h-2.892v18.96Z" fill="#fff"/><path d="M16.14 12.037c-.455.466-.718 1.192-.718 2.133v33.543c0 .94.263 1.667.717 2.133l.112.103 19.167-18.79v-.443L16.25 11.926l-.112.11Z" fill="url(#a)"/><path d="m41.8 37.426-6.382-6.266v-.444l6.39-6.266.142.081 7.567 4.223c2.16 1.198 2.16 3.17 0 4.375l-7.567 4.215-.15.082Z" fill="url(#b)"/><path d="m41.95 37.344-6.532-6.406-19.28 18.908c.718.74 1.888.829 3.218.09L41.95 37.343Z" fill="url(#c)"/><path d="M41.95 24.531 19.356 11.94c-1.33-.732-2.5-.643-3.217.097l19.279 18.9 6.532-6.406Z" fill="url(#d)"/><defs><linearGradient id="a" x1="33.716" y1="48.063" x2="8.266" y2="22.111" gradientUnits="userSpaceOnUse"><stop stop-color="#00A0FF"/><stop offset=".007" stop-color="#00A1FF"/><stop offset=".26" stop-color="#00BEFF"/><stop offset=".512" stop-color="#00D2FF"/><stop offset=".76" stop-color="#00DFFF"/><stop offset="1" stop-color="#00E3FF"/></linearGradient><linearGradient id="b" x1="52.329" y1="30.936" x2="14.905" y2="30.936" gradientUnits="userSpaceOnUse"><stop stop-color="#FFE000"/><stop offset=".409" stop-color="#FFBD00"/><stop offset=".775" stop-color="orange"/><stop offset="1" stop-color="#FF9C00"/></linearGradient><linearGradient id="c" x1="38.398" y1="27.455" x2="3.885" y2="-7.737" gradientUnits="userSpaceOnUse"><stop stop-color="#FF3A44"/><stop offset="1" stop-color="#C31162"/></linearGradient><linearGradient id="d" x1="11.286" y1="61.006" x2="26.698" y2="45.291" gradientUnits="userSpaceOnUse"><stop stop-color="#32A071"/><stop offset=".069" stop-color="#2DA771"/><stop offset=".476" stop-color="#15CF74"/><stop offset=".801" stop-color="#06E775"/><stop offset="1" stop-color="#00F076"/></linearGradient></defs></svg>